<svg width="512" height="512" viewBox="0 0 512 512" fill="none" xmlns="http://www.w3.org/2000/svg">
<g clip-path="url(#clip0_840_895)">
<rect width="512" height="512" rx="144" fill="#6B7280"/>
<path d="M160 96C204.183 96 240 131.817 240 176V414.398C203.484 406.986 176 374.703 176 336V160H144V336C144 374.703 116.516 406.986 80 414.398V176C80 131.817 115.817 96 160 96Z" fill="white"/>
<path d="M256 416C300.183 416 336 380.183 336 336V97.6016C299.484 105.014 272 137.297 272 176V352H240V176C240 137.297 212.516 105.014 176 97.6016V336C176 380.183 211.817 416 256 416Z" fill="white"/>
<path d="M528 352H432V176C432 137.297 404.516 105.014 368 97.6016V336C368 380.183 403.817 416 448 416H528V352Z" fill="white"/>
<path d="M64 416C108.183 416 144 380.183 144 336V97.6016C107.484 105.014 80 137.297 80 176V352H-16V416H64Z" fill="white"/>
<path d="M352 96C396.183 96 432 131.817 432 176V414.398C395.484 406.986 368 374.703 368 336V160H336V336C336 374.703 308.516 406.986 272 414.398V176C272 131.817 307.817 96 352 96Z" fill="white"/>
</g>
<defs>
<clipPath id="clip0_840_895">
<rect width="512" height="512" rx="144" fill="white"/>
</clipPath>
</defs>
</svg>
