<svg width="28" height="28" viewBox="0 0 28 28" fill="none" xmlns="http://www.w3.org/2000/svg">
<g clip-path="url(#clip0_854_8589)">
<rect width="28" height="28" rx="9.625" fill="#5E25F8"/>
<path d="M8.75391 5.25C11.17 5.25021 13.1289 7.20888 13.1289 9.625V22.75H13.1279V22.6621C11.1304 22.2572 9.62695 20.492 9.62695 18.375V8.75H7.87695V18.375C7.87695 20.4904 6.37423 22.2535 4.37891 22.6602V9.625C4.37891 7.20875 6.33766 5.25 8.75391 5.25Z" fill="white"/>
<path d="M14.0039 22.75C16.42 22.7498 18.3789 20.7911 18.3789 18.375V5.25H18.3779V5.33789C16.3804 5.74277 14.877 7.50797 14.877 9.625V19.25H13.127V9.625C13.127 7.50963 11.6242 5.74653 9.62891 5.33984V18.375C9.62891 20.7912 11.5877 22.75 14.0039 22.75Z" fill="white"/>
<path d="M28.8789 5.25H28.8779V19.25H23.6279V9.625C23.6279 7.5091 22.1249 5.74498 20.1289 5.33887V18.375C20.1289 20.7912 22.0877 22.75 24.5039 22.75H28.8789V5.25Z" fill="white"/>
<path d="M3.50391 22.75C5.91997 22.7498 7.87891 20.7911 7.87891 18.375V5.25H7.87793V5.33789C5.88082 5.74314 4.37793 7.5083 4.37793 9.625V19.25H-0.871094V22.75H3.50391Z" fill="white"/>
<path d="M19.2539 5.25C21.67 5.25021 23.6289 7.20888 23.6289 9.625V22.75H23.6279V22.6621C21.6304 22.2572 20.127 20.492 20.127 18.375V8.75H18.377V18.375C18.377 20.4904 16.8742 22.2535 14.8789 22.6602V9.625C14.8789 7.20875 16.8377 5.25 19.2539 5.25Z" fill="white"/>
</g>
<defs>
<clipPath id="clip0_854_8589">
<rect width="28" height="28" rx="9.625" fill="white"/>
</clipPath>
</defs>
</svg>
