<svg width="284" height="48" viewBox="0 0 284 48" fill="none" xmlns="http://www.w3.org/2000/svg">
<path d="M51.0381 32.3721L52.73 29.9331C53.5063 30.812 54.5391 31.5518 55.8281 32.1523C57.1172 32.7529 58.4722 33.0532 59.8931 33.0532C61.519 33.0532 62.7861 32.709 63.6943 32.0205C64.6172 31.332 65.0786 30.4312 65.0786 29.3179C65.0786 28.6147 64.8296 28.0215 64.3315 27.5381C63.8335 27.0547 63.189 26.6812 62.3979 26.4175C61.6069 26.1538 60.7354 25.9121 59.7832 25.6924C58.8311 25.4727 57.8716 25.2163 56.9048 24.9233C55.9526 24.6304 55.0811 24.2715 54.29 23.8467C53.499 23.4219 52.8545 22.8213 52.3564 22.0449C51.8584 21.2539 51.6094 20.3164 51.6094 19.2324C51.6094 17.4453 52.3271 15.9585 53.7627 14.772C55.1982 13.5708 57.1685 12.9702 59.6733 12.9702C62.9839 12.9702 65.6645 14.0249 67.7153 16.1343L66.1553 18.4634C65.4814 17.6431 64.5732 16.9839 63.4307 16.4858C62.3027 15.9731 61.0503 15.7168 59.6733 15.7168C58.2231 15.7168 57.0586 16.0464 56.1797 16.7056C55.3008 17.3501 54.8613 18.1631 54.8613 19.1445C54.8613 19.7744 55.1104 20.3091 55.6084 20.7485C56.1064 21.1733 56.7437 21.5103 57.52 21.7593C58.311 21.9937 59.1826 22.2207 60.1348 22.4404C61.1016 22.6455 62.061 22.9019 63.0132 23.2095C63.98 23.5171 64.8516 23.8979 65.6279 24.3521C66.4189 24.7915 67.0635 25.4287 67.5615 26.2637C68.0596 27.0986 68.3086 28.0874 68.3086 29.23C68.3086 31.1343 67.5615 32.709 66.0674 33.9541C64.5879 35.1846 62.5005 35.7998 59.8052 35.7998C56.1577 35.7998 53.2354 34.6572 51.0381 32.3721Z" fill="#1F2937"/>
<path d="M71.1018 28.8564V13.5195H74.4636V27.8237C74.4636 29.6401 74.8811 30.9219 75.716 31.6689C76.551 32.4014 77.7668 32.7676 79.3635 32.7676C80.6232 32.7676 81.8391 32.4526 83.0109 31.8228C84.1828 31.1929 85.0983 30.4165 85.7575 29.4937V13.5195H89.1413V35.2505H85.7575V32.1963C84.8493 33.2217 83.7141 34.0786 82.3518 34.7671C80.9895 35.4556 79.5466 35.7998 78.0231 35.7998C73.4089 35.7998 71.1018 33.4854 71.1018 28.8564Z" fill="#1F2937"/>
<path d="M93.1869 35.2505V13.5195H96.5487V16.9912C97.4862 15.79 98.5775 14.8306 99.8227 14.1128C101.068 13.3804 102.393 13.0142 103.8 13.0142V16.4858C103.272 16.4272 102.84 16.3979 102.503 16.3979C101.463 16.3979 100.335 16.7568 99.1195 17.4746C97.9037 18.1777 97.0468 18.9761 96.5487 19.8696V35.2505H93.1869Z" fill="#1F2937"/>
<path d="M104.066 24.3521C104.066 22.272 104.52 20.3677 105.428 18.6392C106.351 16.896 107.633 15.519 109.274 14.5083C110.914 13.4829 112.753 12.9702 114.789 12.9702C116.927 12.9702 118.795 13.4902 120.392 14.5303C121.988 15.5703 123.19 16.9692 123.995 18.7271C124.816 20.4702 125.226 22.4404 125.226 24.6377V25.4946H107.67C107.801 27.6333 108.563 29.4204 109.955 30.856C111.361 32.2915 113.192 33.0093 115.448 33.0093C116.722 33.0093 117.945 32.7676 119.117 32.2842C120.304 31.8008 121.337 31.1123 122.215 30.2188L123.819 32.416C121.52 34.6719 118.641 35.7998 115.184 35.7998C111.932 35.7998 109.266 34.7378 107.186 32.6138C105.106 30.4897 104.066 27.7358 104.066 24.3521ZM107.626 22.9678H121.886C121.871 22.1328 121.717 21.3052 121.424 20.4849C121.146 19.6646 120.729 18.8955 120.172 18.1777C119.615 17.46 118.868 16.8813 117.931 16.4419C116.993 15.9878 115.931 15.7607 114.745 15.7607C113.631 15.7607 112.621 15.9805 111.712 16.4199C110.804 16.8594 110.065 17.438 109.493 18.1558C108.937 18.8589 108.497 19.6279 108.175 20.4629C107.853 21.2832 107.67 22.1182 107.626 22.9678Z" fill="#1F2937"/>
<path d="M152.313 35.2586V12.993H145.637L140.229 26.9132L134.821 12.993H128.178V35.2586H132.918V19.202L139.194 35.2586H141.264L147.54 19.202V35.2586H152.313Z" fill="#1F2937"/>
<path d="M172.158 35.2586V31.0859H161.142V26.0119H171.924V21.8392H161.142V17.1657H172.158V12.993H156.401V35.2586H172.158Z" fill="#1F2937"/>
<path d="M199.664 35.2586V12.993H192.988L187.58 26.9132L182.172 12.993H175.529V35.2586H180.27V19.202L186.545 35.2586H188.615L194.891 19.202V35.2586H199.664Z" fill="#1F2937"/>
<path d="M215.837 35.2586C220.11 35.2586 222.313 32.5881 222.313 29.2165C222.313 26.4458 220.443 24.1425 218.04 23.7753C220.143 23.3413 221.879 21.4386 221.879 18.6679C221.879 15.6969 219.709 12.993 215.47 12.993H203.753V35.2586H215.837ZM214.435 21.8392H208.493V17.1657H214.435C216.037 17.1657 217.039 18.1338 217.039 19.5024C217.039 20.9378 216.037 21.8392 214.435 21.8392ZM214.635 31.0859H208.493V26.0119H214.635C216.471 26.0119 217.472 27.1468 217.472 28.5489C217.472 30.1512 216.404 31.0859 214.635 31.0859Z" fill="#1F2937"/>
<path d="M241.31 35.2586V31.0859H230.294V26.0119H241.076V21.8392H230.294V17.1657H241.31V12.993H225.554V35.2586H241.31Z" fill="#1F2937"/>
<path d="M262.741 35.2586L257.701 26.7796C260.104 26.2122 262.608 24.0757 262.608 20.1701C262.608 16.0307 259.737 12.993 255.097 12.993H244.682V35.2586H249.422V27.3471H252.894L257.267 35.2586H262.741ZM254.429 23.1744H249.422V17.1657H254.429C256.299 17.1657 257.734 18.3007 257.734 20.1367C257.734 22.0394 256.299 23.1744 254.429 23.1744Z" fill="#1F2937"/>
<path d="M273.743 35.6592C279.718 35.6592 282.656 32.5881 282.656 28.5155C282.656 20.2034 269.871 22.5735 269.871 19.0685C269.871 17.7332 271.006 16.8653 273.009 16.8653C275.279 16.8653 277.682 17.6331 279.485 19.3021L282.122 15.7637C279.919 13.7274 276.981 12.6592 273.443 12.6592C268.202 12.6592 264.997 15.7303 264.997 19.4357C264.997 27.8145 277.816 25.1106 277.816 28.9828C277.816 30.2847 276.581 31.4531 273.943 31.4531C270.872 31.4531 268.435 30.0511 266.866 28.4153L264.263 32.1207C266.366 34.2238 269.437 35.6592 273.743 35.6592Z" fill="#1F2937"/>
<path fill-rule="evenodd" clip-rule="evenodd" d="M21 45C32.598 45 42 35.598 42 24C42 12.402 32.598 3 21 3C9.40202 3 0 12.402 0 24C0 35.598 9.40202 45 21 45ZM21.0904 13.5C19.4042 13.5 17.0707 14.4643 15.8784 15.6538L12.64 18.8846H28.7813L34.1785 13.5H21.0904ZM26.0944 32.3462C24.9021 33.5357 22.5686 34.5 20.8824 34.5H7.79429L13.1915 29.1154H29.3327L26.0944 32.3462ZM31.3404 21.5769H9.94727L8.93674 22.5866C6.54395 24.7404 7.25362 26.4231 10.6046 26.4231H32.0557L33.0665 25.4135C35.4361 23.2723 34.6914 21.5769 31.3404 21.5769Z" fill="#4338CA"/>
</svg>
