<svg width="64" height="64" viewBox="0 0 64 64" fill="none" xmlns="http://www.w3.org/2000/svg">
<path fill-rule="evenodd" clip-rule="evenodd" d="M32 64C49.6731 64 64 49.6731 64 32C64 14.3269 49.6731 0 32 0C14.3269 0 0 14.3269 0 32C0 49.6731 14.3269 64 32 64ZM32.1378 16C29.5683 16 26.0125 17.4694 24.1956 19.2821L19.261 24.2051H43.8572L52.0815 16H32.1378ZM39.7629 44.7179C37.946 46.5306 34.3902 48 31.8207 48H11.877L20.1014 39.7949H44.6975L39.7629 44.7179ZM47.7568 28.3077H15.1577L13.6179 29.8462C9.97174 33.1282 11.0531 35.6923 16.1594 35.6923H48.8467L50.3871 34.1539C53.9978 30.8911 52.8631 28.3077 47.7568 28.3077Z" fill="#2D64FB"/>
</svg>
