<svg width="336" height="264" viewBox="0 0 336 264" fill="none" xmlns="http://www.w3.org/2000/svg">
<g clip-path="url(#clip0_589_8416)">
<path d="M104.077 130.666C104.077 130.666 98.8868 152.1 100.302 153.582C101.718 155.065 113.917 160.727 117.557 160.727C121.196 160.727 147.482 157.761 146.606 156.278C145.73 154.796 123.69 146.168 123.69 146.168L123.016 127.499L104.077 130.666Z" fill="white"/>
<path d="M102.864 129.588C101.313 135.991 99.6958 142.529 99.0218 149.134C98.8196 150.212 98.8196 151.426 99.0218 152.504C99.561 154.189 101.516 155.267 102.998 156.076C107.11 158.435 111.491 160.255 116.074 161.603C118.837 162.344 121.601 161.873 124.432 161.603C128.745 161.199 133.059 160.659 137.372 160.053C139.394 159.783 141.349 159.446 143.304 159.109C144.584 158.907 145.797 158.57 147.078 158.166C147.348 158.098 147.55 157.963 147.752 157.761C148.156 157.155 147.078 156.144 146.674 155.739C145.663 154.863 144.517 154.122 143.304 153.65C136.833 150.482 130.026 147.853 123.286 145.225L122.814 145.023L124.836 147.382L124.432 131.071L124.364 128.712C124.229 128.173 123.96 127.633 123.488 127.296C123.218 127.027 122.544 126.285 122.14 126.353L105.492 129.049L103.133 129.453C102.594 129.521 103.335 130.532 103.47 130.734C103.74 131.071 104.549 132.082 105.155 132.014L121.803 129.318L124.162 128.914L121.938 126.555L122.477 142.866L122.544 145.225C122.544 146.101 123.758 147.247 124.566 147.584C130.363 149.875 136.092 152.167 141.821 154.661C143.236 155.267 144.584 155.941 145.865 156.615C146.067 156.75 146.269 156.818 146.471 156.952L146.741 157.087C146.876 157.155 146.471 156.885 146.741 157.087C146.741 157.087 146.404 156.818 146.269 156.683C146 156.278 145.73 155.874 145.528 155.47C145.663 155.402 145.393 155.47 145.528 155.47C145.46 155.47 145.46 155.537 145.393 155.604C144.517 155.941 143.641 156.211 142.764 156.413C141.079 156.75 139.394 157.087 137.709 157.289C133.598 157.963 129.419 158.435 125.24 158.907C122.41 159.311 119.579 159.581 116.748 159.648C115.063 159.648 113.378 158.974 111.895 158.435C109.671 157.626 107.514 156.683 105.357 155.672C104.414 155.2 103.47 154.728 102.527 154.256C102.19 154.054 101.785 153.852 101.448 153.65L100.976 153.38C100.909 153.313 100.505 153.043 100.639 153.178C100.774 153.313 100.437 153.043 100.437 153.043C100.437 153.043 100.707 153.313 100.572 153.178C100.909 153.515 101.111 153.919 101.448 154.256C101.516 154.324 101.448 154.459 101.448 154.256C101.448 154.054 101.448 154.324 101.448 154.122C101.381 153.582 101.381 153.043 101.448 152.504C101.785 148.797 102.392 145.09 103.268 141.45C103.875 138.417 104.549 135.384 105.29 132.351C105.357 132.217 105.357 132.014 105.425 131.812C105.492 130.936 102.998 128.981 102.864 129.588Z" fill="#022C22"/>
<path d="M25.8926 41.631L163.591 19.5912C163.591 19.5912 180.98 111.39 181.317 115.569C181.654 119.748 56.0204 142.259 50.8306 142.259C45.6408 142.259 25.8926 41.631 25.8926 41.631Z" fill="#022C22"/>
<path d="M26.5667 42.9116L30.2737 42.305L40.2489 40.6874L55.0769 38.3284L73.1401 35.4302L92.8883 32.2624L112.906 29.0272L131.576 26.0616L147.28 23.5678L158.603 21.748C160.423 21.4784 162.243 21.2762 163.995 20.8718H164.197L161.906 19.5238C162.378 21.8154 162.782 24.1744 163.254 26.466C164.332 32.2624 165.478 38.0588 166.556 43.8552C167.972 51.4714 169.387 59.0876 170.87 66.7038C172.285 74.32 173.701 81.9362 175.116 89.6872C176.195 95.6858 177.34 101.684 178.419 107.683C178.756 109.57 179.093 111.39 179.362 113.21C179.43 113.749 179.565 114.288 179.632 114.827C179.632 114.962 179.632 115.164 179.699 115.299C179.767 115.434 179.699 114.895 179.699 115.164C179.699 115.434 179.834 114.827 179.767 114.962C179.699 115.097 180.036 114.625 179.767 114.895C179.497 115.164 180.036 114.76 179.632 114.962C179.228 115.164 178.823 115.367 178.419 115.569C178.149 115.704 177.88 115.771 177.543 115.906C177.408 115.973 177.206 116.041 177.071 116.041L176.666 116.175L176.262 116.31L175.655 116.512L174.375 116.917C169.589 118.332 164.669 119.411 159.816 120.556C153.076 122.107 146.269 123.522 139.529 124.87C131.845 126.42 124.094 127.97 116.411 129.453C108.66 130.936 100.909 132.351 93.1579 133.834C86.2157 135.115 79.3409 136.328 72.4661 137.474C67.4111 138.35 62.2887 139.226 57.2337 140.035C55.6835 140.305 54.0659 140.507 52.5157 140.709C52.0439 140.776 51.5047 140.844 51.0329 140.911L50.4937 140.979C50.2241 140.979 51.0329 140.979 50.6959 140.979C50.6285 140.979 50.6285 140.979 50.5611 140.979C50.8981 141.046 51.1677 141.113 51.4373 141.248C51.1677 141.046 51.7069 141.585 51.5721 141.383C51.5047 141.316 51.4373 141.248 51.3699 141.181C51.5721 141.585 51.1677 140.979 51.3699 141.181L51.1677 140.844C51.0329 140.574 50.8981 140.305 50.7633 140.102C50.6285 139.765 50.4937 139.496 50.3589 139.159C50.2915 138.957 50.2241 138.822 50.1567 138.62L50.0219 138.283C49.6849 137.339 49.3479 136.463 49.0109 135.519C47.1911 130.127 45.7757 124.533 44.3603 119.006C42.5405 111.727 40.8555 104.448 39.1705 97.1686C37.4855 89.5524 35.8005 81.9362 34.1829 74.3874C32.7675 67.917 31.4195 61.4466 30.1389 54.9762C29.3301 51.067 28.5887 47.1578 27.7799 43.2486C27.6451 42.7094 27.5777 42.1702 27.4429 41.631C27.1733 40.1482 23.9381 39.609 24.2751 41.4962C24.6795 43.653 25.1513 45.8098 25.5557 47.9666C26.6341 53.4934 27.7799 58.9528 28.9257 64.4796C30.4759 71.8262 32.0261 79.1054 33.6437 86.452C35.3287 94.1356 37.0811 101.752 38.9009 109.435C40.4511 115.973 42.0687 122.511 43.8885 128.981C45.0343 132.958 46.1127 137.272 48.0673 140.979C48.7413 142.192 49.6849 143.472 51.1677 143.54C52.0439 143.54 52.9201 143.472 53.7963 143.27C57.6381 142.731 61.4125 142.124 65.2543 141.45C71.3877 140.439 77.5211 139.361 83.5871 138.283C91.1359 136.935 98.6173 135.587 106.099 134.171C114.052 132.688 122.005 131.138 129.891 129.588C137.305 128.105 144.651 126.622 152.065 125.072C157.997 123.792 163.928 122.511 169.792 121.028C173.431 120.152 177.138 119.276 180.643 117.86C181.384 117.591 182.463 117.186 182.8 116.378C183.137 115.569 182.732 114.288 182.598 113.547C181.856 109.031 181.047 104.515 180.239 99.9994C178.958 92.9224 177.677 85.8454 176.329 78.7684C174.847 70.8826 173.364 62.9968 171.881 55.111C170.533 48.1014 169.252 41.1592 167.904 34.1496L165.411 21.2762C165.276 20.6696 165.208 20.1304 165.074 19.5238C164.871 18.5802 163.658 18.041 162.782 18.1758L159.075 18.7824L149.1 20.4L134.272 22.759L116.276 25.792L96.5279 28.9598L76.5101 32.1276L57.8403 35.0932L42.1361 37.6544L30.8129 39.4742C28.9931 39.7438 27.2407 40.0134 25.4209 40.3504L25.2187 40.4178C24.6795 40.4852 24.2751 41.0244 24.3425 41.5636C24.3425 41.6984 24.4099 41.8332 24.4773 41.968C24.8817 42.642 25.7579 43.0464 26.5667 42.9116Z" fill="#022C22"/>
<path d="M157.727 26.9377L35.8003 46.7534L55.6159 132.621L172.757 108.424L157.727 26.9377Z" fill="white"/>
<path d="M156.109 26.5333L152.874 27.0725L143.977 28.4879L130.902 30.6447L114.86 33.2059L97.3364 36.0367L79.6776 38.8675L63.1646 41.5635L49.1454 43.8551L39.1028 45.4727L36.0024 46.0119C35.4632 46.0793 34.924 46.1467 34.3848 46.2815C34.3174 46.2815 34.25 46.2815 34.1826 46.2815L34.1152 46.3489L36.0698 54.9087L40.7878 75.3983L46.5168 100.269L51.5044 121.702L53.122 128.779C53.3242 129.925 53.5264 131.071 53.9308 132.149C53.9308 132.217 53.9308 132.217 53.9308 132.284C53.9982 132.621 55.0766 132.823 55.2788 132.823C55.8854 133.025 56.492 133.093 57.0986 133.025L60.2664 132.351L68.8262 130.599L81.43 127.97L96.8646 124.87L113.715 121.433L130.632 117.928L146.471 114.625L159.884 111.862L169.522 109.907L172.555 109.301C173.094 109.233 173.633 109.098 174.105 108.964C174.172 108.964 174.24 108.964 174.307 108.896L174.375 108.829L172.892 100.673L169.32 81.2621L164.939 57.6721L161.164 37.3173L159.951 30.6447L159.547 28.5553C159.547 28.1509 159.479 27.8139 159.344 27.4769C159.344 27.4095 159.344 27.4095 159.344 27.3421C159.277 26.9377 158.064 26.8029 157.727 26.7355C157.592 26.7355 155.974 26.4659 156.042 26.6681L158.199 38.3283L163.051 64.5469L168.174 92.0461L171.072 107.683C171.139 107.818 171.139 108.02 171.139 108.155C171.139 108.29 171.274 108.155 171.207 108.155C171.139 108.155 170.533 108.29 170.398 108.357L165.545 109.368L146.134 113.345L118.972 118.804L90.4616 124.668L66.8716 129.521L54.6048 132.082L54.0656 132.217L57.3008 132.958L54.5374 121.028L48.3366 94.0681L41.664 65.3557L37.6874 48.1013C37.62 47.8991 37.4178 47.3599 37.4852 47.1577C37.4852 47.2251 37.3504 47.2251 37.5526 47.2251C37.6874 47.1577 37.8222 47.1577 38.0244 47.1577L42.6076 46.4163L62.4232 43.1811L90.7986 38.5979L120.859 33.6777L145.73 29.6337L158.738 27.5443L159.344 27.4769C159.614 27.4095 158.333 26.9377 158.266 26.9377C157.525 26.6007 156.851 26.4659 156.109 26.5333Z" fill="#022C22"/>
<path d="M52.6506 55.1783C52.6506 55.1783 86.418 46.2815 88.2378 46.9555C90.0576 47.6295 100.842 89.6197 100.505 92.1809C100.168 94.7421 69.7028 103.437 66.6698 101.752C63.6368 100.067 50.9656 55.6501 52.6506 55.1783Z" fill="#01824C"/>
<path d="M53.1222 56.4589C57.638 55.2457 62.1538 54.0999 66.6696 52.9541C73.14 51.3365 79.6103 49.5841 86.2155 48.4383L86.8895 48.3035L87.2265 48.2361C87.0243 48.2361 86.6199 48.3709 87.2265 48.2361C87.4961 48.2361 87.8332 48.2361 88.0354 48.1687C87.8332 48.1687 87.631 48.1687 87.4288 48.0339C87.4288 48.0339 86.7548 47.6295 86.957 47.6969C87.0244 47.6969 87.0918 47.8991 87.0918 47.9665C87.0918 48.0339 86.8896 47.5621 87.0244 47.8317C87.0244 47.8991 87.0918 47.9665 87.1592 48.1013C88.0354 50.0559 88.7768 52.1453 89.316 54.2347C91.4728 61.1769 93.2926 68.1865 95.1124 75.2635C95.9212 78.6335 96.7974 81.9361 97.5388 85.3061C97.8084 86.5867 98.0779 87.7999 98.3475 89.0805C98.3475 89.1479 98.3475 89.2153 98.3475 89.2827C98.4149 89.4849 98.2801 89.0131 98.3475 89.2153C98.4149 89.4175 98.415 89.4849 98.415 89.5523C98.4824 89.7545 98.4824 90.0241 98.5498 90.2263C98.6172 90.5633 98.6845 90.9677 98.6845 91.3047C98.6845 91.5069 98.6846 91.7765 98.752 91.9787C98.8194 92.3157 98.8194 91.6417 98.752 91.8439C98.752 91.9113 98.9542 91.4395 98.8194 91.6417C98.6846 91.8439 99.089 91.5069 98.8868 91.5743C98.752 91.6417 98.6172 91.7765 98.5498 91.8439C98.3476 91.9787 98.415 91.9113 98.6172 91.8439L98.2802 92.0461C97.8758 92.3157 97.404 92.5179 96.9322 92.7201C96.3256 92.9897 95.719 93.2593 95.1798 93.4615C94.8428 93.5963 94.5058 93.7311 94.1688 93.8659L93.6295 94.0681L93.36 94.1355L93.2252 94.2029C91.5402 94.8095 89.8552 95.4161 88.1028 95.8879C84.3958 97.0337 80.6888 98.0447 76.9144 98.9883C75.2294 99.3927 73.6117 99.7297 71.9267 100.067L70.8483 100.269L70.3766 100.336L70.107 100.404C69.9048 100.404 70.4439 100.336 70.1743 100.404C69.6351 100.471 69.0286 100.539 68.422 100.539C68.2198 100.539 67.9502 100.539 67.748 100.539C67.6806 100.539 67.5457 100.539 67.4783 100.539C67.2761 100.539 67.9501 100.606 67.5457 100.539C67.4109 100.471 67.0066 100.404 67.3436 100.539C67.6806 100.673 67.4784 100.539 67.3436 100.539C67.2088 100.539 67.8153 100.808 67.5457 100.673C67.4109 100.606 67.8154 101.078 67.6132 100.673C67.5458 100.539 67.411 100.471 67.3436 100.336C67.2762 100.202 67.2088 100.067 67.074 99.9319C67.3436 100.336 67.0066 99.7971 66.9392 99.6623C65.8608 97.4381 64.9845 95.2139 64.1757 92.8549C61.7493 85.9801 59.5926 78.9705 57.638 71.8935C56.7618 68.6583 55.8855 65.4231 55.0767 62.1205L54.605 60.1659L54.4027 59.2897C54.4027 59.1549 54.3353 59.0201 54.3353 58.8853C54.3353 58.7505 54.2005 58.3461 54.3353 58.6831C54.1331 57.8743 53.9984 56.9981 53.931 56.1219C53.931 55.8523 53.931 55.6501 53.931 55.3805C53.931 55.1109 53.8636 55.7175 53.931 55.4479C53.9984 56.0545 53.6614 56.3915 53.1222 56.4589C53.8636 56.2567 54.605 55.5827 54.268 54.7739C53.8636 54.0325 52.9874 53.6281 52.1786 53.8977C50.224 54.5717 50.8306 56.7285 51.1002 58.2787C51.6394 61.1095 52.3133 63.9403 53.0547 66.7711C54.9419 74.1851 57.0987 81.5317 59.4577 88.7435C60.4687 91.7765 61.4798 94.8095 62.693 97.7751C63.0974 98.7187 63.5018 99.7297 63.9736 100.673C64.3106 101.415 64.7824 102.156 65.389 102.695C66.1978 103.235 67.2087 103.437 68.2197 103.369C69.5677 103.302 70.9157 103.167 72.1963 102.965C75.8359 102.358 79.4082 101.55 82.913 100.539C86.6874 99.5275 90.3944 98.3817 94.1014 97.1011C95.6516 96.5619 97.1344 95.9553 98.6172 95.2813C99.5608 94.8769 100.504 94.3377 101.313 93.7311C102.661 92.5853 102.122 91.0351 101.852 89.5523C101.313 86.7215 100.639 83.8233 99.9652 80.9925C98.1454 73.4437 96.1908 65.9623 94.034 58.4809C93.2252 55.5827 92.349 52.6845 91.338 49.8537C90.8662 48.4383 90.2595 46.0793 88.5745 45.7423C87.6983 45.6749 86.8222 45.6749 85.946 45.8771C84.7328 46.0793 83.587 46.2815 82.3738 46.5511C78.869 47.2925 75.4316 48.1013 71.9942 48.9775C65.726 50.5277 59.4578 52.0779 53.257 53.6955L52.1112 53.9651C51.3698 54.1673 50.6957 54.8413 50.9653 55.6501C51.4371 56.3241 52.3134 56.7285 53.1222 56.4589Z" fill="#01824C"/>
<path d="M68.7593 110.581C68.7593 110.581 78.1953 107.616 78.7345 107.953C79.2737 108.29 80.8239 114.827 80.1499 115.434C78.5323 116.849 71.7249 119.545 70.5791 117.119C69.7703 114.962 69.0963 112.805 68.7593 110.581Z" fill="#01824C"/>
<path d="M68.4896 110.986C70.242 110.446 71.9944 109.907 73.7468 109.435C74.8926 109.098 76.0384 108.761 77.1842 108.559C77.3864 108.492 77.7908 108.424 78.1278 108.424C78.1952 108.559 78.2626 108.627 78.33 108.761C78.7344 109.84 79.0714 110.986 79.2736 112.131C79.5432 113.21 79.678 114.288 79.6106 115.434C79.6106 115.434 79.6106 115.636 79.6106 115.569C79.6106 115.636 79.678 115.434 79.7454 115.434C79.8128 115.434 79.678 115.501 79.6106 115.501C79.5432 115.501 79.2062 115.771 79.1388 115.838C78.5996 116.175 77.993 116.445 77.3864 116.647C76.1058 117.254 74.6904 117.523 73.275 117.591C72.6684 117.591 72.0618 117.389 71.6574 116.984C71.3878 116.647 71.253 116.31 71.1182 115.906C70.916 115.367 70.7138 114.827 70.579 114.288C70.1746 112.94 69.8376 111.525 69.568 110.109C69.5006 109.84 68.0178 110.379 68.0852 110.918C68.2874 112.266 68.6244 113.614 69.0288 114.962C69.231 115.906 69.6354 116.849 70.1072 117.658C70.4442 118.063 70.916 118.332 71.5226 118.4C73.0054 118.669 74.623 118.265 76.0384 117.793C77.5212 117.321 78.9366 116.647 80.2846 115.771C80.689 115.501 81.0934 115.232 81.2282 114.693C81.2956 114.153 81.2282 113.682 81.1608 113.142C80.9586 111.727 80.689 110.312 80.2846 108.964C80.2172 108.492 80.015 108.087 79.8128 107.683C79.6106 107.413 79.4084 107.413 79.1388 107.413C78.1278 107.548 77.1168 107.75 76.1058 108.087C73.8142 108.694 71.5226 109.368 69.231 110.109C68.9614 110.177 68.4222 110.379 68.2874 110.716C68.1526 111.053 68.2874 111.053 68.4896 110.986Z" fill="#01824C"/>
<path d="M81.6323 106.942C81.6323 106.942 91.0683 103.976 91.6075 104.313C92.1467 104.65 93.6969 111.188 93.0229 111.794C91.4053 113.21 84.5979 115.906 83.4521 113.479C82.5759 111.39 81.9693 109.233 81.6323 106.942Z" fill="#01824C"/>
<path d="M81.6326 107.413C83.385 106.874 85.07 106.335 86.8224 105.863C87.9008 105.594 89.1814 105.189 90.125 104.987L90.7316 104.852L91.0686 104.785C90.9338 104.785 91.136 104.785 91.136 104.785C91.0686 104.785 90.9338 104.785 91.0012 104.717C91.0686 104.65 91.0012 104.65 91.0012 104.785C91.0012 104.92 91.0686 104.92 91.136 104.987C91.5404 106.065 91.8774 107.211 92.0796 108.357C92.2818 109.435 92.4166 110.514 92.4166 111.592C92.4166 111.592 92.4166 111.66 92.3492 111.66L92.4166 111.592C92.484 111.457 92.484 111.457 92.4166 111.525C92.3492 111.592 92.3492 111.592 92.2818 111.592L92.0796 111.727C91.9448 111.794 91.81 111.929 91.6752 111.997C91.136 112.334 90.5294 112.603 89.9902 112.805C88.7096 113.345 87.3616 113.682 86.0136 113.749C85.4744 113.816 84.8678 113.614 84.4634 113.277C84.1938 113.008 84.059 112.671 83.9242 112.266C83.722 111.794 83.5198 111.255 83.385 110.783C82.9132 109.368 82.5762 107.953 82.374 106.537C82.2392 105.863 80.7564 106.47 80.8238 107.009C81.026 108.357 81.363 109.705 81.7 110.986C82.1044 112.401 82.5088 114.288 84.1938 114.693C85.744 114.895 87.3616 114.693 88.777 114.153C90.2598 113.682 91.7426 113.075 93.0232 112.199C93.495 111.997 93.832 111.592 93.8994 111.053C93.9668 110.514 93.9668 110.042 93.832 109.503C93.6298 108.087 93.3602 106.605 92.9558 105.257C92.821 104.785 92.6862 104.313 92.4166 103.909C92.2144 103.639 91.9448 103.504 91.6078 103.572C90.5968 103.706 89.5184 103.909 88.5074 104.246C86.1484 104.852 83.8568 105.594 81.4978 106.268C81.2282 106.335 80.689 106.605 80.689 107.009C80.689 107.413 81.363 107.481 81.6326 107.413Z" fill="#01824C"/>
<path d="M93.6299 103.572C93.6299 103.572 103.066 100.606 103.605 100.943C104.144 101.28 105.694 107.818 105.02 108.424C103.403 109.84 96.5955 112.536 95.4497 110.109C94.5735 108.02 93.9669 105.863 93.6299 103.572Z" fill="#01824C"/>
<path d="M94.1689 104.246C95.8539 103.706 97.6063 103.235 99.2913 102.695C100.437 102.358 101.583 102.021 102.729 101.752C103.066 101.684 103.47 101.617 103.807 101.55C103.942 101.55 103.942 101.55 103.942 101.55C103.74 101.819 103.335 101.078 103.133 100.943C103.201 101.01 103.133 100.943 103.133 100.876C103.133 100.943 103.201 101.078 103.268 101.145C103.672 102.224 104.009 103.369 104.212 104.515C104.346 105.122 104.414 105.796 104.481 106.402C104.549 106.807 104.549 107.211 104.481 107.616C104.414 107.885 103.875 108.155 103.605 108.29C103.066 108.627 102.459 108.964 101.853 109.166C100.505 109.772 99.0891 110.177 97.6063 110.312C97.2693 110.379 96.9323 110.379 96.5953 110.312C96.3931 110.312 96.0561 110.177 95.9887 110.177C95.9213 110.177 96.0561 110.109 96.0561 110.244C95.9887 110.042 95.8539 109.84 95.7865 109.638C95.5843 109.098 95.3821 108.559 95.2473 108.02C94.8429 106.672 94.5059 105.324 94.3037 103.909C94.1689 103.504 93.8993 103.235 93.5623 103.032C93.3601 102.965 92.9557 102.763 93.0231 103.167C93.2253 104.515 93.5623 105.863 93.9667 107.211C94.4385 108.829 94.9777 110.851 96.7975 111.457C98.2129 111.929 99.8305 111.592 101.179 111.188C102.661 110.783 104.009 110.177 105.29 109.301C105.627 109.166 105.897 108.829 105.897 108.424C105.964 107.885 105.897 107.279 105.829 106.739C105.627 105.324 105.29 103.909 104.886 102.493C104.616 101.617 104.144 100.269 102.998 100.269C102.055 100.336 101.111 100.539 100.235 100.876C97.8759 101.482 95.5169 102.224 93.2253 102.898C92.6187 103.1 93.6971 104.38 94.1689 104.246Z" fill="#01824C"/>
<path d="M82.8457 47.7644C82.8457 47.7644 84.8677 53.426 85.2721 53.426C86.2831 53.6956 87.2941 53.9652 88.3051 54.3696L89.5183 52.415L87.1593 47.023C87.0919 46.9556 83.3849 46.4838 82.8457 47.7644Z" fill="#022C22"/>
<path d="M81.1608 47.6296C81.6326 48.9102 82.1044 50.1234 82.6436 51.404C82.9132 52.078 83.1828 52.6846 83.5198 53.2912C83.8568 53.8304 84.396 54.2348 85.0026 54.3696C85.1374 54.437 85.3396 54.437 85.4744 54.437C85.744 54.437 84.9352 54.3022 85.2048 54.3696L85.744 54.5044C86.2158 54.6392 86.6876 54.774 87.1594 54.9762L87.766 55.1784C87.4964 55.111 87.3616 55.0436 87.6312 55.111C88.0356 55.3132 88.44 55.3806 88.9118 55.3806C89.1814 55.3806 89.6532 55.3132 89.788 55.0436L90.462 53.9652L90.8664 53.2912L90.9338 53.1564C91.0686 52.9542 91.136 52.6172 91.0012 52.415C90.7316 51.6736 90.3947 50.9996 90.0577 50.2582L88.777 47.2926C88.44 46.5512 87.6986 46.0794 86.8898 46.0794C86.5528 46.012 86.2158 46.012 85.8788 46.012C85.0026 45.9446 84.059 46.012 83.1828 46.2142C82.374 46.2816 81.6326 46.8208 81.2282 47.4948C81.0934 47.7644 81.363 48.1014 81.4978 48.2362C81.7674 48.5058 82.1718 48.708 82.5762 48.8428C83.2502 48.9776 84.1264 49.045 84.4634 48.371C84.3286 48.5732 84.4634 48.4384 84.5308 48.3036L84.5982 48.2362C84.5982 48.3036 84.3286 48.371 84.5308 48.3036C84.5982 48.2362 84.6656 48.2362 84.8004 48.1688C84.8004 48.1688 84.4634 48.3036 84.733 48.2362L84.8678 48.1688C85.0026 48.1688 85.07 48.1014 85.2048 48.1014C85.4744 48.034 84.8678 48.1688 85.2048 48.1014C85.4744 48.1014 85.6766 48.034 85.9462 48.034H86.418C86.6876 48.034 86.081 48.034 86.2158 48.034H86.755L87.2942 48.1014L85.5418 47.2252L87.9008 52.6172V51.8758L86.6877 53.8304L88.8444 53.6956C88.103 53.426 87.4291 53.2238 86.6877 52.9542C86.3507 52.8194 85.9462 52.752 85.6092 52.6172C85.2722 52.4824 84.3286 52.2802 85.5418 52.6846C85.9462 52.8194 86.1484 52.8194 86.418 53.089C86.3506 53.0216 86.3506 52.9542 86.4854 53.1564C86.6202 53.3586 86.5528 53.2238 86.4854 53.1564C86.2158 52.6172 85.8789 52.0106 85.6767 51.404L85.5418 51.1344L85.4744 50.9996C85.407 50.8648 85.5418 51.2018 85.4744 51.067C85.407 50.9322 85.3396 50.6626 85.2048 50.4604C85.07 50.056 84.9352 49.719 84.8004 49.382C84.6656 49.045 84.4634 48.5058 84.3286 48.034C83.9916 47.36 83.2502 46.8882 82.5088 46.8882C82.1718 46.8208 81.7674 46.8882 81.4304 47.023C81.2956 47.0904 81.0934 47.36 81.1608 47.6296Z" fill="#022C22"/>
<path d="M102.122 153.582C104.751 151.897 107.784 151.156 110.884 150.482C114.322 149.741 117.826 149.067 121.264 148.393C122.14 148.325 122.814 147.651 123.016 146.842C123.084 146.236 122.612 145.697 121.938 145.629C121.803 145.629 121.736 145.629 121.601 145.629C117.894 146.371 114.187 147.045 110.547 147.853C107.11 148.595 103.74 149.538 100.774 151.358C100.168 151.763 99.561 152.571 99.9654 153.313C100.37 154.054 101.516 153.919 102.122 153.582Z" fill="#022C22"/>
<path d="M108.93 56.2567C107.649 57.8743 106.908 59.7615 107.986 61.7161C108.997 63.4685 110.817 64.6143 112.839 64.7491C114.928 64.9513 116.883 64.0751 118.163 62.3901C119.309 60.9747 119.579 59.0201 118.905 57.3351C118.029 55.4479 115.063 54.6391 113.513 56.2567C111.963 57.8743 112.906 59.7615 114.456 60.7725C116.344 61.8509 118.5 62.4575 120.725 62.5249C122.881 62.5923 125.24 62.1205 126.656 60.3007C128.004 58.6157 128.273 56.1219 128.543 54.0325C128.813 51.8083 129.082 49.0449 128.071 46.8881C126.993 44.7987 124.701 43.6529 122.41 44.0573C120.657 44.3943 119.242 45.7423 118.972 47.5621C118.163 51.1343 120.253 55.2457 122.679 57.7395C124.095 59.1549 125.712 60.3007 127.532 61.1769C129.487 62.0531 132.183 62.8619 134.272 61.9857C135.216 61.5139 136.024 60.7725 136.496 59.8289C137.17 58.6831 137.642 57.4699 137.777 56.1219C137.844 53.4933 134.339 51.8757 132.25 53.4259C130.43 54.7739 131.711 57.4025 133.059 58.6157C134.946 60.3007 137.507 61.1095 140.001 60.8399C140.54 60.7725 141.484 60.5029 141.282 59.7615C141.079 59.0201 139.866 58.8853 139.26 58.9527C138.114 59.0875 136.968 58.6831 136.092 57.9417C135.62 57.6047 135.283 57.1329 135.013 56.6611C134.811 56.1219 134.744 55.5153 134.811 54.9761C134.811 54.6391 135.418 54.7065 134.542 54.7065C133.868 54.7065 134.002 54.5717 134.272 54.9761C134.676 55.7175 134.407 56.6611 134.137 57.3351C133.8 58.2113 133.194 60.1659 132.115 60.4355C131.576 60.4355 131.104 60.3681 130.632 60.1659C130.026 59.9637 129.487 59.7615 128.947 59.4919C127.869 58.9527 126.858 58.2113 125.982 57.2677C124.162 55.4479 122.881 53.0889 122.41 50.5277C122.207 49.4493 122.275 48.3035 122.679 47.2251C122.814 46.7533 123.151 46.3489 123.555 46.0793C123.623 46.0119 123.96 45.9445 123.825 45.9445C123.623 45.9445 124.162 46.2141 124.095 46.1467C125.308 47.0229 125.51 48.7079 125.51 50.0559C125.577 51.8083 125.443 53.4933 125.173 55.2457C124.769 57.7395 123.96 60.8399 120.859 60.6377C119.646 60.5703 118.366 60.3007 117.287 59.6941C116.815 59.4919 116.478 59.0201 116.344 58.5483C116.276 57.9417 116.546 57.7395 116.748 57.2677C116.95 56.7959 115.467 56.7959 115.602 57.2003C115.67 57.3351 115.804 57.4699 115.872 57.5373C116.007 57.8743 116.141 58.2113 116.141 58.5483C116.209 59.2223 116.074 59.8289 115.872 60.4355C115.467 61.3791 114.524 62.7271 113.378 62.7945C112.637 62.8619 111.693 61.8509 111.356 61.1095C110.615 59.4919 111.356 58.2113 112.367 56.9307C112.839 56.3241 111.693 55.7849 111.289 55.6501C110.278 55.5153 109.469 55.6501 108.93 56.2567Z" fill="#022C22"/>
<path d="M118.028 78.8358C116.411 78.8358 114.928 79.5772 113.984 80.8578C113.108 81.9362 112.839 83.419 113.243 84.767C113.647 85.6432 114.389 86.3172 115.265 86.5868C116.074 86.9238 116.883 87.1934 117.691 87.463C118.568 87.7326 119.511 87.9348 120.387 88.0696C120.59 88.0696 120.724 88.137 120.927 88.137C120.522 88.0696 120.994 88.0696 120.994 88.2044C120.994 88.3392 120.724 88.0022 120.657 88.0022C120.59 88.0022 120.657 87.8674 120.657 87.8674C120.657 87.8674 120.59 88.0696 120.657 87.9348C120.657 88.0022 120.59 88.0696 120.522 88.0696C120.522 88.0696 120.185 88.2044 120.118 88.2718C119.848 88.3392 119.309 88.5414 118.972 88.6088L115.804 89.5524C115.198 89.7546 114.524 90.2264 114.995 90.9004C115.535 91.5744 116.411 91.844 117.22 91.6418L119.848 90.833C120.724 90.6308 121.601 90.3612 122.409 90.0242C123.151 89.822 123.69 89.2154 123.96 88.474C124.027 87.6652 123.555 86.8564 122.746 86.5194C122.005 86.1824 121.196 85.9128 120.32 85.8454C119.579 85.7106 118.837 85.5758 118.163 85.3062C117.759 85.1714 117.354 85.0366 116.95 84.9018L116.68 84.767C116.68 84.767 116.411 84.6322 116.546 84.6996C116.68 84.767 116.478 84.6322 116.478 84.6322C116.343 84.5648 116.411 84.4974 116.411 84.6322C116.209 84.1604 116.209 83.6212 116.343 83.1494C116.478 82.5428 116.815 82.071 117.22 81.6666C117.422 81.4644 117.624 81.3296 117.894 81.1948L118.163 81.06C118.028 81.1274 118.096 81.06 118.231 81.06C118.365 81.06 118.5 80.9926 118.298 81.06C118.096 81.1274 118.5 81.06 118.5 81.06C119.107 81.06 120.05 80.723 119.848 79.9142C119.646 79.1054 118.702 78.9032 118.028 78.8358Z" fill="#022C22"/>
<path d="M113.243 76.8812C113.176 77.4878 113.176 78.0944 113.31 78.6336C113.445 79.2402 113.58 79.7794 113.917 80.3186C114.119 80.5882 114.456 80.723 114.793 80.7904C115.198 80.8578 115.669 80.8578 116.074 80.6556C116.411 80.5208 116.748 80.3186 117.017 80.049L117.152 79.7794C117.22 79.5772 117.152 79.375 117.085 79.2402C117.017 79.1054 116.95 78.9706 116.883 78.8358L117.017 79.1054C116.748 78.4314 116.613 77.69 116.613 76.9486V77.2182C116.613 77.0834 116.613 76.9486 116.613 76.8812C116.68 76.7464 116.613 76.6116 116.546 76.4768C116.478 76.342 116.411 76.2072 116.276 76.1398C115.939 75.9376 115.602 75.8028 115.198 75.8702C114.726 75.8702 114.321 76.005 113.917 76.2072L113.58 76.4094C113.445 76.5442 113.31 76.679 113.243 76.8812Z" fill="#022C22"/>
<path d="M118.433 90.159C118.567 91.844 118.972 93.4616 119.781 94.9444C119.983 95.3488 120.32 95.6184 120.724 95.8206C121.129 95.9554 121.533 96.0228 121.937 95.888C122.611 95.6184 122.948 94.8096 122.611 94.1356C122.611 94.0682 122.544 94.0682 122.544 94.0008C122.342 93.6638 122.207 93.3268 122.072 92.9898L122.207 93.3942C121.87 92.5854 121.668 91.7766 121.533 90.9004L121.6 91.3048C121.6 91.1026 121.533 90.9004 121.533 90.6982C121.533 90.2938 121.331 89.8894 121.061 89.6198C120.792 89.2828 120.387 89.0806 119.915 89.0132C119.511 88.9458 119.107 89.0132 118.77 89.2828C118.567 89.4176 118.433 89.7546 118.433 90.159Z" fill="#022C22"/>
<path d="M128.004 75.3983C126.656 75.4657 125.443 76.1397 124.769 77.2855C123.892 78.6335 123.825 80.3185 124.566 81.7339C125.038 82.6775 125.847 83.4863 126.791 83.8907C127.532 84.2277 128.341 84.4973 129.15 84.7669C130.026 85.0365 130.835 85.1713 131.711 85.3061C131.98 85.3061 132.25 85.3735 132.452 85.4409C132.452 85.4409 132.722 85.5083 132.587 85.5083L131.576 83.9581C131.576 83.9581 131.509 84.0929 131.441 84.1603C130.902 84.7669 129.756 84.9017 129.082 85.1039L125.914 86.0475C125.173 86.2497 126.723 89.1479 127.802 88.8109L130.43 88.0021C131.239 87.7999 132.048 87.5303 132.789 87.2607C134.744 86.3171 133.328 83.8233 131.98 82.9471C131.374 82.6101 130.7 82.4079 129.958 82.3405C129.15 82.2057 128.341 82.0035 127.599 81.7339C127.195 81.5991 126.791 81.4643 126.386 81.3295L125.847 81.1273C125.51 80.9925 125.308 80.7229 125.78 81.3295C125.712 81.2621 126.251 81.8687 126.184 81.9361C126.184 81.8687 126.184 81.8013 126.117 81.7339C126.117 81.6665 126.117 81.5317 126.117 81.4643C126.117 81.1947 126.184 80.8577 126.251 80.5881C126.723 79.2401 127.936 78.2965 129.352 78.2291C130.026 78.2291 129.554 77.0833 129.419 76.7463C129.352 76.2745 128.745 75.3309 128.004 75.3983Z" fill="#022C22"/>
<path d="M124.027 73.0394C123.892 74.2526 124.162 75.5331 124.701 76.6789C124.903 77.0833 125.105 77.4204 125.442 77.7574C125.712 78.027 126.049 78.1617 126.453 78.2291C126.723 78.2291 126.993 78.0943 127.127 77.8247C127.262 77.4877 127.195 77.1507 127.06 76.8811C126.925 76.6115 126.79 76.342 126.723 76.0724L126.858 76.4094C126.723 76.005 126.656 75.6679 126.656 75.2635V75.6005C126.656 75.2635 126.656 74.9939 126.656 74.6569C126.656 74.2525 126.521 73.9155 126.319 73.5785C126.116 73.1741 125.779 72.9045 125.375 72.6349C125.105 72.4327 124.768 72.3653 124.431 72.4327C124.162 72.5001 123.96 72.7698 124.027 73.0394Z" fill="#022C22"/>
<path d="M128.947 87.8674C129.082 89.2828 129.487 90.6308 130.161 91.9114C130.295 92.1136 130.565 92.181 130.767 92.181C131.172 92.181 131.576 92.1136 131.98 91.9788C132.385 91.844 132.722 91.7092 133.059 91.4396C133.193 91.3048 133.463 91.1026 133.396 90.9004C132.722 89.6198 132.317 88.2718 132.183 86.8564C132.183 86.6542 131.711 86.5868 131.576 86.5868C131.171 86.5868 130.767 86.6542 130.363 86.789C129.958 86.9238 129.621 87.0586 129.284 87.3282C129.082 87.463 128.88 87.5978 128.947 87.8674Z" fill="#022C22"/>
<path d="M63.7041 74.4547C64.2433 73.1067 68.8939 67.7821 68.8939 67.7821C68.8939 67.7821 75.0273 70.9499 77.5211 65.2883L86.4179 67.4451L86.0135 75.1287L81.9021 74.8591L84.6655 80.0489L70.3093 84.2951L70.0397 78.0269L67.2763 80.1837L63.7041 74.4547Z" fill="white"/>
<path d="M64.5131 74.6569C65.1197 73.2415 66.3329 72.0283 67.2765 70.8825C68.0179 69.9389 68.8267 68.9953 69.6355 68.1191L68.4223 68.2539C69.6355 68.8605 71.0509 69.1975 72.3989 69.2649C74.9601 69.3323 77.3191 67.8495 78.3301 65.4905L77.2517 65.8949L86.1485 68.0517L85.6767 67.3777L85.2723 75.0613L86.2159 74.4547L82.1045 74.1851C81.6327 74.1177 80.8913 74.5221 81.1609 75.1287L83.9243 80.3185L84.3961 79.4423L71.7923 83.1493L69.9725 83.6885L71.1183 84.1603L70.8487 77.8921C70.7813 77.1507 69.7029 77.3529 69.3659 77.6899L66.6025 79.8467L68.0179 79.9141L64.4457 74.1851C64.0413 73.5111 62.4237 73.9829 62.8955 74.7917L66.4677 80.5207C66.8047 81.0599 67.4787 80.9251 67.8831 80.5881L70.6465 78.4313L69.1637 78.2291L69.4333 84.4973C69.4333 85.0365 70.2421 85.0365 70.5791 84.9691L83.1829 81.2621L84.9353 80.7229C85.2723 80.6555 85.6093 80.2511 85.4071 79.8467L82.6437 74.6569L81.7001 75.6005L85.8115 75.8701C86.1485 75.8701 86.7551 75.6679 86.7551 75.2635L87.1595 67.5799C87.2269 67.2429 86.9573 66.9733 86.6877 66.9059L77.7909 64.7491C77.3865 64.6143 76.9147 64.8165 76.7125 65.1535C75.8363 67.1081 74.2861 68.2539 72.1293 68.0517C71.1857 67.9843 70.2421 67.7147 69.3659 67.3103C68.9615 67.1081 68.4897 67.1755 68.1527 67.4451C67.3439 68.3887 66.5351 69.3997 65.7263 70.3433C64.7153 71.5565 63.5021 72.8371 62.8955 74.3199C62.5585 75.1287 64.1761 75.3983 64.5131 74.6569Z" fill="white"/>
<path d="M116.074 122.444C115.737 122.444 115.4 122.511 115.063 122.646C114.793 122.781 114.524 122.983 114.254 123.252C113.984 123.589 113.85 123.994 113.782 124.398C113.782 125.005 113.917 125.544 114.254 126.083C114.591 126.622 115.063 127.094 115.602 127.431C116.006 127.701 116.411 127.836 116.883 127.768C117.085 127.768 117.287 127.701 117.489 127.633C117.691 127.566 117.826 127.431 117.961 127.296C118.163 127.094 118.298 126.825 118.365 126.555C118.5 125.814 118.5 125.072 118.298 124.398C118.163 123.994 117.961 123.657 117.691 123.32C117.422 122.983 117.085 122.781 116.68 122.646C116.411 122.511 116.074 122.578 115.872 122.713C115.669 122.915 115.602 123.252 115.737 123.522C115.804 123.724 115.804 123.926 115.872 124.129L115.804 123.792C115.872 124.061 115.872 124.331 115.804 124.6L115.872 124.331C115.872 124.533 115.737 124.668 115.669 124.87L115.804 124.668C115.737 124.803 115.602 124.87 115.467 124.937L115.669 124.803C115.602 124.87 115.467 124.87 115.332 124.87H115.602C115.535 124.87 115.4 124.87 115.332 124.87L115.669 124.937C115.602 124.937 115.535 124.87 115.467 124.87L115.804 125.005L115.669 124.937L116.006 125.14C115.939 125.072 115.872 125.072 115.872 125.005L116.209 125.342L116.074 125.207L116.343 125.544L116.276 125.409L116.478 125.746C116.411 125.679 116.411 125.611 116.411 125.544L116.546 125.881C116.546 125.814 116.478 125.746 116.478 125.679L116.546 126.016C116.546 125.881 116.546 125.814 116.546 125.679L116.478 125.948C116.546 125.814 116.613 125.611 116.68 125.544L116.546 125.746C116.68 125.544 116.883 125.409 117.085 125.274L116.883 125.409C117.085 125.274 117.287 125.207 117.489 125.207H117.22H117.422C117.691 125.207 117.961 125.072 118.096 124.803C118.163 124.466 118.163 124.129 118.028 123.859C117.826 123.455 117.557 123.118 117.22 122.848C116.815 122.713 116.411 122.511 116.074 122.444Z" fill="white"/>
<path d="M220.14 147.045L228.969 145.157L227.958 141.99L286.461 148.932L275.812 151.56L279.923 156.144L220.14 147.045Z" fill="white"/>
<path d="M220.679 148.258L229.508 146.438C230.25 146.303 230.789 145.831 230.519 145.023L229.508 141.787L228.025 143.203L233.822 143.877L247.774 145.562L264.691 147.584L279.317 149.336L284.102 149.875C284.844 149.943 285.652 150.145 286.394 150.145H286.529L285.518 147.786L274.868 150.415C274.329 150.549 273.992 151.156 274.194 151.695C274.262 151.83 274.329 151.965 274.397 152.1L278.441 156.615L279.721 154.863L273.79 153.987L259.501 151.83L242.314 149.134L227.419 146.842C224.992 146.505 222.566 145.966 220.14 145.764H220.072C219.398 145.629 218.455 146.101 218.522 146.91C218.589 147.719 219.533 148.19 220.274 148.325L226.206 149.201L240.494 151.358L257.749 153.987L272.644 156.278C275.071 156.615 277.497 157.155 279.923 157.357H279.991C280.934 157.492 282.08 156.548 281.271 155.604L277.227 151.089L276.756 152.774L287.405 150.078C287.944 149.943 288.281 149.404 288.146 148.864C288.146 148.797 288.146 148.797 288.079 148.73C287.742 148.123 287.135 147.719 286.394 147.651L280.597 146.977L266.578 145.292L249.661 143.27L235.035 141.518C232.676 141.248 230.317 140.844 227.958 140.709H227.823C226.947 140.574 226.071 141.181 226.34 142.124L227.351 145.36L228.362 143.944L219.466 145.764C217.444 146.236 218.994 148.662 220.679 148.258Z" fill="#022C22"/>
<path d="M223.779 145.966C223.779 145.966 229.238 115.973 230.721 115.906C232.204 115.838 270.757 122.241 271.835 123.118C272.913 123.994 264.556 151.83 264.556 151.83L223.779 145.966Z" fill="#01824C"/>
<path d="M225.195 146.775C226.475 139.9 227.756 133.025 229.306 126.218C229.71 124.263 230.182 122.376 230.721 120.422C230.924 119.748 231.126 119.006 231.328 118.332C231.395 118.063 231.463 117.793 231.598 117.591L231.732 117.321C231.8 117.052 231.8 117.186 231.732 117.254C231.8 116.984 232.069 117.052 231.732 117.186C231.8 117.186 231.126 117.186 231.328 117.254C231.53 117.321 231.935 117.321 232.272 117.389C233.552 117.523 234.833 117.726 236.113 117.928C245.01 119.276 253.907 120.759 262.736 122.444C264.556 122.781 266.376 123.118 268.196 123.455C268.87 123.589 269.611 123.724 270.285 123.926L271.027 124.061C271.364 124.129 270.959 124.061 271.027 124.061L271.364 124.129L271.768 124.263L271.903 124.331C271.835 124.533 270.622 123.118 270.757 123.32C270.69 123.185 270.622 122.983 270.555 122.848C270.555 122.915 270.555 122.983 270.555 123.05C270.555 123.118 270.555 123.185 270.555 123.32C270.555 123.657 270.555 123.118 270.555 123.455C270.353 124.937 270.016 126.42 269.679 127.903C267.859 135.519 265.635 143.068 263.343 150.617C263.276 150.752 263.276 150.954 263.208 151.156L264.219 150.617L250.47 148.595L228.497 145.427L223.442 144.686C222.97 144.551 222.566 144.82 222.431 145.292C222.364 145.494 222.431 145.629 222.499 145.831C222.768 146.64 223.51 147.179 224.318 147.314L238.068 149.336L260.04 152.504L265.095 153.245C265.5 153.38 265.904 153.111 266.106 152.774C268.196 145.764 270.285 138.687 272.038 131.61C272.509 129.858 272.914 128.105 273.251 126.285C273.453 125.072 273.857 123.724 272.981 122.713C272.24 121.837 271.027 121.635 270.016 121.365C268.6 121.028 267.117 120.759 265.635 120.422C256.536 118.669 247.369 117.119 238.203 115.704C235.642 115.299 233.08 114.76 230.519 114.625C229.373 114.558 229.036 115.434 228.699 116.378C228.228 117.86 227.756 119.343 227.419 120.893C225.464 128.779 223.981 136.732 222.566 144.686C222.566 144.82 222.499 145.023 222.499 145.225C222.499 146.034 222.903 146.775 223.644 147.112C223.914 147.247 225.06 147.584 225.195 146.775Z" fill="#01824C"/>
<path d="M271.835 123.792C271.835 123.792 279.182 125.746 279.856 127.094C280.53 128.442 275.34 152.234 274.396 152.369C273.588 152.504 263.612 150.684 263.612 150.684L271.835 123.792Z" fill="white"/>
<path d="M272.038 124.87C273.386 125.207 274.801 125.679 276.149 126.151C276.621 126.285 277.025 126.488 277.497 126.622C277.901 126.757 278.238 126.959 278.643 127.162C278.778 127.229 279.182 127.566 278.845 127.296C279.182 127.566 278.778 127.229 278.643 127.027C278.643 127.027 278.373 126.555 278.441 126.622C278.441 126.69 278.441 126.757 278.441 126.825C278.441 126.555 278.373 126.959 278.441 126.825C278.441 126.892 278.441 127.027 278.441 127.094C278.441 127.364 278.441 127.566 278.373 127.768C278.306 128.375 278.238 129.049 278.104 129.655C277.834 131.34 277.497 133.093 277.16 134.778C276.419 138.687 275.542 142.529 274.599 146.371C274.262 147.651 273.925 148.999 273.52 150.28C273.453 150.482 273.386 150.684 273.318 150.886C273.318 150.819 273.251 151.089 273.318 150.886C273.318 150.954 273.251 151.021 273.251 151.089C273.251 151.156 273.183 151.156 273.183 151.156L273.386 151.021C273.52 150.954 273.251 150.954 273.588 151.021C273.453 151.021 273.318 151.021 273.183 151.021C269.813 150.684 266.443 149.943 263.073 149.336L265.095 151.358L272.307 127.836L273.318 124.533C273.655 123.387 270.824 121.635 270.42 122.983L263.208 146.505L262.197 149.808C261.928 150.752 263.478 151.695 264.219 151.83C267.454 152.437 270.69 153.043 273.925 153.448C274.464 153.582 275.071 153.582 275.61 153.448C275.947 153.313 276.082 152.841 276.216 152.571C276.621 151.426 277.025 150.28 277.295 149.067C278.373 145.09 279.249 141.046 280.058 137.069C280.395 135.25 280.8 133.362 281.069 131.543C281.339 130.397 281.474 129.184 281.406 127.97C281.271 125.948 278.508 125.005 276.958 124.331C275.273 123.657 273.52 123.118 271.701 122.646C271.161 122.511 270.353 122.511 270.487 123.252C270.622 123.994 271.229 124.6 272.038 124.87Z" fill="#01824C"/>
<path d="M220.14 147.045L279.923 156.144L275.879 151.628L286.529 148.932C286.529 148.932 303.109 232.845 303.109 234.665C303.109 236.484 290.303 248.414 285.585 248.414C280.867 248.414 199.178 240.933 199.178 236.552C199.178 232.171 220.14 147.045 220.14 147.045Z" fill="white"/>
<path d="M221.15 148.325L227.082 149.201L241.37 151.358L258.625 153.987L273.52 156.278L278.508 157.02L280.058 157.222C280.328 157.289 280.597 157.357 280.867 157.357H281.002C281.271 157.357 280.934 156.952 280.867 156.885C280.53 156.413 280.193 156.009 279.856 155.604L275.812 151.089L277.025 152.841L287.674 150.145L285.45 147.651L286.528 153.043C287.405 157.626 288.348 162.21 289.224 166.86C290.438 172.994 291.651 179.194 292.864 185.328C294.145 191.798 295.425 198.269 296.638 204.806C297.717 210.401 298.795 215.927 299.874 221.522C300.548 224.959 301.222 228.396 301.761 231.834C301.896 232.373 301.963 232.98 301.963 233.586C301.559 234.462 300.952 235.271 300.278 235.945C299.2 237.158 298.054 238.237 296.841 239.315C294.212 241.809 291.314 243.966 288.213 245.786C286.865 246.662 285.248 247.066 283.63 247.066C280.328 246.864 277.092 246.594 273.79 246.325C268.128 245.853 262.467 245.314 256.872 244.707C250.2 244.033 243.527 243.292 236.855 242.483C230.452 241.742 224.049 240.933 217.646 239.989C212.928 239.315 208.142 238.574 203.424 237.428C202.076 237.158 200.728 236.754 199.448 236.215C199.245 236.147 199.043 236.013 198.841 235.945C198.639 235.878 198.639 235.878 198.706 235.878C198.437 235.81 198.706 235.878 198.841 236.013C199.38 236.552 199.852 237.158 200.256 237.832C200.256 237.765 200.256 237.765 200.256 237.698C200.256 237.63 200.256 237.495 200.256 237.428C200.661 234.665 201.2 231.969 201.874 229.273C203.02 224.15 204.166 219.028 205.379 213.905C206.862 207.57 208.344 201.167 209.895 194.831C211.445 188.361 212.995 181.89 214.545 175.487C215.893 170.095 217.174 164.703 218.522 159.244L220.881 149.606C221.016 149.201 221.083 148.73 221.218 148.325C221.353 147.921 220.476 147.179 220.274 146.91C219.87 146.505 219.465 146.101 218.994 145.764C218.522 147.584 218.117 149.336 217.646 151.156C216.5 155.739 215.421 160.322 214.276 164.838C212.793 171.039 211.243 177.24 209.76 183.441C208.142 190.046 206.592 196.651 205.042 203.256C203.626 209.12 202.278 214.984 200.93 220.848C200.054 224.757 199.178 228.666 198.369 232.575C198.167 233.451 198.032 234.26 197.965 235.136C197.965 235.878 198.639 236.484 199.043 237.024C199.582 237.698 200.189 238.237 200.863 238.641C202.009 239.18 203.222 239.585 204.435 239.854C206.39 240.326 208.412 240.731 210.366 241.135C216.028 242.146 221.69 242.955 227.351 243.696C234.024 244.572 240.764 245.381 247.436 246.123C253.907 246.864 260.377 247.538 266.915 248.145C271.7 248.616 276.553 249.088 281.339 249.425C282.687 249.56 284.102 249.627 285.45 249.695C286.865 249.762 288.281 249.493 289.561 248.819C292.729 247.134 295.627 245.044 298.256 242.55C299.537 241.405 300.75 240.259 301.963 238.978C302.772 238.237 303.446 237.361 303.985 236.417C304.187 235.81 304.187 235.136 303.985 234.53C303.783 233.182 303.513 231.901 303.244 230.553C302.367 225.903 301.491 221.319 300.615 216.669C299.402 210.468 298.189 204.2 296.975 197.932C295.695 191.394 294.414 184.789 293.134 178.251L289.831 161.468C289.157 158.098 288.483 154.728 287.809 151.358C287.742 150.886 287.607 150.415 287.539 150.01C287.472 149.606 286.798 148.864 286.461 148.527C286.259 148.325 285.652 147.449 285.383 147.516L274.733 150.212C275.07 150.819 275.475 151.426 275.947 151.965L279.991 156.481L278.845 154.728L272.914 153.852L258.625 151.695L241.438 149.067L226.542 146.775L221.555 146.034L220.072 145.831C219.802 145.764 219.533 145.697 219.263 145.697H219.196C218.926 145.629 219.735 146.708 219.802 146.775C220.072 147.112 220.342 147.449 220.679 147.719C220.679 147.921 220.948 148.258 221.15 148.325Z" fill="#022C22"/>
<path d="M249.863 119.343C247.504 129.588 245.549 139.9 244.066 150.28C243.999 151.089 244.538 151.83 245.347 151.965C245.953 152.1 247.167 152.032 247.301 151.156C248.784 140.776 250.739 130.464 253.098 120.219C253.502 118.534 250.267 117.658 249.863 119.343Z" fill="white"/>
<path d="M247.369 136.598C246.156 135.25 244.269 134.171 243.46 132.486C242.719 131.003 243.056 128.712 244.943 128.307C245.145 128.307 245.347 128.307 245.482 128.307L245.684 128.375C244.471 127.229 244.067 126.892 244.404 127.431C244.538 127.768 244.741 128.105 244.943 128.51C245.212 129.318 245.415 130.127 245.549 130.936C245.886 132.756 246.021 134.643 245.01 136.261L247.706 138.35C248.919 134.98 251.009 131.947 253.705 129.588C254.109 129.184 254.514 128.847 254.985 128.577C255.255 128.442 255.592 128.375 255.862 128.307H255.996C256.333 128.375 256.199 128.24 255.457 127.903C254.514 127.229 254.851 127.364 254.985 127.768C255.727 129.992 253.166 132.486 251.481 133.565C250.537 134.171 249.459 134.643 248.313 134.913C247.167 135.115 246.021 135.384 244.943 135.789C243.797 136.328 242.786 137.204 242.045 138.215C241.101 139.496 240.157 140.776 239.349 142.124C239.079 142.529 241.842 144.483 242.045 144.214C242.921 142.866 243.797 141.585 244.741 140.305C245.482 139.226 246.56 138.35 247.774 137.811C249.054 137.339 250.402 137.204 251.683 136.8C252.963 136.463 254.109 135.789 255.12 134.98C257.007 133.43 258.962 130.599 256.873 128.442C255.996 127.566 254.379 126.016 252.963 126.285C251.818 126.488 250.672 127.768 249.93 128.577C247.774 130.734 246.156 133.362 245.078 136.193C244.875 136.732 247.639 138.485 247.774 138.283C248.987 136.261 248.515 133.834 248.043 131.61C247.841 130.599 247.504 129.655 246.897 128.847C246.021 127.768 244.943 126.892 243.662 126.353C241.438 125.544 240.023 127.97 240.562 129.925C241.303 132.351 243.662 133.699 245.28 135.452C245.819 136.058 246.426 136.53 247.167 136.935C247.639 137.137 247.841 137.069 247.369 136.598Z" fill="white"/>
<path d="M277.969 156.818C277.969 160.255 278.373 163.692 278.575 167.062C279.047 174.072 279.519 181.149 279.991 188.159C280.597 196.516 281.137 204.806 281.743 213.164C282.282 220.511 282.754 227.79 283.226 235.136C283.496 239.113 283.833 243.157 283.967 247.134C283.967 247.268 283.967 247.471 283.967 247.605C283.967 248.01 285.046 248.482 285.315 248.616C285.787 248.886 286.326 249.088 286.933 249.223C286.933 245.786 286.529 242.348 286.326 238.978C285.855 231.969 285.383 224.892 284.911 217.882L283.159 192.877C282.619 185.53 282.148 178.251 281.676 170.904C281.406 166.928 281.069 162.884 280.934 158.907C280.934 158.772 280.934 158.57 280.934 158.435C280.934 158.031 279.856 157.559 279.586 157.424C279.047 157.155 278.508 156.952 277.969 156.818Z" fill="#022C22"/>
<path d="M240.427 163.018C240.09 159.446 239.686 155.672 240.764 152.167C241.64 149.134 243.662 146.573 246.426 145.023C247.504 144.483 248.987 143.742 250.2 144.012C251.75 144.281 252.963 146.101 253.84 147.247C258.018 152.841 259.434 159.985 257.681 166.725C257.412 167.736 260.714 167.602 260.984 166.725C262.871 159.581 261.254 151.965 256.738 146.168C255.592 144.686 254.244 143.27 252.357 142.798C250.335 142.461 248.178 142.664 246.223 143.338C242.786 144.416 239.955 146.842 238.27 150.01C236.248 154.122 236.585 158.907 237.057 163.355C237.192 164.299 240.562 163.962 240.427 163.018Z" fill="#022C22"/>
<path d="M237.326 162.412C236.855 162.344 236.45 162.547 236.181 162.884C235.911 163.288 235.844 163.76 236.046 164.232C236.181 164.569 236.383 164.906 236.652 165.175C237.057 165.58 237.529 165.984 238 166.254C238.607 166.591 239.281 166.793 239.955 166.793C240.427 166.793 240.966 166.591 241.37 166.321C241.707 166.051 241.977 165.647 242.044 165.243C242.112 164.838 242.044 164.366 241.842 164.029C241.303 163.086 240.494 162.344 239.483 161.94C238.944 161.603 238.27 161.603 237.663 161.873C237.192 162.075 236.922 162.547 236.922 163.018C236.989 163.288 237.124 163.558 237.326 163.76C237.596 164.097 237.933 164.366 238.337 164.569C238.607 164.771 238.944 164.906 239.348 164.906C239.551 164.906 239.753 164.906 239.753 164.636C239.753 164.569 239.753 164.434 239.753 164.366L239.685 164.501C239.753 164.299 239.888 164.029 240.09 163.895L239.955 163.962C240.157 163.827 240.359 163.76 240.562 163.76H240.359C240.427 163.76 240.562 163.76 240.629 163.76L240.359 163.692H240.427C240.562 163.692 240.09 163.558 240.225 163.625C240.359 163.692 239.82 163.423 239.955 163.49L239.618 163.288L239.348 163.086C239.483 163.221 239.011 162.749 239.146 162.884C239.281 163.018 239.011 162.749 239.011 162.749C239.011 162.749 239.079 162.884 239.146 162.951L239.011 162.681C239.079 162.816 239.079 162.884 239.146 163.018L239.079 162.816C239.146 163.086 239.146 163.288 239.079 163.558L239.146 163.423C239.011 163.76 238.809 164.097 238.472 164.299L238.607 164.232C238.337 164.434 238 164.569 237.663 164.569H237.866C237.731 164.569 237.529 164.569 237.394 164.569L237.663 164.636C237.596 164.636 237.461 164.569 237.394 164.569L237.596 164.636H237.529C237.326 164.569 237.933 164.838 237.731 164.703C237.731 164.703 238.203 164.973 237.933 164.838L238.203 165.04C238.068 164.973 238.135 165.04 238.405 165.243C238.27 165.108 238.607 165.512 238.54 165.377L238.472 165.243L238.607 165.512C238.54 165.445 238.54 165.31 238.472 165.243L238.54 165.445C238.472 165.31 238.472 165.175 238.54 164.973L238.472 165.108C238.54 164.838 238.674 164.636 238.877 164.501L238.742 164.569C238.877 164.501 238.944 164.434 239.079 164.434H238.877C238.944 164.434 239.011 164.434 239.079 164.434C239.281 164.501 239.416 164.366 239.483 164.232V164.164C239.483 163.895 239.214 163.558 239.079 163.423C238.809 163.018 238.068 162.614 237.326 162.412Z" fill="#022C22"/>
<path d="M256.468 167.062C256.468 167.13 256.535 167.265 256.535 167.332L256.468 166.995C256.535 167.197 256.535 167.467 256.535 167.669V167.265C256.535 167.736 256.401 168.141 256.333 168.613C256.266 169.152 256.266 169.758 256.468 170.298C256.872 171.511 258.086 172.185 259.299 171.983C260.512 171.713 261.456 170.769 261.793 169.624C261.995 168.545 261.523 167.467 260.579 166.86C259.636 166.254 258.423 166.051 257.344 166.321C256.872 166.388 256.535 166.658 256.198 166.928C255.929 167.197 255.794 167.602 255.794 168.006C255.861 168.41 256.064 168.747 256.401 168.95C256.738 169.152 257.209 169.219 257.614 169.152C257.816 169.084 257.951 169.084 258.153 169.084H257.749C257.951 169.084 258.22 169.084 258.423 169.152L258.018 169.084C258.22 169.152 258.423 169.219 258.625 169.287L258.288 169.152C258.423 169.219 258.625 169.354 258.76 169.489L258.49 169.219C258.625 169.354 258.692 169.421 258.76 169.556L258.557 169.219C258.625 169.354 258.692 169.421 258.692 169.556L258.625 169.219C258.625 169.354 258.625 169.489 258.625 169.556V169.152C258.625 169.287 258.557 169.421 258.557 169.489L258.692 169.152C258.625 169.287 258.557 169.354 258.557 169.489L258.76 169.152C258.692 169.287 258.625 169.354 258.49 169.421L258.827 169.152C258.76 169.219 258.692 169.287 258.557 169.354L258.962 169.152C258.894 169.219 258.827 169.219 258.692 169.219L259.097 169.084H258.962H259.366C259.299 169.084 259.231 169.084 259.164 169.084L259.568 169.152C259.501 169.152 259.434 169.084 259.366 169.084L259.703 169.219C259.636 169.152 259.568 169.152 259.501 169.084L259.771 169.354C259.703 169.287 259.636 169.152 259.568 169.084L259.771 169.421C259.703 169.287 259.636 169.152 259.568 169.017L259.636 169.421C259.568 169.152 259.568 168.882 259.568 168.68V169.084C259.568 168.68 259.703 168.276 259.771 167.871C259.905 167.197 259.838 166.591 259.568 165.917C259.097 165.108 258.018 164.838 257.209 165.377C256.603 165.58 256.333 166.321 256.468 167.062Z" fill="#022C22"/>
<path d="M174.914 21.0066C174.914 21.0066 245.819 53.2238 245.616 54.7066C245.414 56.1894 224.588 102.493 224.588 102.493C224.588 102.493 152.402 74.4548 152.2 72.0284C151.998 69.602 174.914 21.0066 174.914 21.0066Z" fill="white"/>
<path d="M173.633 22.085L178.553 24.3092C182.665 26.1964 186.776 28.0836 190.888 29.9708C196.347 32.4646 201.739 34.9584 207.131 37.4522C212.658 40.0134 218.252 42.642 223.779 45.2706C228.295 47.4274 232.81 49.5842 237.259 51.8084C239.618 52.8868 241.842 54.1674 244.066 55.5154C244.336 55.6502 244.134 55.5828 244.066 55.5154C244.066 55.5154 244.066 54.9762 243.999 55.111C243.931 55.2458 243.931 55.3132 243.864 55.448C243.864 55.5154 243.797 55.6502 243.729 55.7176C243.662 55.9198 243.797 55.5154 243.797 55.5828L243.729 55.785C243.123 57.2678 242.449 58.7506 241.842 60.2334C239.685 65.2884 237.461 70.3434 235.169 75.3984C232.743 80.9252 230.249 86.452 227.755 91.9788C226.273 95.2814 224.79 98.6514 223.307 102.021L223.105 102.493L225.464 101.347L220.274 99.3254C215.893 97.573 211.512 95.888 207.131 94.1356C201.402 91.9114 195.74 89.6198 190.011 87.3282C184.282 85.0366 178.553 82.6776 172.757 80.2512C170.263 79.1728 167.769 78.1618 165.276 77.016C163.186 76.1398 161.299 75.2636 159.412 74.3874C157.996 73.7134 156.581 73.0394 155.233 72.298C154.829 72.0958 154.424 71.8262 154.02 71.5566C153.885 71.4892 153.75 71.3544 153.683 71.287C153.818 71.4892 153.413 71.1522 153.683 71.287C153.615 71.2196 153.75 71.624 153.75 71.4218C153.75 71.2196 153.683 71.7588 153.75 71.5566C153.818 71.3544 153.818 71.2196 153.885 71.0848C154.02 70.5456 154.222 70.0064 154.492 69.4672L154.694 68.928C154.694 68.8606 154.761 68.7258 154.829 68.6584C154.694 68.928 154.829 68.6584 154.896 68.5236C155.031 68.1192 155.233 67.6474 155.435 67.243C155.84 66.232 156.311 65.221 156.716 64.21C159.007 58.818 161.434 53.426 163.86 48.1014C166.421 42.5072 168.983 36.913 171.544 31.3188C173.094 28.0162 174.577 24.781 176.127 21.4784L176.329 21.0066C176.599 20.6696 176.531 20.1304 176.194 19.8608C176.06 19.726 175.79 19.6586 175.588 19.6586C174.779 19.6586 173.97 20.1304 173.566 20.8718C172.487 23.2308 171.342 25.5898 170.263 27.8814C167.769 33.206 165.343 38.5306 162.917 43.8552C160.288 49.5168 157.727 55.2458 155.233 60.9748C154.289 63.1316 153.346 65.2884 152.47 67.4452C151.863 68.7932 151.324 70.2086 150.919 71.624C150.65 72.298 150.919 73.1068 151.526 73.5112C152.47 74.1178 153.413 74.657 154.424 75.1288C158.401 77.0834 162.445 78.8358 166.489 80.5882C172.083 82.9472 177.677 85.3062 183.271 87.5304C189.203 89.9568 195.066 92.3158 201.065 94.6748C205.918 96.6294 210.771 98.5166 215.691 100.471C218.252 101.482 220.746 102.493 223.307 103.437L223.644 103.572C224.453 103.841 225.733 103.1 226.003 102.426L229.238 95.214C231.597 89.8894 233.956 84.6322 236.315 79.3076C238.742 73.8482 241.168 68.3888 243.527 62.9294C244.336 61.0422 245.145 59.155 245.953 57.2678C246.425 56.3242 246.83 55.3132 247.099 54.3022C247.301 53.4934 246.493 53.089 245.886 52.752C244.808 52.078 243.662 51.4714 242.516 50.9322C238.539 48.8428 234.495 46.9556 230.451 45.001C225.059 42.3724 219.6 39.8786 214.141 37.3174C208.546 34.6888 202.952 32.1276 197.358 29.5664L183.541 23.2308L176.397 19.9956L176.06 19.8608C175.318 19.5912 174.509 19.726 173.903 20.3326C173.701 20.6696 172.892 21.748 173.633 22.085Z" fill="#022C22"/>
<path d="M223.509 43.4508L203.154 94.0682C203.154 94.0682 221.892 103.167 224.588 102.493C227.284 101.819 246.021 57.5374 245.616 54.7066C245.212 51.8758 223.509 43.4508 223.509 43.4508Z" fill="#022C22"/>
<path d="M222.026 42.7094L215.152 59.8964L204.233 87.0586L201.672 93.3268C201.469 94.1356 201.874 95.0118 202.683 95.4162C205.311 96.6968 207.94 97.91 210.636 99.1232C214.545 100.876 218.589 102.83 222.768 103.841C223.981 104.111 225.262 104.38 226.205 103.437C226.744 102.83 227.216 102.224 227.621 101.482C229.373 98.584 230.856 95.551 232.271 92.4506C236.18 84.2278 239.753 75.8702 243.055 67.4452C244.268 64.3448 245.482 61.2444 246.493 58.0766C246.83 57.2004 247.032 56.3242 247.167 55.3806C247.301 54.1 246.425 53.089 245.482 52.3476C243.999 51.2018 242.449 50.2582 240.764 49.4494C238.742 48.371 236.652 47.4274 234.495 46.4838C231.193 45.001 227.89 43.653 224.588 42.305L224.048 42.1028C223.307 41.8332 222.363 41.9006 222.026 42.7094C221.824 43.5856 222.229 44.4618 223.037 44.7988C225.396 45.7424 227.755 46.686 230.114 47.697C234.091 49.3146 238 51.2018 241.842 53.2912L242.381 53.6282C242.449 53.6956 243.055 54.0326 242.651 53.763C242.92 53.9652 243.257 54.1674 243.527 54.3696C243.729 54.5718 243.931 54.774 244.201 54.9088C244.134 54.8414 243.931 54.5718 244.134 54.8414C244.268 55.111 244.066 54.437 244.066 54.7066C244.066 54.9762 244.134 54.3022 244.066 54.437C244.066 54.5718 243.999 54.7066 243.999 54.8414C243.999 54.9088 243.999 54.9762 243.999 55.0436C243.999 55.3132 244.066 54.6392 243.999 54.9762C243.931 55.1784 243.931 55.3806 243.864 55.5828C243.055 58.2788 242.112 60.9748 241.033 63.6034C237.865 71.8262 234.361 79.9142 230.721 87.9348C229.171 91.2374 227.621 94.54 225.936 97.7752C225.801 98.0448 225.599 98.3818 225.464 98.6514L225.194 99.0558C225.396 98.7188 225.194 99.0558 225.127 99.1906C224.857 99.595 224.588 100.067 224.318 100.471C224.116 100.741 223.846 101.01 223.711 101.28C223.644 101.415 224.048 101.078 223.779 101.213C223.577 101.347 224.183 101.078 223.981 101.145C223.981 101.145 224.385 101.145 224.048 101.145H223.779C224.318 101.145 223.846 101.145 223.711 101.145C223.374 101.078 223.037 101.01 222.768 100.943C222.498 100.876 222.026 100.741 221.622 100.606L221.015 100.404L220.678 100.269L220.544 100.202C218.454 99.4602 216.432 98.584 214.41 97.7078C211.04 96.225 207.67 94.7422 204.368 93.1246L203.761 92.855L204.772 94.9444L211.647 77.8248L222.566 50.6626L225.127 44.3944C225.733 42.5746 222.768 40.957 222.026 42.7094Z" fill="#022C22"/>
<path d="M178.082 82.8124C183.406 68.928 189.472 55.3806 196.28 42.2376C197.223 40.4178 198.167 38.6654 199.11 36.8456C199.65 35.902 200.054 34.9584 200.661 34.0148C200.863 33.6778 201.065 33.4082 201.335 33.1386C201.469 33.0038 201.604 32.869 201.806 32.7342C202.615 32.195 202.211 33.0712 200.795 32.3972C201.537 32.7342 202.346 32.869 203.154 32.7342C203.761 32.5994 203.828 32.2624 203.289 31.9254C201.672 31.1166 199.65 31.1166 198.302 32.3972C196.954 33.6778 196.347 35.4976 195.538 36.9804C193.584 40.5526 191.764 44.1922 189.944 47.7644C186.372 54.9088 183.069 62.188 179.901 69.602C178.082 73.8482 176.397 78.0944 174.779 82.408C174.442 82.8798 177.677 83.6886 178.082 82.8124Z" fill="#01824C"/>
<path d="M205.85 33.4082C204.907 31.184 203.828 28.7576 204.233 26.3312C204.368 25.3876 204.839 24.444 205.446 23.7026C205.716 23.3656 206.053 23.0959 206.39 22.8937C206.524 22.7589 206.727 22.6916 206.929 22.6242C207.131 22.5568 207.401 22.5567 207.603 22.4893C207.94 22.4893 207.805 22.3545 207.266 22.2197L207.401 22.4219C207.468 22.6915 207.67 23.0286 207.805 23.2982C208.007 23.8374 208.075 24.3091 208.142 24.8483C208.277 25.9941 208.209 27.2073 207.805 28.2857C207.131 30.3077 205.716 31.9927 203.896 32.9363L206.322 35.0257C207.266 32.7341 209.557 31.1839 211.782 30.3077C214.073 29.4315 216.567 29.0272 219.061 29.0272C219.667 29.0272 221.083 28.825 221.42 29.4316C221.892 30.4426 221.218 31.7232 220.544 32.4646C218.926 34.2844 216.365 34.8909 214.073 34.9583C210.771 35.0257 207.333 34.1495 204.098 33.6777C203.424 33.5429 202.683 33.9473 202.817 34.6887C203.087 35.4975 203.761 36.1042 204.57 36.1716C208.142 36.7108 211.849 37.587 215.489 37.5196C218.522 37.4522 221.757 36.4411 223.644 33.9473C225.194 31.9927 224.857 29.0945 222.903 27.5443C222.363 27.1399 221.689 26.803 221.015 26.6682C219.465 26.3986 217.848 26.2637 216.297 26.4659C214.68 26.5333 213.13 26.8029 211.579 27.2747C208.412 28.1509 204.772 30.1055 203.424 33.3407C202.952 34.4865 204.772 35.9694 205.85 35.4302C210.231 33.2734 212.388 28.2183 210.771 23.5677C210.434 22.2871 209.692 21.1413 208.546 20.3999C207.401 19.7933 205.985 19.726 204.772 20.2652C202.885 21.1414 201.537 22.9612 201.2 24.9832C200.593 27.9488 201.874 30.9143 202.952 33.5429C203.357 34.2843 204.165 34.7562 204.974 34.7562C205.446 34.7562 205.918 34.3517 205.918 33.8799C205.985 33.7451 205.918 33.543 205.85 33.4082Z" fill="#01824C"/>
<path d="M212.928 100.606C216.567 86.1149 226.542 74.3873 231.328 60.3007C232.541 56.8633 233.282 53.2237 233.687 49.5841C233.889 47.4947 233.822 45.4727 232.204 43.9225C230.721 42.5745 229.104 41.4961 227.284 40.6873C223.644 38.9349 219.735 37.9239 215.826 36.8455C211.782 35.6997 207.738 34.4865 203.761 33.0037C194.662 29.6337 185.9 25.4549 177.61 20.3999C175.925 19.3889 174.038 22.0849 175.858 23.1633C183.069 27.5443 190.686 31.3861 198.571 34.4865C202.481 36.0367 206.457 37.4521 210.501 38.6653C214.276 39.8111 218.185 40.6873 221.892 41.9679C223.712 42.5745 225.464 43.3833 227.082 44.3269C228.43 45.0683 230.384 46.0793 230.452 47.8317C230.452 49.5841 230.317 51.3365 229.912 53.0889C229.575 54.8413 229.171 56.5263 228.632 58.2113C226.542 65.0187 223.105 71.2869 219.668 77.4877C215.758 84.6995 211.782 91.9787 209.76 99.9993C209.288 102.021 212.456 102.561 212.928 100.606Z" fill="#01824C"/>
<path d="M243.46 42.9116C246.223 40.2156 249.93 38.8002 253.772 38.8002C255.322 38.7328 256.872 38.935 258.355 39.4742C260.175 40.283 261.793 41.3614 263.275 42.7094C269.476 48.371 272.711 57.6048 272.442 65.895C272.374 70.2086 270.959 74.3874 268.263 77.8248C265.971 80.6556 262.264 83.2168 258.49 82.9472C258.288 82.9472 258.153 82.8798 257.951 82.8798C257.546 82.8798 258.49 82.8798 258.49 83.082C258.49 82.9472 257.681 82.6102 257.546 82.4754C256.94 81.9362 256.535 81.2622 256.401 80.4534C256.198 78.9706 256.872 77.5552 258.153 76.8138C258.76 76.4094 259.434 76.1398 260.175 76.005C260.579 75.9376 260.916 75.8702 261.321 75.9376C261.456 75.9376 261.59 75.9376 261.725 75.9376C262.264 76.005 261.86 75.8702 260.647 75.6006C260.714 75.668 260.849 75.668 260.916 75.7354C262.467 76.9486 263.68 78.5662 264.219 80.5208C264.826 82.6776 265.163 84.9018 265.163 87.1934C265.23 89.822 265.028 92.3832 264.556 94.9444C263.612 99.9994 261.793 104.852 259.029 109.166L262.264 110.177C261.927 108.829 261.658 107.481 261.456 106.065C261.321 104.987 261.186 103.909 261.253 102.763C261.186 102.021 261.456 101.213 261.86 100.606C262.332 99.9994 263.275 99.9994 264.017 100.067C264.354 100.067 264.691 100.134 265.028 100.202C264.758 100.134 264.96 100.202 264.96 100.202C265.163 100.269 265.365 100.404 265.567 100.471C267.387 101.415 268.87 103.1 267.724 105.122C266.848 106.672 264.96 107.683 263.275 108.087C263.006 108.155 264.219 108.627 264.286 108.694C264.826 108.896 265.702 109.301 266.308 109.166C267.926 108.761 269.746 107.885 270.689 106.402C272.172 104.111 270.487 102.291 268.465 101.145C267.05 100.404 265.567 99.7972 264.017 99.3928C262.736 98.9884 261.456 98.7862 260.108 98.8536C259.299 98.7862 258.557 99.258 258.22 99.932C257.883 100.943 257.816 102.021 257.951 103.032C258.086 105.054 258.423 107.009 258.894 108.964C258.962 109.368 261.927 110.312 262.13 109.975C264.893 105.526 266.848 100.606 267.724 95.4836C268.196 92.9224 268.33 90.2938 268.263 87.7326C268.263 85.3736 267.926 83.0146 267.185 80.7904C266.511 78.8358 265.23 77.2182 263.478 76.1398C261.658 75.1288 259.231 74.4548 257.142 74.7918C255.592 75.0614 253.907 75.9376 253.3 77.4878C252.694 79.1054 253.3 80.8578 254.716 81.8014C256.603 83.082 258.827 83.756 261.051 83.8908C263.073 84.0256 265.095 83.4864 266.848 82.4754C270.892 80.2512 273.655 76.2072 274.801 71.8262C276.149 66.7038 275.542 61.1096 273.992 56.122C272.711 51.741 270.352 47.697 267.185 44.327C263.747 40.957 259.366 38.7328 254.716 37.924C250.604 37.1152 246.223 37.5196 242.651 39.7438C241.775 40.283 240.899 40.957 240.225 41.6984C240.696 41.968 241.236 42.2376 241.775 42.3724C242.044 42.642 243.19 43.1812 243.46 42.9116Z" fill="#01824C"/>
<path d="M128.476 102.089C128.476 102.089 154.155 80.6557 156.447 80.8579C158.738 81.0601 188.664 120.354 202.009 128.375C202.009 128.375 181.385 151.426 174.173 151.897C166.961 152.369 128.813 116.917 128.476 102.089Z" fill="#01824C"/>
<path d="M129.486 103.1C133.53 99.7299 137.642 96.3599 141.821 93.0573C144.921 90.6309 148.021 88.1371 151.189 85.7781C152.402 84.9019 153.548 84.0257 154.829 83.2169C155.166 83.0147 154.492 83.4191 154.896 83.1495L155.233 82.9473L155.907 82.5429L156.379 82.2733L156.581 82.2059C156.851 82.0711 156.109 82.3407 156.446 82.2733C156.851 82.1385 156.042 82.2733 155.975 82.2059C156.177 82.2733 155.503 82.0037 155.84 82.1385C156.177 82.2733 156.042 82.3407 155.84 82.1385C155.975 82.2059 156.042 82.3407 156.177 82.4081C156.851 83.0147 157.457 83.6887 158.064 84.3627C160.153 86.6543 162.175 88.9459 164.197 91.3049C170.061 98.1123 175.858 104.987 181.924 111.592C184.957 114.895 188.057 118.197 191.292 121.365C193.853 123.926 196.617 126.285 199.515 128.442C200.054 128.847 200.661 129.251 201.2 129.588L200.863 127.633C197.021 131.947 193.382 135.654 189.135 139.698C186.17 142.596 183.002 145.292 179.632 147.786C179.295 148.056 178.958 148.258 178.621 148.527L178.351 148.662L177.745 148.999C177.138 149.404 176.464 149.741 175.79 150.01C175.723 150.01 175.184 150.28 175.521 150.145C175.858 150.01 175.318 150.212 175.251 150.212C174.981 150.28 174.712 150.347 174.442 150.415C174.847 150.415 174.173 150.482 174.442 150.415H174.24C174.038 150.415 173.903 150.28 174.375 150.415C174.307 150.415 174.173 150.415 174.105 150.347C174.038 150.28 173.768 150.28 173.566 150.212L173.229 150.145C172.892 150.01 173.499 150.28 173.162 150.145C172.825 150.01 172.218 149.741 171.746 149.471C170.6 148.864 169.455 148.19 168.309 147.449C166.826 146.438 165.815 145.697 164.4 144.618C162.849 143.405 161.299 142.124 159.816 140.844C153.009 134.98 146.741 128.577 141.012 121.702C138.383 118.602 136.024 115.299 133.935 111.862C133.059 110.379 132.25 108.829 131.508 107.279C131.239 106.605 130.969 105.931 130.7 105.189C130.632 104.987 130.767 105.526 130.7 105.122C130.7 105.054 130.632 104.987 130.632 104.92L130.497 104.448C130.43 104.111 130.363 103.774 130.295 103.437C130.16 102.83 130.093 102.291 130.093 101.684C130.093 100.808 128.947 100.539 128.273 100.673C127.397 100.876 126.858 101.617 126.858 102.493C126.925 105.526 128.206 108.492 129.621 111.053C131.576 114.625 133.8 118.063 136.361 121.23C142.09 128.51 148.426 135.25 155.368 141.316C158.334 144.012 161.434 146.505 164.669 148.864C166.826 150.549 169.252 151.897 171.746 152.908C174.173 153.785 176.532 152.841 178.688 151.56C182.126 149.404 185.361 146.91 188.327 144.079C193.449 139.361 198.369 134.441 203.02 129.251L203.289 128.981C203.761 128.442 203.694 127.633 203.155 127.162C203.087 127.094 203.02 127.027 202.952 127.027C202.346 126.69 201.807 126.285 201.267 125.881C201.133 125.814 201.065 125.746 200.93 125.679L200.526 125.342L199.515 124.533C198.1 123.387 196.684 122.107 195.336 120.826C192.101 117.86 189.135 114.693 186.102 111.457C179.834 104.65 173.836 97.6405 167.837 90.6309C165.613 88.0697 163.456 85.4411 161.164 82.9473C160.153 81.8015 158.94 80.1839 157.525 79.5099C156.581 79.0381 155.503 79.5099 154.627 79.9817C153.481 80.6557 152.402 81.3297 151.324 82.1385C148.291 84.2279 145.393 86.5195 142.495 88.8111C137.507 92.7203 132.587 96.6969 127.734 100.741L127.464 100.943C126.79 101.415 126.656 102.291 127.127 102.898L127.195 102.965C127.936 103.706 128.88 103.706 129.486 103.1Z" fill="#01824C"/>
<path d="M137.709 114.019C141.214 110.042 142.697 104.043 140.675 99.0559L140.608 99.8647L150.987 91.5745L149.1 91.1701C150.583 92.3833 152.268 93.2595 154.088 93.8661C157.121 94.9445 160.491 94.4053 162.984 92.3159L160.76 91.5745L170.331 102.426L185.496 119.613L189.001 123.589L188.933 121.904C187.855 122.444 187.046 123.387 186.642 124.533C185.226 127.836 186.305 131.947 187.383 135.182L187.451 134.373L176.869 143.944L178.756 144.349C175.386 141.653 170.196 139.091 165.95 141.181L167.635 141.787C164.602 139.361 161.636 136.867 158.738 134.373C155.975 132.014 153.279 129.655 150.65 127.229C148.022 124.803 145.326 122.174 142.967 119.748C141.956 118.669 140.675 117.254 139.664 115.973C139.192 115.434 138.788 114.827 138.383 114.221L138.451 114.288L138.316 114.019C138.249 113.884 138.181 113.749 138.046 113.614C137.912 113.345 137.709 113.075 137.575 112.805C137.17 112.064 136.496 111.592 135.62 111.525C134.811 111.592 134.879 112.334 135.216 112.873C136.564 115.232 138.249 117.456 140.136 119.411C142.562 122.107 145.191 124.668 147.887 127.162C152.807 131.745 157.862 136.126 163.052 140.372C164.13 141.248 165.209 142.192 166.354 143.068C166.759 143.405 167.5 143.944 168.039 143.675C170.129 142.664 172.488 143.068 174.577 144.012C175.386 144.349 176.127 144.753 176.801 145.225C177.071 145.36 177.273 145.562 177.543 145.697C177.61 145.764 177.678 145.831 177.812 145.899C177.947 145.966 177.408 145.562 177.543 145.697C178.015 146.101 178.891 146.64 179.43 146.101L190.012 136.53C190.214 136.328 190.147 135.924 190.079 135.721C189.136 132.823 188.192 129.251 189.405 126.285C189.675 125.679 190.012 125.14 190.484 124.735L190.753 124.533C190.821 124.466 190.551 124.668 190.753 124.533L190.955 124.466C191.629 124.196 191.225 123.185 190.888 122.781L181.385 111.929L166.152 94.8097L162.647 90.8331C162.176 90.2939 161.165 89.4851 160.423 90.0917C158.469 91.7093 155.773 92.1811 153.346 91.3723C152.537 91.1027 151.796 90.7657 151.055 90.2939C150.785 90.1591 150.515 89.9569 150.313 89.7547C149.909 89.4851 150.583 89.9569 150.381 89.7547C149.909 89.3503 149.1 88.8111 148.493 89.3503L138.114 97.6405C137.912 97.7753 137.912 98.2471 138.046 98.4493C139.799 102.898 138.316 108.222 135.216 111.794C134.339 112.738 136.833 115.03 137.709 114.019Z" fill="white"/>
<path d="M151.324 103.909C150.92 104.246 150.583 104.65 150.38 105.189C150.246 105.391 150.246 105.661 150.246 105.931C150.313 106.133 150.448 106.268 150.65 106.402C150.785 106.47 150.987 106.605 151.189 106.605C151.998 106.874 152.807 106.942 153.683 106.807C154.087 106.807 154.492 106.672 154.896 106.402C155.098 106.268 155.301 106.065 155.368 105.796C155.435 105.594 155.368 105.324 155.233 105.122C155.098 104.852 154.896 104.717 154.627 104.583C154.087 104.38 153.548 104.246 153.009 104.246C152.402 104.178 151.863 104.246 151.324 104.448C151.257 104.448 151.122 104.515 151.122 104.65C151.054 104.717 151.054 104.785 151.122 104.852C151.189 104.92 151.324 104.987 151.391 105.054C151.526 105.122 151.728 105.189 151.863 105.189C152.268 105.257 152.739 105.324 153.144 105.257C153.481 105.257 153.818 105.189 154.155 105.054L153.885 105.122H153.953L153.616 105.189H153.683C153.413 105.257 153.144 105.257 152.942 105.189C152.672 105.189 152.402 105.189 152.2 105.122H152.268L151.931 105.054H151.998L151.728 104.92C151.796 104.92 151.796 104.987 151.863 104.987L151.728 104.852C151.863 104.987 151.931 105.122 151.998 105.257L151.931 105.122C151.998 105.324 151.998 105.526 151.931 105.661L151.998 105.526C151.931 105.661 151.863 105.796 151.728 105.863L151.931 105.728L151.728 105.796L151.998 105.728L151.863 105.796L152.2 105.728H151.998C151.931 105.728 152.47 105.661 152.335 105.661C152.2 105.661 152.874 105.661 152.672 105.661C152.47 105.661 153.211 105.728 153.076 105.728H153.211C153.548 105.796 153.413 105.796 153.346 105.728H153.279L153.616 105.796L153.481 105.728L153.75 105.863C153.683 105.796 153.616 105.796 153.548 105.728L153.683 105.863C153.616 105.796 153.616 105.796 153.548 105.728L153.616 105.863C153.548 105.728 153.548 105.526 153.616 105.391C153.683 105.257 153.75 105.054 153.818 104.92L153.75 105.054C153.953 104.717 154.222 104.38 154.492 104.178C154.559 104.111 154.559 104.043 154.559 103.976C154.559 103.909 154.492 103.774 154.357 103.774C154.222 103.706 154.087 103.639 153.953 103.639C153.75 103.572 153.548 103.572 153.346 103.504C152.942 103.437 152.47 103.437 152.065 103.504C151.796 103.504 151.526 103.639 151.257 103.774L151.324 103.909Z" fill="white"/>
<path d="M172.42 115.838C171.881 113.816 169.522 113.075 167.702 112.873C165.411 112.671 163.321 113.547 162.243 115.569C161.299 117.389 161.636 119.478 162.58 121.23C163.052 122.107 163.591 122.915 164.265 123.589C164.467 123.792 164.602 123.994 164.737 124.196C164.737 124.398 164.063 124.668 163.86 124.735C162.243 125.342 160.423 124.6 159.749 123.05C159.345 122.309 158.536 121.904 157.727 122.107C157.12 122.241 156.109 122.915 156.514 123.724C157.39 125.611 159.142 127.027 161.164 127.499C163.254 127.97 166.085 127.566 167.5 125.814C169.185 123.792 166.489 121.904 165.613 120.219C164.939 118.871 164.737 117.052 165.815 115.906C166.017 115.704 166.219 115.569 166.489 115.501C166.691 115.434 166.961 115.434 167.163 115.434H167.5C168.174 115.501 167.365 115.434 167.702 115.434C168.107 115.434 168.444 115.569 168.781 115.771C168.848 115.838 168.915 115.906 169.05 115.973C169.118 116.108 169.185 116.243 169.185 116.378C169.657 117.995 172.959 117.591 172.42 115.838Z" fill="white"/>
<path d="M170.735 114.76C171.207 114.491 171.611 114.154 172.016 113.817C172.42 113.48 172.757 113.143 173.094 112.738C173.162 112.603 173.229 112.469 173.229 112.334C173.229 112.199 173.229 112.064 173.094 111.929C173.027 111.795 172.892 111.727 172.757 111.66C172.622 111.592 172.42 111.525 172.218 111.525C171.814 111.458 171.342 111.525 170.937 111.727L170.533 111.929C170.331 112.064 170.129 112.199 169.994 112.401L170.196 112.132C169.859 112.536 169.387 112.94 168.983 113.277L169.252 113.075C169.05 113.21 168.915 113.345 168.713 113.412C168.578 113.48 168.444 113.614 168.309 113.749C168.174 113.884 168.107 114.019 168.107 114.154C168.039 114.423 168.174 114.693 168.444 114.828C168.781 115.03 169.118 115.097 169.522 115.03C169.926 115.03 170.398 114.962 170.735 114.76Z" fill="white"/>
<path d="M159.479 128.712C159.614 128.442 159.749 128.24 159.951 128.038C160.153 127.768 160.356 127.499 160.625 127.296L160.423 127.499C160.558 127.364 160.76 127.162 160.895 127.094C161.097 126.959 161.232 126.69 161.164 126.42C161.097 126.285 161.03 126.151 160.895 126.083C160.76 125.948 160.625 125.814 160.49 125.746C160.086 125.544 159.682 125.477 159.21 125.477C158.805 125.477 158.468 125.544 158.131 125.746C157.997 125.881 157.862 125.948 157.727 126.083C157.525 126.285 157.255 126.555 157.053 126.757C156.783 127.094 156.514 127.431 156.312 127.768C156.244 127.903 156.177 128.038 156.244 128.105C156.244 128.24 156.312 128.375 156.379 128.51C156.514 128.644 156.649 128.779 156.783 128.847C156.918 128.981 157.12 129.049 157.323 129.116C157.727 129.251 158.199 129.251 158.603 129.184L158.94 129.116C159.21 129.049 159.345 128.914 159.479 128.712Z" fill="white"/>
<path d="M175.656 128.307C175.453 128.577 175.453 128.981 175.656 129.251C175.79 129.453 175.925 129.588 176.06 129.723C176.397 130.06 176.801 130.329 177.138 130.532C177.543 130.734 177.947 130.936 178.352 131.138C178.554 131.206 178.823 131.273 179.026 131.273C179.43 131.206 179.7 130.936 179.834 130.599C179.902 130.397 179.902 130.195 179.834 129.992C179.7 129.655 179.497 129.386 179.295 129.184C179.026 128.981 178.756 128.712 178.486 128.577C178.082 128.307 177.61 128.038 177.138 127.836C176.734 127.633 176.33 127.566 175.925 127.499C175.858 127.431 175.79 127.431 175.656 127.499C175.588 127.499 175.588 127.566 175.588 127.633C175.656 127.701 175.723 127.836 175.79 127.903C175.925 128.038 175.993 128.105 176.127 128.24C176.464 128.51 176.869 128.712 177.206 128.914L177.543 129.116C177.745 129.184 177.947 129.251 178.149 129.318C178.284 129.318 178.419 129.318 178.554 129.386L178.284 129.318C178.554 129.386 178.352 129.318 178.284 129.318L178.217 129.251L177.88 129.116H177.947L177.61 128.914L177.475 128.847L177.341 128.779L177.071 128.577C177.206 128.644 176.801 128.307 176.869 128.442L176.936 128.51L176.734 128.307C176.801 128.375 176.801 128.442 176.869 128.51L176.734 128.375C176.801 128.51 176.869 128.644 176.869 128.847V128.712C176.869 129.049 176.734 129.386 176.397 129.588L176.464 129.521C176.397 129.588 176.262 129.588 176.127 129.588H176.33H176.195L176.464 129.655C176.33 129.588 176.801 129.79 176.734 129.723C176.667 129.655 176.734 129.723 177.071 129.925C177.273 130.06 177.543 130.195 177.745 130.329C177.947 130.464 178.082 130.599 178.284 130.734L178.217 130.666L178.419 130.869C178.352 130.801 178.352 130.801 178.284 130.734L178.419 130.869C178.352 130.734 178.284 130.599 178.284 130.464V130.599C178.284 130.464 178.352 130.262 178.419 130.195C178.486 130.06 178.149 129.723 178.082 129.723C177.812 129.453 177.475 129.251 177.138 129.049C176.801 128.847 176.464 128.644 176.06 128.51C176.06 128.307 175.79 128.173 175.656 128.307Z" fill="white"/>
<path d="M191.041 183.823C186.997 194.876 179.515 204.312 169.742 210.85C159.969 217.523 147.837 221.297 135.975 220.286C129.572 219.747 122.967 217.657 118.384 213.007C116.294 210.917 114.677 208.356 113.598 205.525C113.126 204.11 112.789 202.627 112.655 201.077C112.587 199.662 112.52 197.842 113.261 196.629C113.8 195.752 114.744 195.281 115.755 195.415C116.766 195.415 117.71 195.955 118.316 196.763C120.001 199.19 118.99 202.492 117.305 204.582C116.294 205.795 115.148 206.941 113.8 207.817C112.52 208.761 110.97 209.704 109.352 209.704C107.263 209.704 105.645 208.087 104.567 206.132C103.151 203.571 102.477 200.74 102.005 197.909C101.264 194.067 100.725 190.158 100.455 186.249C100.118 182.34 100.051 178.431 100.118 174.521C100.118 173.578 100.118 172.634 100.253 171.623C100.32 171.017 100.32 170.68 100.725 170.477C101.399 170.275 102.14 170.545 102.477 171.151C103.286 172.297 103.219 173.915 103.286 175.263L104.23 174.117L92.9065 178.296L95.1307 179.172C94.1197 177.15 94.5915 174.724 96.2765 173.241C97.8267 171.893 95.6025 169.534 94.1197 170.747C91.3563 173.039 90.5475 176.948 92.1651 180.183C92.5695 180.992 93.5131 181.329 94.3893 181.059L105.712 176.88C106.252 176.746 106.589 176.274 106.656 175.735C106.656 173.847 106.589 171.825 105.645 170.14C104.836 168.658 103.353 167.647 101.668 167.377C100.186 167.175 98.5007 167.647 97.6919 168.927C97.2201 169.736 97.0179 170.68 97.0179 171.623C96.9505 172.836 96.9505 174.05 96.8831 175.195C96.8157 179.576 97.0179 183.957 97.4897 188.338C97.8941 192.652 98.5681 196.898 99.5117 201.144C100.253 204.177 101.466 207.278 103.556 209.569C105.78 212.131 109.352 213.074 112.52 211.996C116.092 210.513 119.125 207.952 121.214 204.717C123.034 201.616 123.169 197.437 120.81 194.539C118.721 192.045 114.677 191.237 111.981 193.191C108.948 195.281 109.217 199.999 109.824 203.166C111.239 210.446 116.564 216.309 122.967 219.612C129.842 223.117 137.93 223.723 145.478 222.982C152.084 222.241 158.554 220.353 164.553 217.455C176.617 211.524 186.727 201.616 192.389 189.417C193.063 187.934 193.669 186.451 194.276 184.901C194.95 183.081 191.782 181.801 191.176 183.62L191.041 183.823Z" fill="#01824C"/>
<path fill-rule="evenodd" clip-rule="evenodd" d="M240.105 224.696C250.385 226.1 259.856 218.905 261.26 208.625C262.664 198.345 255.468 188.874 245.189 187.47C234.909 186.066 225.438 193.262 224.034 203.541C222.63 213.821 229.826 223.292 240.105 224.696ZM243.998 196.788C242.504 196.583 240.319 197.156 239.118 198.066L235.856 200.537L250.163 202.491L255.599 198.372L243.998 196.788ZM246.152 214.097C244.951 215.007 242.766 215.58 241.272 215.376L229.671 213.791L235.107 209.672L249.414 211.626L246.152 214.097ZM252.105 205.187L233.144 202.598L232.126 203.37C229.744 204.99 230.17 206.567 233.14 206.973L252.153 209.569L253.171 208.796C255.53 207.185 255.076 205.593 252.105 205.187Z" fill="#01824C"/>
</g>
<defs>
<clipPath id="clip0_589_8416">
<rect width="336" height="264" fill="white"/>
</clipPath>
</defs>
</svg>
