<svg width="24" height="24" viewBox="0 0 144 144" fill="none" xmlns="http://www.w3.org/2000/svg"><path fill-rule="evenodd" clip-rule="evenodd" d="M0 0H72C111.765 0 144 32.2355 144 72C144 111.765 111.765 144 72 144H0V0ZM69.9377 62.2068C73.0999 58.6308 75.0308 53.858 75.0308 48.6161C75.0308 43.9991 73.5329 39.746 71.015 36.3541C73.9525 33.9997 77.681 32.5913 81.7384 32.5913C91.2148 32.5913 98.8972 40.2736 98.8972 49.7501C98.8972 59.2267 91.2148 66.909 81.7384 66.909C77.167 66.909 73.0131 65.1212 69.9377 62.2068ZM49.7251 67.1431C39.0639 67.1431 30.4214 58.5006 30.4214 47.8395C30.4214 37.1783 39.0639 28.5358 49.7251 28.5358C60.3862 28.5358 69.0287 37.1783 69.0287 47.8395C69.0287 58.5006 60.3862 67.1431 49.7251 67.1431ZM78.1609 115.173V92.9065C78.1609 83.5262 72.8164 75.487 65.22 72.1108H81.6323C93.604 72.1108 103.309 81.8158 103.309 93.7875C103.309 105.759 93.6041 115.464 81.6323 115.464C80.4195 115.464 79.2619 115.365 78.1609 115.173ZM28.0085 115.402V93.6857C28.0085 81.6918 37.5222 71.9691 49.258 71.9691C60.9938 71.9691 72.7257 81.6918 72.7257 93.6857V115.402H28.0085Z" fill="#4B3BED"></path></svg>