<svg width="336" height="264" viewBox="0 0 336 264" fill="none" xmlns="http://www.w3.org/2000/svg">
<path d="M0 5.99999C0 2.68629 2.68629 0 6 0H330C333.314 0 336 2.68629 336 6V258C336 261.314 333.314 264 330 264H6C2.68629 264 0 261.314 0 258V5.99999Z" fill="white"/>
<path d="M190.989 226.157C190.989 226.157 195.238 168.096 170.048 168.813C131.238 169.939 131.904 225.542 131.904 225.542L190.989 226.157Z" fill="#1E1B4B"/>
<path d="M192.269 225.952C192.422 223.853 192.474 221.754 192.525 219.706C192.627 214.739 192.474 209.824 192.115 204.858C191.757 199.021 190.784 193.184 189.35 187.501C188.019 182.483 186.022 177.312 182.49 173.421C180.954 171.68 179.059 170.298 176.909 169.376C174.4 168.403 171.686 168.045 169.024 168.301C162.368 168.659 155.917 170.861 150.49 174.752C145.728 178.234 142.093 182.995 139.277 188.166C136.666 193.184 134.72 198.458 133.44 203.936C132.314 208.544 131.546 213.203 131.136 217.914C130.88 220.422 130.726 222.931 130.726 225.44V225.798C130.726 226.208 131.546 226.208 131.75 226.208L137.638 226.259L151.718 226.413L168.819 226.618L183.514 226.771C185.92 226.771 188.326 226.925 190.682 226.822H190.784C191.194 226.822 192.115 226.618 192.269 226.106C192.422 225.594 191.552 225.542 191.245 225.542L185.357 225.491L171.277 225.338L154.227 225.184L139.533 225.03L134.669 224.979C133.901 224.979 133.133 224.928 132.365 224.979H132.16L133.184 225.389C133.184 223.699 133.235 221.958 133.389 220.269C133.696 216.07 134.208 211.923 135.027 207.827C136.051 202.502 137.587 197.28 139.738 192.314C141.99 187.142 145.011 182.227 149.056 178.234C151.053 176.288 153.254 174.598 155.712 173.216C158.323 171.782 161.139 170.758 164.058 170.195C165.696 169.888 167.334 169.683 168.973 169.581C169.382 169.581 169.741 169.53 170.15 169.53H170.355H170.867C171.174 169.53 171.43 169.581 171.738 169.581L172.198 169.632L172.403 169.683H172.506C174.605 170.093 176.602 171.014 178.24 172.346C182.08 175.469 184.384 180.23 185.92 184.838C187.763 190.317 188.736 196.051 189.299 201.786C189.811 206.957 190.067 212.179 190.067 217.402C190.067 220.269 190.016 223.136 189.811 226.054C189.811 226.208 189.811 226.31 189.811 226.464C189.709 227.078 192.166 226.822 192.269 225.952Z" fill="#1E1B4B"/>
<path d="M217.869 184.992C217.869 184.992 217.664 178.387 218.329 173.83C218.995 169.274 218.585 165.178 216.845 161.594C215.104 158.01 214.029 152.634 218.227 153.914C222.425 155.194 224.422 160.416 224.422 160.416C224.422 160.416 230.771 139.936 233.997 140.755C237.529 141.677 234.048 151.763 234.048 151.763C234.048 151.763 240.704 139.936 243.52 141.882C246.336 143.827 241.369 153.299 241.369 153.299C241.369 153.299 248.384 144.288 247.667 153.043C246.95 162.106 240.806 171.526 237.376 178.336L236.249 187.552L217.869 184.992Z" fill="white"/>
<path d="M218.585 185.606C218.534 183.302 218.585 180.947 218.688 178.643C218.893 174.803 219.712 171.066 219.097 167.226C218.79 165.382 218.227 163.539 217.408 161.85C216.793 160.57 216.384 159.238 216.128 157.856C215.974 156.934 215.872 155.603 216.589 154.835C217.459 153.965 219.046 154.579 219.968 155.091C221.76 156.064 222.989 158.01 223.757 159.853C224.166 160.314 224.627 160.774 225.139 161.133C226.419 157.037 227.853 152.941 229.542 148.998C230.515 146.746 231.488 144.288 233.075 142.445C233.433 142.035 233.997 141.421 234.611 141.523C234.713 141.523 234.816 141.574 234.867 141.626C234.918 141.677 234.969 141.677 234.969 141.677C233.177 141.421 234.253 140.806 234.355 141.114C234.457 141.37 234.56 141.626 234.662 141.882C234.816 142.547 234.867 143.213 234.816 143.827C234.662 146.336 234.15 148.794 233.28 151.2C233.177 151.507 234.662 152.582 234.662 152.531C236.249 149.562 238.195 146.797 240.499 144.339C241.062 143.674 241.779 143.11 242.547 142.701C242.854 142.547 243.161 142.445 243.469 142.445C243.622 142.445 243.725 142.496 243.878 142.496C243.929 142.496 243.981 142.547 243.981 142.547C243.776 142.598 243.213 141.523 243.366 142.035C243.622 142.906 243.725 143.827 243.571 144.749C243.366 145.875 243.059 147.002 242.649 148.077C242.086 149.664 241.421 151.251 240.601 152.736C240.499 152.992 241.933 154.17 241.984 154.067C242.803 153.043 243.673 152.07 244.646 151.251C245.209 150.688 245.926 150.278 246.694 150.022C246.848 150.022 247.001 150.022 247.155 150.022C247.206 150.022 247.309 150.074 247.36 150.074C247.411 150.074 247.411 150.074 247.411 150.074C247.309 150.074 246.541 149.101 246.643 149.357C246.797 149.818 246.899 150.33 247.001 150.79C247.053 152.685 246.848 154.579 246.336 156.422C245.875 158.368 245.261 160.314 244.493 162.157C242.905 165.894 241.113 169.53 239.117 173.062C238.656 173.882 238.246 174.65 237.837 175.469C237.376 176.186 236.966 176.954 236.659 177.722C236.557 178.234 236.505 178.746 236.454 179.258L235.635 185.76C235.584 186.067 235.533 186.374 235.533 186.733C235.533 186.835 235.533 186.938 235.533 186.938C235.328 187.04 234.56 186.784 234.355 186.784L228.672 185.965C224.883 185.453 221.145 184.838 217.408 184.378L217.203 184.326C216.998 184.326 217.561 184.89 217.561 184.89C217.766 185.094 218.176 185.606 218.483 185.658L234.56 187.962L236.864 188.269H236.915L237.837 181.101L238.041 179.514C238.093 179.104 238.246 178.694 238.451 178.387C239.577 176.186 240.755 174.035 241.933 171.885C244.493 167.123 246.899 162.157 247.974 156.781C248.23 155.501 248.384 154.221 248.435 152.941C248.486 152.173 248.435 151.456 248.179 150.739C247.821 150.022 247.257 149.408 246.592 148.947C246.233 148.691 245.824 148.589 245.363 148.691C244.185 148.947 243.161 150.022 242.342 150.842C241.728 151.456 241.165 152.07 240.653 152.736L242.035 154.067C242.752 152.634 243.417 151.2 243.929 149.715C244.39 148.538 244.697 147.36 244.902 146.131C245.107 145.21 245.056 144.186 244.697 143.264C244.39 142.701 243.981 142.189 243.469 141.83C243.161 141.523 242.752 141.267 242.342 141.114C241.625 141.011 240.909 141.421 240.345 141.83C238.553 143.162 237.171 145.158 235.891 147.002C234.969 148.384 234.099 149.766 233.28 151.2L234.662 152.531C235.43 150.33 235.942 148.026 236.147 145.722C236.249 144.442 236.249 143.008 235.43 141.933C234.867 141.216 233.689 139.834 232.614 140.243C231.846 140.55 231.283 141.37 230.873 142.035C230.157 143.162 229.491 144.339 228.979 145.568C227.648 148.435 226.521 151.405 225.446 154.374C224.781 156.166 224.166 158.01 223.603 159.853L224.985 161.133C224.166 159.187 222.937 157.395 221.35 155.962C220.224 154.784 218.841 153.914 217.305 153.35C216.281 153.043 215.053 153.094 214.643 154.221C214.233 155.347 214.489 156.73 214.797 157.856C215.206 159.494 216.025 160.979 216.64 162.618C217.357 164.666 217.715 166.765 217.766 168.915C217.817 171.066 217.408 173.216 217.254 175.366C216.998 178.387 216.947 181.408 216.998 184.48C216.998 184.736 217.613 185.197 217.766 185.35C218.022 185.35 218.585 185.76 218.585 185.606Z" fill="#1E1B4B"/>
<path d="M231.744 158.266C232.358 156.73 233.075 155.245 233.894 153.811C234.458 152.685 235.072 151.558 235.686 150.432C235.738 150.381 233.997 149.562 233.894 149.766C232.563 152.224 231.181 154.733 230.106 157.344C230.054 157.446 230.003 157.549 230.003 157.651C230.003 157.754 231.693 158.419 231.744 158.266Z" fill="#1E1B4B"/>
<path d="M241.37 152.378C239.782 154.886 238.298 157.395 236.864 160.006C236.762 160.262 236.813 160.57 237.018 160.826C237.069 160.928 237.427 161.338 237.53 161.082C238.912 158.47 240.397 155.91 242.035 153.453C242.24 153.043 241.574 152.019 241.37 152.378Z" fill="#1E1B4B"/>
<path d="M227.546 166.714C227.392 165.894 227.187 165.075 226.931 164.256C226.522 162.822 225.958 161.389 225.293 160.006C224.832 159.085 223.142 159.955 223.552 160.877C223.859 161.542 224.166 162.208 224.422 162.925C224.678 163.539 224.883 164.256 225.088 164.819C225.344 165.587 225.549 166.355 225.702 167.174C225.856 168.25 227.648 167.686 227.546 166.714Z" fill="#1E1B4B"/>
<path d="M175.526 197.28C175.526 197.28 207.782 237.984 222.016 235.68C236.249 233.376 237.273 182.432 237.273 182.432L216.333 180.384L212.441 197.178C212.441 197.178 180.39 162.259 175.475 171.066C170.56 179.872 175.526 197.28 175.526 197.28Z" fill="#1E1B4B"/>
<path d="M220.736 235.987C214.694 235.987 205.427 229.792 193.241 217.504C183.513 207.725 175.373 197.536 175.321 197.434L175.27 197.331C175.065 196.614 170.304 179.667 175.219 170.912C175.68 170.042 176.55 169.478 177.523 169.376C181.209 168.966 188.224 173.472 198.413 182.79C205.017 188.832 210.854 195.078 212.288 196.563L216.128 180.026L237.529 182.125V182.381C237.273 191.034 236.505 199.635 235.225 208.186C232.512 225.594 228.057 234.912 222.067 235.885C221.606 235.987 221.145 235.987 220.736 235.987ZM175.731 197.178C176.909 198.662 208.243 237.677 221.913 235.424C235.277 233.222 236.813 186.426 236.966 182.637L216.486 180.589L212.544 197.69L212.237 197.331C211.981 197.075 186.073 168.915 177.625 169.888C176.806 169.939 176.089 170.451 175.68 171.168C170.969 179.514 175.475 196.154 175.731 197.178Z" fill="#1E1B4B"/>
<path d="M151.104 155.552C151.104 155.552 140.762 157.037 139.328 152.787C137.894 148.538 144.397 149.869 144.397 149.869C144.397 149.869 137.229 140.96 147.776 139.987C147.776 139.987 139.43 133.075 146.598 127.443C153.766 121.811 167.13 126.419 167.13 126.419C167.13 126.419 167.232 117.152 177.83 118.893C188.429 120.634 185.51 126.061 185.51 126.061C185.51 126.061 192.269 127.085 192.32 130.31C192.371 133.536 187.149 134.509 187.149 134.509C187.149 134.509 184.742 143.52 175.578 141.677L166.054 152.634C166.054 152.634 169.024 156.986 165.338 161.082C161.651 165.178 150.336 161.44 151.104 155.552Z" fill="#1E1B4B"/>
<path d="M151.104 154.63H150.95H150.745H150.643C150.336 154.682 150.899 154.63 150.643 154.63C150.08 154.682 149.465 154.733 148.851 154.733C147.213 154.835 145.625 154.733 144.038 154.477C142.758 154.221 141.222 153.709 140.659 152.582C140.505 152.275 140.403 151.917 140.352 151.558C140.352 151.507 140.352 151.098 140.352 151.2C140.352 151.149 140.403 151.098 140.403 151.046C140.403 150.995 140.454 150.944 140.454 150.893C140.403 150.995 140.403 150.995 140.454 150.893C140.505 150.79 140.557 150.688 140.403 150.944C140.454 150.893 140.505 150.842 140.557 150.79C140.403 150.995 140.659 150.739 140.557 150.79C140.608 150.739 140.659 150.739 140.71 150.688C139.737 150.893 138.816 150.278 138.611 149.306C138.406 148.333 139.021 147.411 139.993 147.206C140.966 147.002 141.888 147.616 142.093 148.589C142.297 149.459 141.734 150.381 140.864 150.637C140.505 150.739 141.069 150.586 141.171 150.586H141.376C141.581 150.534 141.171 150.586 141.529 150.586H141.99C142.349 150.586 142.707 150.586 143.065 150.637C143.117 150.637 143.27 150.688 143.014 150.637L143.27 150.688L143.577 150.739L143.885 150.79C144.653 150.944 146.291 150.125 145.523 149.152C145.318 148.896 145.113 148.64 144.96 148.333C145.113 148.538 144.857 148.179 144.806 148.077C144.704 147.923 144.601 147.718 144.499 147.565C144.294 147.206 144.141 146.848 143.936 146.49C143.577 145.722 143.373 144.902 143.321 144.083C143.27 143.725 143.321 143.366 143.424 143.008C143.475 142.906 143.475 142.803 143.526 142.701C143.475 142.906 143.577 142.65 143.577 142.598C143.577 142.547 143.68 142.445 143.731 142.342C143.782 142.24 143.885 142.189 143.731 142.342C143.782 142.291 143.833 142.24 143.833 142.189C143.885 142.138 144.141 141.882 144.089 141.933C144.038 141.984 144.294 141.779 144.345 141.728L144.499 141.626C144.806 141.421 144.345 141.677 144.55 141.574C144.755 141.472 144.909 141.421 145.062 141.318C145.83 141.062 146.649 140.858 147.417 140.806C147.929 140.806 148.39 140.602 148.697 140.192C148.902 139.936 149.107 139.424 148.749 139.168C145.933 136.813 143.27 132.41 146.035 129.082C147.929 126.778 150.848 125.856 153.766 125.549C156.531 125.344 159.245 125.498 161.958 126.061C163.494 126.317 165.03 126.726 166.515 127.187C167.232 127.443 168.358 126.778 168.358 126.01C168.358 125.754 168.409 125.549 168.409 125.293C168.409 125.037 168.358 125.446 168.409 125.139C168.461 124.986 168.461 124.832 168.512 124.678C168.563 124.371 168.665 124.013 168.768 123.706C168.819 123.552 168.87 123.398 168.973 123.245C169.075 123.091 169.024 123.04 169.075 122.989C169.126 122.938 169.126 122.938 169.126 122.886C169.075 123.04 169.177 122.784 169.126 122.886C169.331 122.528 169.536 122.17 169.792 121.811C169.792 121.76 169.997 121.504 169.945 121.606C169.894 121.709 170.048 121.504 170.099 121.453C170.253 121.299 170.457 121.094 170.611 120.941C170.662 120.89 170.918 120.685 170.713 120.838L170.969 120.634L171.277 120.429L171.533 120.275L171.789 120.173L172.198 120.019L172.608 119.866C172.403 119.917 172.761 119.814 172.813 119.814C173.427 119.661 174.041 119.558 174.707 119.558C176.448 119.558 178.189 119.814 179.827 120.326C181.056 120.634 182.182 121.197 183.206 121.914C183.821 122.374 184.281 122.989 184.486 123.757C184.486 123.859 184.537 123.962 184.537 124.013C184.537 124.064 184.537 123.859 184.537 124.115C184.537 124.371 184.589 124.422 184.589 124.627C184.589 124.781 184.589 124.934 184.589 125.088C184.589 125.395 184.64 124.986 184.537 125.293C184.486 125.498 184.435 125.651 184.384 125.856C184.281 126.112 184.333 125.958 184.384 125.856C184.128 126.317 184.23 126.931 184.845 127.034C186.585 127.238 188.224 127.802 189.709 128.723C190.528 129.235 191.193 130.003 190.989 130.976C190.886 131.437 190.681 131.846 190.323 132.154C189.965 132.461 189.555 132.717 189.145 132.922C188.889 133.024 188.582 133.178 188.326 133.28L187.917 133.382C187.712 133.434 188.121 133.331 187.814 133.434C187.558 133.485 187.353 133.587 187.097 133.638C186.585 133.741 186.125 134.099 185.92 134.56C185.817 134.918 185.715 135.226 185.561 135.533C185.51 135.686 185.408 135.84 185.357 135.994C185.305 136.147 185.459 135.84 185.305 136.045L185.152 136.352C184.947 136.762 184.691 137.171 184.435 137.581C183.872 138.4 183.155 139.168 182.336 139.731C181.414 140.397 180.288 140.806 179.11 140.909C178.291 141.011 177.523 140.96 176.704 140.858C175.885 140.755 175.168 140.602 174.553 141.267C174.144 141.677 173.785 142.138 173.376 142.598L168.563 148.128L165.03 152.173C164.672 152.48 164.621 152.941 164.877 153.35C164.621 152.941 164.877 153.35 164.928 153.453C165.081 153.709 165.184 153.965 165.286 154.272C165.645 155.091 165.798 156.013 165.798 156.883C165.747 158.317 165.184 159.75 164.16 160.774L163.904 160.979C163.955 160.928 164.109 160.826 163.904 160.979C163.699 161.133 163.597 161.184 163.443 161.286C163.238 161.389 163.392 161.286 163.443 161.286C163.341 161.338 163.238 161.389 163.136 161.44C162.521 161.696 161.856 161.798 161.19 161.85C160.371 161.901 159.552 161.798 158.733 161.645C157.094 161.338 155.609 160.621 154.278 159.648C152.947 158.522 152.025 157.139 152.23 155.347C152.281 154.733 151.411 154.579 151.001 154.682C150.387 154.784 149.875 155.245 149.773 155.859C149.261 160.006 153.817 162.618 157.248 163.437C159.296 163.949 161.446 163.898 163.443 163.232C165.849 162.31 167.59 160.16 168.051 157.651C168.409 155.654 168 153.658 166.873 151.968L166.72 153.146L175.065 143.571L176.243 142.189L174.758 142.65C177.881 143.264 181.209 142.854 183.769 140.858C185.51 139.526 186.841 137.734 187.661 135.738C187.865 135.328 187.968 134.918 188.121 134.509L186.944 135.43C189.145 135.021 191.859 133.894 192.883 131.795C193.6 130.464 193.344 128.877 192.269 127.853C191.193 126.931 189.913 126.214 188.531 125.856C187.661 125.549 186.79 125.344 185.869 125.19L186.329 126.368C186.79 125.498 186.944 124.525 186.79 123.603C186.381 121.248 184.333 119.866 182.233 119.098C178.905 117.818 174.963 117.203 171.533 118.432C169.28 119.251 167.488 120.941 166.515 123.142C166.003 124.269 165.696 125.498 165.645 126.778L167.488 125.6C163.238 124.218 158.784 123.654 154.381 123.859C150.899 124.166 147.469 125.19 144.857 127.597C143.577 128.723 142.656 130.259 142.349 131.898C142.144 133.28 142.349 134.714 142.912 135.994C143.731 137.837 144.96 139.475 146.496 140.755L147.827 139.117C145.011 139.373 141.222 140.397 140.659 143.674C140.301 145.619 141.171 147.616 142.195 149.254C142.502 149.715 142.809 150.227 143.168 150.637L144.806 148.998C143.629 148.742 142.451 148.691 141.273 148.845C139.533 149.05 137.536 150.176 137.741 152.224C138.15 156.525 143.833 156.883 147.11 156.832C148.39 156.832 149.721 156.73 151.001 156.576C151.565 156.525 152.23 156.013 152.23 155.398C152.23 154.784 151.616 154.579 151.104 154.63Z" fill="#1E1B4B"/>
<path d="M187.609 164.922C193.651 157.139 186.329 136.045 186.329 136.045C178.957 137.376 167.334 129.798 167.334 129.798C170.765 136.762 164.057 149.203 164.057 149.203C161.19 142.957 154.534 143.11 155.046 149.254C155.558 155.398 161.446 155.962 161.446 155.962C161.446 155.962 158.989 170.707 159.603 173.165C160.217 175.622 173.632 183.149 177.421 171.27C177.421 171.219 182.336 171.731 187.609 164.922Z" fill="white"/>
<path d="M188.531 165.792C191.398 162.003 191.347 156.576 190.938 152.07C190.477 147.462 189.555 142.957 188.224 138.554C187.968 137.632 187.661 136.71 187.354 135.789C187.149 135.174 186.534 134.816 185.869 134.918C182.797 135.482 179.52 134.406 176.653 133.331C174.042 132.307 171.584 131.078 169.178 129.696C168.666 129.389 168.205 129.133 167.693 128.774C167.232 128.467 166.618 128.621 166.31 129.082C166.106 129.389 166.106 129.747 166.259 130.054C167.539 132.768 167.232 136.096 166.566 139.014C165.901 141.779 164.979 144.442 163.75 147.002C163.494 147.514 163.29 148.026 162.982 148.538L165.082 148.845C164.006 146.592 162.317 144.493 159.91 143.622C158.17 143.008 156.173 143.264 154.944 144.749C153.51 146.541 153.715 149.357 154.432 151.405C155.098 153.402 156.531 155.04 158.374 156.013C159.398 156.576 160.525 156.934 161.651 157.088L160.32 155.552C159.962 157.651 159.654 159.75 159.347 161.901C158.886 165.024 158.374 168.25 158.374 171.424C158.374 172.448 158.426 173.37 159.04 174.24C159.757 175.162 160.678 175.878 161.651 176.493C164.109 178.08 167.027 178.95 169.946 178.899C171.738 178.848 173.427 178.285 174.861 177.21C176.602 175.827 177.83 173.933 178.445 171.782L177.574 172.346C178.752 172.397 179.93 172.192 181.056 171.68C184.077 170.605 186.534 168.352 188.531 165.792C189.35 164.768 187.558 162.925 186.688 164.102C184.947 166.355 182.694 168.506 180.032 169.53C179.622 169.683 179.213 169.786 178.803 169.888C178.65 169.939 178.445 169.939 178.291 169.99L178.035 170.042C177.779 170.093 178.24 170.042 178.035 170.042C177.779 170.042 177.472 170.042 177.216 170.042C176.806 170.042 176.499 170.246 176.346 170.656C175.834 172.243 174.963 173.933 173.734 174.957C172.71 175.827 171.482 176.339 170.15 176.493C167.642 176.8 164.979 175.981 162.88 174.752C162.675 174.598 162.419 174.496 162.214 174.342L161.907 174.138C161.805 174.086 161.498 173.83 161.754 174.035C161.395 173.779 161.088 173.472 160.781 173.165C160.576 172.96 160.934 173.421 160.781 173.165C160.73 173.114 160.678 173.062 160.678 173.011C160.474 172.755 160.73 173.165 160.73 173.062C160.627 172.858 160.781 172.909 160.73 173.165C160.73 173.011 160.678 172.858 160.678 172.704C160.678 172.602 160.678 172.294 160.678 172.653C160.678 172.499 160.678 172.397 160.678 172.243C160.678 169.222 161.139 166.202 161.549 163.283C161.856 160.979 162.214 158.675 162.624 156.371C162.675 155.603 162.112 154.938 161.293 154.835H161.139C161.088 154.835 161.498 154.886 161.242 154.835L160.934 154.784C160.474 154.682 160.064 154.528 159.603 154.374C159.296 154.272 159.757 154.426 159.552 154.374L159.347 154.272C159.245 154.221 159.091 154.17 158.989 154.067C158.886 153.965 158.682 153.914 158.579 153.811L158.323 153.658C158.118 153.504 158.426 153.76 158.221 153.555C157.965 153.35 157.709 153.094 157.453 152.838C157.402 152.787 157.248 152.582 157.402 152.787L157.248 152.48C157.094 152.275 156.992 152.122 156.89 151.917C156.07 150.432 155.917 148.742 156.429 147.104C156.838 146.131 157.914 145.568 158.989 145.773C159.808 145.926 160.525 146.285 161.139 146.848C161.958 147.565 162.573 148.435 163.034 149.408C163.443 150.278 164.57 150.739 165.133 149.715C165.952 148.179 166.618 146.592 167.232 144.954C168.41 141.779 169.382 138.4 169.434 134.97C169.536 133.024 169.126 131.13 168.358 129.338L166.976 130.669C168.41 131.59 169.946 132.461 171.482 133.229C174.502 134.867 177.779 136.096 181.158 136.864C183.053 137.274 184.947 137.376 186.842 137.069L185.357 136.198C185.613 136.915 185.818 137.581 186.022 138.298C186.125 138.656 186.227 139.014 186.33 139.373C186.381 139.578 186.432 139.782 186.483 139.936C186.483 139.987 186.483 139.987 186.483 140.038C186.534 140.141 186.534 140.294 186.586 140.397C186.842 141.37 187.098 142.342 187.302 143.366C188.378 147.974 189.197 152.838 188.787 157.549C188.582 159.802 188.07 162.157 186.688 163.898C185.869 165.126 187.661 166.918 188.531 165.792Z" fill="#1E1B4B"/>
<path d="M174.605 157.856C174.605 157.856 184.435 168.813 191.296 164.666C198.157 160.518 192.422 151.046 182.08 150.637" fill="white"/>
<path d="M173.785 157.446C175.117 158.88 176.55 160.262 178.137 161.491C180.749 163.59 183.718 165.587 186.995 166.253C189.913 166.867 193.241 165.792 194.675 163.078C196.006 160.518 194.777 157.549 193.037 155.552C190.016 152.122 185.715 150.074 181.158 149.869C180.851 149.869 181.619 150.637 181.67 150.688C181.977 150.995 182.541 151.507 183.001 151.558C184.793 151.61 186.585 152.019 188.275 152.685C188.941 152.941 189.606 153.299 190.221 153.709C190.681 153.965 191.04 154.323 191.398 154.733C192.934 156.474 193.805 159.034 192.832 161.286C191.705 163.795 188.838 165.075 186.227 164.87C183.513 164.614 180.953 163.13 178.905 161.542L178.598 161.286C178.445 161.184 178.291 161.03 178.137 160.928L177.779 160.621C177.984 160.774 177.574 160.467 177.574 160.416C177.318 160.211 177.113 160.006 176.909 159.802L176.601 159.494C176.397 159.29 176.704 159.597 176.448 159.392C176.192 159.187 175.885 158.829 175.629 158.573C175.526 158.47 175.168 158.061 175.475 158.419C175.065 157.958 174.605 157.549 174.041 157.293C173.632 157.037 173.427 157.088 173.785 157.446Z" fill="#1E1B4B"/>
<path d="M166.771 154.426C166.771 154.426 166.208 158.47 171.174 159.392L166.771 154.426Z" fill="white"/>
<path d="M166.003 153.914C165.798 155.962 166.72 157.958 168.409 159.136C169.28 159.699 170.304 160.109 171.328 160.262C171.789 160.365 171.942 159.802 171.84 159.494C171.737 159.034 171.379 158.675 170.918 158.522L170.56 158.47H170.509L170.355 158.419C170.15 158.368 169.945 158.317 169.792 158.214C169.638 158.112 169.433 158.061 169.28 158.01C169.229 158.01 169.229 157.958 169.177 157.958C169.28 158.061 169.28 158.01 169.229 157.958C169.177 157.907 169.075 157.856 168.973 157.805C168.819 157.702 168.717 157.651 168.563 157.549C168.358 157.395 168.665 157.651 168.563 157.549L168.358 157.395C168.256 157.293 168.153 157.19 168.051 157.088C168.051 157.088 168.205 157.293 168.102 157.19L168.051 157.139L167.949 156.934C167.897 156.883 167.897 156.832 167.846 156.781C167.795 156.678 167.744 156.525 167.846 156.832C167.795 156.73 167.744 156.627 167.693 156.525C167.641 156.422 167.641 156.32 167.59 156.218C167.59 156.218 167.641 156.474 167.641 156.32V156.269C167.641 156.218 167.59 156.166 167.59 156.115C167.539 155.91 167.539 155.757 167.488 155.552C167.488 155.45 167.539 155.808 167.488 155.603C167.488 155.552 167.488 155.501 167.488 155.501C167.488 155.501 167.488 155.347 167.488 155.296C167.488 155.245 167.488 155.04 167.488 154.938C167.488 154.835 167.488 154.784 167.488 154.989C167.539 154.528 167.334 154.016 166.925 153.76C166.669 153.555 166.105 153.453 166.003 153.914Z" fill="#1E1B4B"/>
<path d="M173.53 145.875C173.376 146.438 173.683 147.002 174.246 147.155C174.298 147.155 174.349 147.155 174.4 147.206C175.526 147.36 175.731 145.978 174.81 145.517C174.4 145.261 173.837 145.363 173.581 145.773C173.581 145.824 173.581 145.875 173.53 145.875Z" fill="#1E1B4B"/>
<path d="M180.032 146.285C179.878 146.848 180.134 147.411 180.698 147.565C180.749 147.565 180.851 147.616 180.902 147.616C182.029 147.77 182.234 146.387 181.312 145.926C180.902 145.67 180.339 145.773 180.083 146.182C180.083 146.182 180.083 146.234 180.032 146.285Z" fill="#1E1B4B"/>
<path d="M247.36 137.581C263.648 137.581 276.851 125.156 276.851 109.83C276.851 94.5042 263.648 82.08 247.36 82.08C231.073 82.08 217.869 94.5042 217.869 109.83C217.869 125.156 231.073 137.581 247.36 137.581Z" fill="#1E1B4B"/>
<path d="M234.611 109.37C234.611 109.37 230.003 96.5696 240.807 91.6544C251.61 86.7392 265.792 95.0848 266.663 109.37C267.533 123.654 250.125 125.549 250.125 125.549L234.611 109.37Z" fill="white"/>
<path d="M235.891 109.165C234.662 105.734 234.458 101.485 235.738 98.0544C236.864 95.0336 239.27 92.6784 242.291 91.6032C243.571 91.0912 245.005 90.784 246.387 90.7328C247.923 90.6816 249.51 90.8864 250.995 91.296C257.754 93.1392 263.027 98.72 264.768 105.427C265.638 108.704 265.843 112.288 264.563 115.514C263.539 117.971 261.85 120.07 259.648 121.555C259.187 121.862 258.675 122.17 258.163 122.477C257.651 122.733 257.088 123.04 256.73 123.194C256.218 123.45 255.706 123.654 255.194 123.808L254.835 123.962L254.682 124.013C254.426 124.115 254.17 124.166 253.914 124.269C253.453 124.422 253.043 124.525 252.582 124.627L252.275 124.678C251.968 124.781 252.429 124.627 252.275 124.678L251.712 124.781C251.405 124.832 251.149 124.883 250.842 124.934L250.534 124.986H250.586H250.432L251.354 125.139L246.131 119.712L237.786 111.008L235.84 109.011C235.379 108.499 233.075 109.267 233.434 109.677L246.182 122.938L248.64 125.498C248.794 125.651 248.947 125.805 249.101 125.907C249.562 126.01 250.074 126.01 250.534 125.907C252.992 125.549 255.45 124.832 257.702 123.859C261.133 122.374 264.358 120.173 266.253 116.845C268.71 112.544 268.25 107.168 266.509 102.714C264.666 98.0032 261.133 94.112 256.627 91.808C252.122 89.5552 246.95 89.0944 242.138 90.5792C239.629 91.296 237.325 92.6272 235.482 94.5216C234.048 96.1088 233.075 98.0032 232.666 100.102C232.102 103.072 232.256 106.144 233.126 109.062C233.178 109.216 233.229 109.421 233.28 109.574C233.587 110.291 236.045 109.626 235.891 109.165Z" fill="#1E1B4B"/>
<path d="M235.021 121.043C230.976 116.128 234.611 98.3616 234.611 98.3616C237.479 93.8048 252.531 96.5696 252.531 96.5696C250.432 101.126 251.149 108.602 251.149 108.602C252.89 104.506 257.651 106.246 257.447 110.24C257.242 114.234 252.531 115.411 252.531 115.411C252.531 115.411 253.863 123.859 253.504 125.446C253.146 127.034 245.722 129.338 241.779 124.832C241.728 124.883 238.554 125.344 235.021 121.043Z" fill="white"/>
<path d="M235.533 120.582C235.789 120.89 235.482 120.48 235.431 120.429L235.328 120.275C235.175 120.019 235.379 120.429 235.328 120.275C235.175 119.968 235.072 119.712 234.919 119.405C234.919 119.354 234.867 119.251 234.816 119.046C234.765 118.842 234.714 118.739 234.663 118.534C234.56 118.176 234.509 117.818 234.407 117.408C234.151 115.718 234.048 113.978 234.099 112.288C234.151 108.909 234.458 105.53 235.021 102.202C235.175 101.178 235.277 100.512 235.482 99.5904C235.635 98.8736 236.199 98.464 236.864 98.1056C238.144 97.4912 239.578 97.0816 240.96 97.0304C242.599 96.8768 244.288 96.8256 245.927 96.928C248.282 97.0304 250.637 97.2864 252.941 97.696L251.507 95.8528C250.432 98.3104 250.125 101.075 250.023 103.686C249.971 105.171 249.971 106.605 250.125 108.09C250.176 108.653 250.535 109.165 250.995 109.472C251.303 109.677 251.866 109.933 252.071 109.472C252.531 108.448 253.351 107.475 254.579 107.373C254.989 107.322 255.399 107.424 255.757 107.68C255.603 107.578 255.859 107.731 255.911 107.782C256.115 107.936 255.859 107.731 256.013 107.885C256.167 108.038 256.013 107.834 256.115 108.038C256.167 108.141 256.218 108.243 256.269 108.346C257.139 110.598 255.296 112.8 253.453 113.773C252.941 114.08 252.378 114.285 251.815 114.438C251.507 114.541 251.507 114.848 251.559 115.155C251.815 116.64 252.019 118.125 252.173 119.558C252.327 120.634 252.429 121.76 252.531 122.835C252.583 123.296 252.583 123.706 252.583 124.166C252.583 124.32 252.583 124.474 252.583 124.678C252.583 124.73 252.583 124.781 252.583 124.883C252.583 124.832 252.634 124.73 252.583 124.883C252.48 125.037 252.583 124.934 252.429 125.088C252.327 125.19 252.173 125.293 252.071 125.395C251.763 125.6 251.405 125.805 251.047 125.907C250.023 126.317 248.947 126.522 247.872 126.522C246.592 126.573 245.363 126.368 244.186 125.856C243.674 125.6 243.162 125.293 242.752 124.883C242.24 124.422 241.933 123.962 241.165 123.91C241.319 123.91 241.319 123.91 241.114 123.91C240.909 123.91 240.807 123.91 240.704 123.859C240.295 123.808 239.885 123.706 239.527 123.552C237.991 122.938 236.711 121.862 235.687 120.582C235.431 120.275 234.714 119.763 234.304 120.07C233.895 120.378 234.407 121.197 234.663 121.504C236.096 123.245 237.888 124.832 240.039 125.6C240.858 125.907 241.728 126.061 242.599 126.01L241.216 125.344C244.186 128.57 248.896 129.491 252.89 127.648C253.453 127.443 253.965 127.034 254.323 126.522C254.528 126.061 254.579 125.549 254.528 125.037C254.477 123.245 254.272 121.453 254.016 119.712C253.863 118.381 253.658 117.05 253.453 115.77L253.197 116.486C255.143 115.974 257.088 114.643 257.959 112.8C259.341 109.83 257.447 105.683 254.016 105.222C252.224 105.018 250.842 106.246 250.176 107.782L252.122 109.165C252.019 107.782 251.968 106.349 252.019 104.966C252.122 102.406 252.378 99.744 253.453 97.3376C253.811 96.5696 252.685 95.5968 252.019 95.4944C249.971 95.136 247.872 94.88 245.773 94.7776C244.032 94.6752 242.24 94.6752 240.499 94.7776C238.912 94.8288 237.325 95.1872 235.84 95.7504C235.021 96.1088 233.843 96.7744 233.587 97.696C233.383 98.5152 233.229 99.3344 233.127 100.205C232.563 103.584 232.205 107.014 232.103 110.445C232 114.131 232.051 118.534 234.509 121.504C234.765 121.811 235.482 122.323 235.891 122.016C236.301 121.709 235.789 120.838 235.533 120.582Z" fill="#1E1B4B"/>
<path d="M239.629 113.158C239.629 113.158 230.157 114.131 228.672 109.165C227.187 104.198 234.048 102.15 239.168 106.451" fill="white"/>
<path d="M240.448 112.442C237.991 112.698 235.482 112.442 233.127 111.674C231.539 111.11 230.106 110.035 229.645 108.346C229.389 107.475 229.44 106.554 229.85 105.683C229.952 105.53 230.055 105.376 230.157 105.222C230.311 105.069 230.157 105.222 230.311 105.069C230.464 104.915 230.208 105.069 230.413 104.966C230.362 105.018 230.106 105.222 230.311 105.018C230.106 105.171 230.259 105.069 230.311 105.018C230.106 105.171 230.413 104.966 230.311 105.018C230.464 104.966 230.618 104.915 230.771 104.864C233.331 104.198 236.147 105.376 238.093 107.014C238.605 107.424 240.448 105.786 240.295 105.683C238.298 104.045 235.635 102.97 233.024 103.379C231.744 103.584 230.515 104.147 229.44 104.915C228.519 105.53 227.802 106.4 227.495 107.475C226.983 109.421 228.058 111.315 229.696 112.339C231.335 113.261 233.229 113.773 235.072 113.824C236.301 113.926 237.53 113.926 238.759 113.824C239.322 113.67 239.885 113.414 240.295 113.005C240.448 112.902 241.011 112.39 240.448 112.442Z" fill="#1E1B4B"/>
<path d="M246.182 114.387C246.131 114.848 246.029 115.36 245.773 115.77V115.718C245.619 116.077 245.414 116.435 245.107 116.742C244.954 116.896 244.8 117.05 244.646 117.203L244.39 117.357L244.339 117.408H244.288H244.237L244.134 117.459C244.134 117.459 243.878 117.562 243.878 117.664C243.878 117.766 244.186 117.664 244.186 117.664C244.646 117.613 245.056 117.459 245.466 117.254C246.234 116.896 246.899 116.333 247.309 115.616C247.565 115.155 247.77 114.643 247.872 114.131C247.872 114.029 247.923 113.926 247.923 113.824C247.923 113.722 247.053 113.926 246.95 113.978C246.746 114.029 246.541 114.131 246.336 114.234C246.336 114.182 246.131 114.234 246.182 114.387Z" fill="#1E1B4B"/>
<path d="M239.578 103.482C239.987 103.584 240.243 104.045 240.141 104.454C240.141 104.506 240.141 104.557 240.09 104.557C239.731 105.376 238.759 104.915 238.81 104.147C238.81 103.789 239.066 103.482 239.475 103.482C239.527 103.482 239.527 103.482 239.578 103.482Z" fill="#1E1B4B"/>
<path d="M245.363 103.942C245.773 104.045 246.029 104.506 245.926 104.915C245.926 104.966 245.926 104.966 245.875 105.018C245.517 105.837 244.544 105.376 244.595 104.608C244.595 104.25 244.851 103.942 245.21 103.942C245.312 103.942 245.312 103.942 245.363 103.942Z" fill="#1E1B4B"/>
<path d="M234.867 134.611C234.97 134.458 235.072 134.15 235.123 134.048C235.175 133.946 235.328 133.69 235.379 133.587C235.584 133.178 235.84 132.819 236.096 132.461C236.352 132.102 236.608 131.744 236.864 131.386C237.018 131.232 237.12 131.078 237.274 130.874C237.325 130.822 237.479 130.669 237.325 130.771L237.581 130.464C238.195 129.85 238.81 129.235 239.475 128.672C239.68 128.518 239.834 128.365 240.039 128.262C240.295 128.058 240.346 128.058 240.192 128.16L240.346 128.058C240.755 127.802 241.114 127.546 241.523 127.29C242.087 127.136 242.445 126.522 242.24 125.958C242.087 125.395 241.472 125.037 240.909 125.242C240.755 125.293 240.602 125.344 240.499 125.446C237.018 127.494 234.202 130.515 232.461 134.202C232.256 134.714 232.512 135.277 232.973 135.482C233.024 135.533 233.127 135.533 233.178 135.533C233.997 135.584 234.611 135.226 234.867 134.611Z" fill="white"/>
<path d="M253.863 125.702C257.549 126.317 260.723 128.467 262.669 131.642C262.925 132 263.898 131.949 264.256 131.949C264.41 131.949 265.383 131.898 265.178 131.539C262.925 128.058 259.29 125.702 255.194 125.139C254.631 124.986 254.016 125.037 253.453 125.242C252.992 125.498 253.658 125.702 253.863 125.702Z" fill="white"/>
<path d="M88.6401 123.091C104.928 123.091 118.131 110.69 118.131 95.3919C118.131 80.0941 104.928 67.6927 88.6401 67.6927C72.3526 67.6927 59.1489 80.0941 59.1489 95.3919C59.1489 110.69 72.3526 123.091 88.6401 123.091Z" fill="white"/>
<path d="M116.902 95.392C116.851 100.973 115.008 106.4 111.629 110.854C108.25 115.258 103.59 118.637 98.3169 120.429C92.6849 122.374 86.5921 122.579 80.8577 121.043C75.4305 119.61 70.5665 116.64 66.8801 112.442C63.2449 108.294 60.9921 103.072 60.5313 97.5424C60.0705 91.9104 61.5041 86.3296 64.5249 81.6192C67.5969 76.9088 71.9489 73.2736 77.1201 71.072C82.5473 68.768 88.4865 68.1536 94.2721 69.2288C99.8529 70.2528 105.024 72.9664 109.069 76.9088C113.011 80.7488 115.622 85.7664 116.544 91.1424C116.749 92.576 116.902 94.0096 116.902 95.392C116.902 96.7232 119.411 96.8768 119.411 95.392C119.36 89.4016 117.363 83.5648 113.728 78.8032C109.99 73.9392 104.922 70.304 99.0849 68.3584C92.9921 66.2592 86.3873 66.0544 80.1409 67.6928C74.2529 69.2288 68.9281 72.4544 64.8833 77.0112C56.5889 86.2272 55.5137 99.8464 62.2721 110.24C65.6001 115.309 70.3105 119.251 75.8913 121.555C81.8817 124.064 88.4353 124.781 94.8353 123.603C100.877 122.477 106.509 119.61 110.912 115.309C115.162 111.162 118.029 105.734 119.053 99.8976C119.309 98.4128 119.411 96.928 119.411 95.392C119.411 94.0608 116.902 93.9072 116.902 95.392Z" fill="#1E1B4B"/>
<path d="M100.723 79.8272C100.723 79.8272 97.5488 74.2976 87.616 75.168C77.6832 76.0384 73.6896 86.3808 75.2256 96.4672C76.7616 106.554 80.7552 109.37 80.7552 109.37C80.7552 109.37 75.3792 115.053 76.2496 116.077C77.12 117.101 90.3296 120.582 97.1904 117.92C104.051 115.258 100.723 107.117 100.723 107.117V79.8272Z" fill="#1E1B4B"/>
<path d="M101.594 79.5199C100.518 77.6767 98.4192 76.3455 96.5248 75.5775C94.2208 74.6559 91.7632 74.2463 89.2544 74.3487C86.6944 74.3487 84.1856 74.9631 81.9328 76.1407C77.8368 78.3935 75.4816 82.7455 74.5088 87.1999C73.3824 92.3711 74.048 98.0031 75.7888 102.97C76.4032 104.864 77.3248 106.656 78.5024 108.294C78.912 108.909 79.424 109.472 79.9872 109.882V108.96C79.2704 109.677 78.6048 110.445 77.9904 111.213C77.0688 112.339 75.9936 113.568 75.4304 114.899C75.1744 115.36 75.1232 115.923 75.3792 116.384C75.6352 116.691 75.9936 116.947 76.352 117.05C77.632 117.562 78.9632 117.971 80.3456 118.278C84.3904 119.302 88.5888 119.712 92.7872 119.507C96.5248 119.251 100.723 117.971 102.054 114.08C102.874 111.725 102.515 108.96 101.594 106.707L101.645 107.117V79.8783C101.645 78.8031 99.7504 78.8543 99.7504 79.8271V105.069C99.7504 105.888 99.5968 106.861 99.904 107.68C99.8016 107.424 99.9552 107.834 99.9552 107.885C100.006 108.09 100.058 108.243 100.109 108.448C100.211 108.909 100.314 109.421 100.416 109.882C100.621 111.11 100.57 112.339 100.262 113.517C99.392 116.742 96.064 117.715 93.0944 118.022C89.5616 118.381 85.8752 117.92 82.3936 117.203C81.0112 116.896 79.68 116.538 78.3488 116.128C77.9904 116.026 77.632 115.872 77.2736 115.718C77.1712 115.667 77.0688 115.565 76.9152 115.514C77.12 115.616 77.0176 115.616 76.9664 115.514C77.12 115.77 77.0688 115.616 77.0176 115.565C77.0176 115.616 77.12 115.821 77.0176 115.565C77.0176 115.514 76.9664 115.77 77.0176 115.616C77.0176 115.565 77.0176 115.514 77.0176 115.514C77.0176 115.514 77.0176 115.514 77.0688 115.36C77.1712 115.104 77.2736 114.899 77.4272 114.643C77.7344 114.131 78.0928 113.619 78.5024 113.107C79.2704 112.083 80.0896 111.162 80.96 110.24L81.4208 109.728C81.6768 109.472 81.6768 109.062 81.4208 108.806C81.0624 108.499 80.704 108.141 80.3968 107.782C80.0384 107.373 79.7312 106.912 79.424 106.451C79.0144 105.786 78.656 105.069 78.2976 104.301C77.2736 101.997 76.608 99.5391 76.1984 97.0303C75.7888 94.6239 75.6864 92.1663 75.9424 89.7087C76.4032 85.5615 77.9392 81.1071 81.3184 78.3935C84.8512 75.5775 90.0224 75.2191 94.272 76.4991C95.8592 76.9599 97.2928 77.7791 98.5728 78.8543C98.7776 79.0591 98.9824 79.2127 99.1872 79.4175L99.392 79.6735L99.4944 79.7759C99.392 79.6735 99.648 79.9295 99.4944 79.7759C99.5968 79.9295 99.6992 80.0831 99.8016 80.2367C100.314 81.0047 102.106 80.3903 101.594 79.5199Z" fill="#1E1B4B"/>
<path d="M99.6482 79.7247C101.645 83.4111 102.976 86.3295 104.103 88.3775C104.973 90.0159 106.816 90.3743 107.943 90.5279C113.011 91.1423 113.984 92.6271 112.448 93.4975C110.656 94.5215 105.895 95.2895 105.895 95.2895C105.895 95.2895 108.403 102.765 100.672 107.066C100.672 107.066 97.3442 109.165 91.5074 103.174C87.309 98.8223 87.821 89.9647 87.821 89.9647C87.821 89.9647 95.1938 81.1583 99.6482 79.7247Z" fill="white"/>
<path d="M98.6754 80.2368C99.9042 82.5408 101.082 84.8448 102.259 87.2C102.669 88.1728 103.232 89.0944 103.898 89.9136C104.666 90.7328 105.69 91.296 106.816 91.5008C107.943 91.7568 109.12 91.808 110.247 92.1152C110.656 92.2176 111.066 92.3712 111.475 92.5248C111.731 92.6272 111.987 92.7296 112.192 92.9344C111.936 92.7296 112.09 92.832 112.141 92.8832C112.192 92.9344 112.243 93.088 112.09 92.7808C112.039 92.6784 112.039 92.576 112.039 92.4736C112.039 92.576 112.09 92.1664 112.09 92.2688C112.09 92.3712 111.936 92.3712 112.141 92.1664C112.09 92.2176 112.039 92.2688 111.987 92.32C111.834 92.3712 111.987 92.32 112.039 92.2688C111.987 92.32 111.936 92.3712 111.834 92.3712C111.68 92.4736 111.527 92.5248 111.373 92.6272C110.963 92.7808 110.554 92.9344 110.144 93.088C108.659 93.5488 107.123 93.856 105.587 94.112C104.973 94.2656 104.615 94.88 104.768 95.4944V95.5456C104.871 95.9552 104.973 96.3648 105.024 96.7744C104.973 96.416 105.024 96.7744 105.024 96.8256L105.075 97.184C105.075 97.44 105.127 97.696 105.127 97.952C105.127 98.464 105.127 98.976 105.024 99.488C104.461 102.304 102.618 104.762 100.058 106.042C100.007 106.042 99.9554 106.093 99.9042 106.093C99.6994 106.195 100.211 106.042 99.853 106.093C99.6994 106.144 99.597 106.144 99.4434 106.195L99.1874 106.246C98.8802 106.298 99.341 106.246 99.085 106.246C98.0098 106.195 96.9346 105.888 95.9618 105.325C94.221 104.352 92.7362 103.021 91.5586 101.434C90.6882 100.102 90.0226 98.6176 89.7154 97.0304C89.1522 94.7776 88.8962 92.4224 89.0498 90.0672L88.7426 90.8864C91.2002 87.8656 93.965 85.1008 97.037 82.6944C97.549 82.2848 98.061 81.9264 98.6242 81.6192C98.8802 81.4656 99.1362 81.312 99.3922 81.2096L99.8018 81.0048L99.9554 80.9536C100.16 80.9024 99.6994 81.0048 100.007 80.9024C100.621 80.7488 100.979 80.0832 100.826 79.4688C100.672 78.9056 100.007 78.24 99.3922 78.4448C97.1906 79.1616 95.2962 80.6976 93.6066 82.2336C91.917 83.7696 90.2786 85.3568 88.7426 87.0976C88.2818 87.6096 87.821 88.1216 87.3602 88.6336C87.0018 88.9408 86.797 89.4016 86.7458 89.8624C86.6946 91.296 86.7458 92.6784 86.9506 94.112C87.2066 96.7744 87.9234 99.3344 89.1522 101.69C90.7394 104.352 93.0434 106.451 95.8082 107.834C97.1906 108.55 98.9826 109.011 100.519 108.55C100.826 108.448 101.082 108.346 101.389 108.243C102.669 107.578 103.847 106.656 104.768 105.581C107.226 102.867 108.25 98.6176 107.072 95.0848L106.304 96.5184C107.738 96.3136 109.171 96.0064 110.554 95.5968C111.936 95.1872 114.394 94.624 114.343 92.7296C114.291 90.7328 111.834 90.016 110.298 89.6576C109.171 89.4016 107.943 89.3504 106.867 89.0432C105.946 88.7872 105.178 88.0704 104.819 87.2C103.437 84.5376 102.157 81.824 100.723 79.2128C100.519 78.6496 99.853 78.3424 99.2898 78.5472C98.7266 78.752 98.4194 79.4176 98.6242 79.9808C98.573 80.0832 98.6242 80.1856 98.6754 80.2368Z" fill="#1E1B4B"/>
<path d="M100.826 88.4288C100.365 88.5824 100.109 89.0432 100.262 89.504C100.262 89.5552 100.314 89.6064 100.314 89.6576C100.723 90.4768 101.747 89.9648 101.645 89.1456C101.645 88.736 101.286 88.4288 100.928 88.48C100.877 88.4288 100.826 88.4288 100.826 88.4288Z" fill="#1E1B4B"/>
<path d="M99.5457 96.1088C99.9553 96.7744 100.467 97.44 101.03 98.0032C101.952 99.0272 103.181 99.744 104.563 100.051C105.331 100.154 106.099 100.051 106.816 99.744C107.123 99.6416 106.253 98.6688 106.15 98.6176C105.894 98.3616 105.382 97.8496 104.973 98.0032C104.41 98.208 103.846 98.3104 103.283 98.2592C103.078 98.2592 102.822 98.208 102.618 98.1568C102.515 98.1056 102.413 98.1056 102.259 98.0544L102.157 98.0032C102.157 98.0032 102.31 98.0544 102.208 98.0544L102.054 97.952L101.901 97.8496L101.85 97.7984L101.952 97.8496C101.952 97.7984 101.85 97.7984 101.798 97.7472C101.747 97.696 101.594 97.5936 101.747 97.696C101.901 97.7984 101.747 97.696 101.696 97.6448L101.594 97.5424C101.44 97.44 101.85 97.7472 101.696 97.6448L101.594 97.5424C101.542 97.4912 101.542 97.4912 101.491 97.44C101.44 97.3888 101.747 97.696 101.594 97.5424L101.389 97.3376C101.235 97.184 101.594 97.5936 101.389 97.3888L101.286 97.184C101.235 97.1328 101.184 97.0816 101.184 97.0304C101.133 96.9792 101.338 97.2864 101.286 97.184L101.235 97.1328L101.184 97.0304C100.877 96.5184 100.416 96.0576 99.9041 95.7504C99.8017 95.6992 99.5457 95.5456 99.4433 95.6992C99.3409 95.8528 99.4433 96.0064 99.5457 96.1088Z" fill="#1E1B4B"/>
<path d="M97.7024 112.698C101.03 113.056 104.154 114.541 106.56 116.845C107.635 117.869 109.581 116.384 108.352 115.258C105.434 112.493 101.696 110.803 97.7024 110.445C97.0368 110.394 96.4736 110.906 96.4224 111.571C96.4224 112.288 97.088 112.646 97.7024 112.698Z" fill="#1E1B4B"/>
<path d="M77.5297 114.131C76.1473 115.718 75.0721 117.51 74.3553 119.456C74.1505 120.019 74.8161 120.378 75.2769 120.429C75.7377 120.48 76.6593 120.429 76.8641 119.866C77.1713 118.944 77.6321 118.022 78.0929 117.203C78.1953 116.998 78.3489 116.794 78.4513 116.589C78.4001 116.691 78.5537 116.486 78.4513 116.589L78.5537 116.435L78.7585 116.128C79.0657 115.718 79.3729 115.309 79.6801 114.95C79.9873 114.592 79.6801 114.029 79.2193 113.875C78.6561 113.619 77.9905 113.722 77.5297 114.131Z" fill="#1E1B4B"/>
<path d="M82.6496 110.035C85.568 110.138 88.2816 111.264 91.0976 111.878C93.8624 112.493 96.7808 112.134 99.3408 110.854C99.7504 110.65 98.2144 108.704 97.4976 109.114C94.9888 110.342 92.1216 110.598 89.408 109.933C86.7456 109.318 84.1344 108.294 81.3696 108.192C80.448 108.09 81.984 109.984 82.6496 110.035Z" fill="white"/>
<path d="M88.6401 78.4448C87.4625 80.6976 86.8481 83.2064 86.9505 85.7664C86.9505 86.432 87.4113 87.0464 88.0769 87.1488C88.6401 87.2512 89.1521 86.8928 89.3057 86.3296C89.3057 86.2784 89.3057 86.176 89.3057 86.1248C89.3057 85.5616 89.3057 84.9984 89.3569 84.4352C89.4081 83.9232 89.4593 83.4112 89.6129 82.9504C89.8689 81.9264 90.2273 80.9024 90.7393 79.9808C91.0465 79.4176 90.8929 78.6496 90.3297 78.24C89.8177 77.9328 88.9985 77.8304 88.6401 78.4448Z" fill="white"/>
<path d="M120.281 192.57L209.472 191.392L199.232 244.026L131.238 245.203L120.281 192.57Z" fill="#818CF8"/>
<path d="M119.155 192.826L121.51 192.774L127.961 192.672L137.587 192.57L149.312 192.416L162.112 192.262L175.065 192.109L187.149 191.955L197.389 191.802L204.71 191.699C205.837 191.699 207.065 191.75 208.192 191.648H208.345L208.141 191.597L207.117 196.87L204.659 209.414L201.741 224.672L199.181 237.779L198.361 242.08C198.208 242.746 198.054 243.462 197.952 244.128C197.952 244.179 197.952 244.179 197.952 244.23L200.102 243.77L193.293 243.872L177.113 244.128L157.401 244.486L140.454 244.794L134.822 244.896C133.952 244.896 133.03 244.896 132.16 244.947L132.569 244.998L131.494 239.776L128.883 227.181L125.709 211.974L122.944 198.816L122.022 194.464L121.715 193.082C121.715 192.826 121.664 192.621 121.561 192.365C121.561 192.314 121.561 192.314 121.561 192.262C121.51 192.006 119.001 192.518 119.053 192.672L120.128 197.894L122.739 210.49L125.913 225.696L128.678 238.854L129.6 243.206L129.907 244.589C129.907 244.845 129.958 245.05 130.061 245.306C130.061 245.357 130.061 245.357 130.061 245.408C130.061 245.459 130.47 245.459 130.47 245.459L137.28 245.357L153.459 245.101L173.171 244.742L190.067 244.435C192.832 244.384 195.597 244.384 198.361 244.282H198.464C198.925 244.282 199.385 244.179 199.846 244.077C199.949 244.077 200.563 243.974 200.614 243.821L201.638 238.547L204.096 226.003L207.014 210.797L209.574 197.69L210.393 193.338L210.649 192.006C210.752 191.802 210.803 191.546 210.803 191.29C210.803 191.29 210.803 191.238 210.803 191.187C210.752 191.136 210.701 191.136 210.598 191.136L208.243 191.187L201.792 191.29L192.166 191.392L180.441 191.546L167.641 191.699L154.688 191.853L142.605 192.006L132.365 192.16L125.043 192.262L121.561 192.314H121.408C120.845 192.314 120.23 192.416 119.667 192.57C119.462 192.57 118.694 192.826 119.155 192.826Z" fill="#818CF8"/>
<path d="M173.12 74.2464C189.408 74.2464 202.611 61.8221 202.611 46.496C202.611 31.1699 189.408 18.7456 173.12 18.7456C156.833 18.7456 143.629 31.1699 143.629 46.496C143.629 61.8221 156.833 74.2464 173.12 74.2464Z" fill="#818CF8"/>
<path d="M201.382 46.496C201.331 52.0768 199.488 57.504 196.109 61.9584C192.73 66.3616 188.07 69.6896 182.797 71.5328C177.165 73.4784 171.072 73.6832 165.338 72.1472C159.91 70.7136 155.046 67.744 151.36 63.5456C143.731 54.9952 142.758 42.3488 149.005 32.7232C152.077 28.0128 156.48 24.3776 161.6 22.176C167.027 19.872 173.018 19.2576 178.752 20.3328C184.333 21.3568 189.504 24.0704 193.6 28.0128C197.542 31.8528 200.154 36.8192 201.075 42.2464C201.28 43.68 201.382 45.0624 201.382 46.496C201.382 47.8272 203.942 47.9808 203.942 46.5472C203.891 40.5568 201.894 34.72 198.208 29.9072C194.47 25.0432 189.402 21.408 183.565 19.4624C177.472 17.3632 170.867 17.1584 164.621 18.7968C158.733 20.3328 153.408 23.5584 149.363 28.1152C141.069 37.3312 139.994 50.9504 146.803 61.344C150.131 66.4128 154.842 70.3552 160.422 72.6592C166.413 75.168 172.966 75.8848 179.366 74.7072C185.459 73.5808 191.04 70.7136 195.443 66.4128C199.693 62.2656 202.56 56.8384 203.584 51.0016C203.84 49.5168 203.942 48.032 203.942 46.5472C203.942 45.1648 201.382 45.0112 201.382 46.496Z" fill="#818CF8"/>
<path d="M152.742 62.6752C152.742 62.6752 151.667 36.6656 157.606 31.648C163.546 26.6304 179.162 24.1728 182.694 29.0368C186.227 33.9008 193.958 58.4768 193.958 58.4768C193.958 58.4768 186.995 60.576 178.035 58.4256L166.362 57.3504L152.742 62.6752Z" fill="white"/>
<path d="M153.92 62.9824C153.766 58.4768 153.818 53.9712 154.125 49.5168C154.278 46.0352 154.739 42.6048 155.507 39.1744C156.07 36.8192 156.787 33.9008 158.682 32.2624C161.549 29.8048 165.491 28.576 169.126 27.808C171.123 27.3984 173.12 27.1424 175.168 27.1424C176.038 27.1424 176.909 27.1936 177.83 27.296C178.189 27.3472 178.598 27.3984 178.803 27.4496C179.008 27.5008 179.213 27.552 179.418 27.6032C179.52 27.6032 180.032 27.808 179.776 27.7056C179.93 27.7568 180.134 27.8592 180.288 27.9104C180.339 27.9104 180.442 27.9616 180.288 27.9104L180.544 28.0128L180.8 28.1152C180.595 28.0128 180.749 28.1152 180.8 28.1152L181.005 28.2688C181.056 28.2688 181.312 28.5248 181.158 28.3712C181.517 28.6784 181.773 29.0368 182.029 29.4464C182.643 30.4704 183.206 31.5456 183.667 32.6208C185.05 35.6928 186.227 38.9184 187.405 42.0928C189.299 47.3152 191.091 52.5888 192.73 57.8624C192.781 57.9648 192.781 58.0672 192.832 58.1696L193.088 57.8112C191.552 58.2208 189.965 58.4768 188.378 58.5792C184.486 58.8352 180.595 58.528 176.858 57.5552L174.042 56.8896C173.734 56.8384 172.966 56.6336 172.966 57.1456C172.966 57.6576 173.939 58.016 174.298 58.0672L178.291 58.9888L177.728 57.7088L166.515 56.6848C166.157 56.6336 165.747 56.6336 165.389 56.736C164.774 56.9408 164.109 57.248 163.494 57.4528L156.736 60.1152L151.974 61.9584C151.462 62.1632 151.821 62.5728 152.128 62.8288C152.538 63.0848 153.306 63.4944 153.818 63.2896L164.518 59.1424L166.874 58.2208C167.078 58.1696 167.232 58.1184 167.437 58.016C167.59 57.9136 166.669 57.9648 167.181 58.016C169.126 58.2208 171.021 58.3744 172.966 58.528L178.65 59.04C178.957 59.0912 179.52 59.0912 179.366 58.6304C179.213 58.1696 178.445 57.8624 178.086 57.76L174.093 56.8384L174.349 58.0672C177.318 58.784 180.288 59.552 183.36 59.8592C186.688 60.2176 190.016 60.064 193.293 59.5008C193.907 59.3984 194.47 59.2448 195.034 59.0912C195.187 59.04 195.341 58.9376 195.29 58.7328C193.805 54.0224 192.218 49.312 190.579 44.6016C189.35 41.1712 188.07 37.7408 186.688 34.3616C186.125 33.1328 185.562 31.8528 184.896 30.5728C184.384 29.4976 183.616 28.5248 182.643 27.808C179.571 25.6064 175.219 25.4528 171.584 25.8112C167.386 26.1184 163.238 27.296 159.45 29.1904C158.067 29.856 156.838 30.7776 155.866 31.904C155.098 32.928 154.534 34.1056 154.125 35.3344C152.998 38.56 152.538 41.9904 152.23 45.4208C151.718 50.9504 151.565 56.48 151.77 62.0096C151.77 62.112 151.77 62.2144 151.77 62.3168C151.565 63.0848 153.971 63.8016 153.92 62.9824Z" fill="#1E1B4B"/>
<path d="M186.483 49.6704C187.2 52.6912 187.763 55.7632 188.173 58.8864C188.275 59.3472 188.685 59.6544 189.146 59.6032C189.555 59.6032 190.17 59.296 190.067 58.784C189.658 55.5584 189.095 52.3328 188.327 49.1584C188.071 48.288 186.227 48.6464 186.483 49.6704Z" fill="#1E1B4B"/>
<path d="M183.821 53.8176C183.719 55.4048 183.463 56.992 183.36 58.5792C183.36 59.04 183.719 59.4496 184.179 59.4496H184.231C184.743 59.4496 185.203 59.0912 185.255 58.5792C185.357 56.992 185.613 55.4048 185.715 53.8176C185.767 53.3568 185.408 52.9472 184.947 52.9472H184.896C184.282 52.896 183.872 53.3056 183.821 53.8176Z" fill="#1E1B4B"/>
<path d="M156.173 48.9024L155.507 57.1968C155.559 57.6064 155.712 57.9648 155.968 58.3232C156.019 58.4256 156.378 58.9888 156.378 58.8864L157.043 50.592C156.992 50.1824 156.839 49.824 156.583 49.4656C156.531 49.312 156.173 48.7488 156.173 48.9024Z" fill="#1E1B4B"/>
<path d="M159.347 44.704C159.347 44.704 157.863 40.3008 156.071 41.5296C154.279 42.7584 157.043 51.1552 159.859 49.2096C162.675 47.264 159.347 44.704 159.347 44.704Z" fill="white"/>
<path d="M160.627 44.3968C160.474 43.8848 160.269 43.424 160.013 42.912C159.655 42.0928 159.091 41.376 158.323 40.864C157.095 40.3008 155.661 40.608 154.791 41.632C154.381 42.2464 154.227 42.9632 154.33 43.68C154.432 45.472 154.995 47.2128 156.019 48.6976C156.48 49.3632 157.146 49.8752 157.914 50.08C159.143 50.336 160.423 49.9264 161.344 49.056C161.856 48.6464 162.163 48.032 162.266 47.3664C162.317 46.8032 162.163 46.1888 161.856 45.728C161.549 45.1136 161.088 44.6016 160.576 44.192C160.064 43.8848 159.45 43.8848 158.938 44.1408C158.733 44.2432 157.811 44.7552 158.272 45.1136C159.143 45.7792 160.064 46.9568 159.757 48.032C159.706 48.2368 159.603 48.3904 159.501 48.544C159.501 48.544 159.399 48.6464 159.45 48.5952C159.399 48.6464 159.399 48.6464 159.347 48.6976C159.296 48.7488 159.245 48.8 159.194 48.8512C159.143 48.9024 158.989 49.0048 159.143 48.9024C159.04 48.9536 158.784 49.056 159.194 48.9024C158.938 49.0048 159.347 48.8512 159.296 48.8512C159.04 48.9024 159.655 48.8 159.399 48.8512C159.245 48.8512 159.706 48.8512 159.552 48.8512C159.399 48.8512 159.655 48.8512 159.655 48.8512C159.603 48.8512 159.552 48.8 159.501 48.8C159.552 48.8 159.655 48.9024 159.501 48.8L159.347 48.6976C159.296 48.6976 159.143 48.544 159.194 48.5952C159.245 48.6464 159.091 48.4928 159.091 48.4928L158.938 48.3392C158.835 48.2368 158.682 48.0832 158.579 47.9296C157.709 46.752 157.146 45.3184 156.941 43.8336C156.787 43.2704 156.839 42.656 156.992 42.0416C156.992 41.9904 157.043 41.9392 157.043 41.8368C157.043 41.7344 157.146 41.632 157.043 41.8368C157.043 41.7856 157.095 41.7344 157.095 41.7344L157.146 41.6832C157.146 41.5808 156.992 41.8368 157.095 41.7344C156.89 41.8368 157.197 41.632 157.095 41.7344C157.095 41.7344 156.839 41.8368 156.941 41.7856C157.043 41.7344 156.685 41.8368 156.634 41.8368C156.327 41.888 156.787 41.8368 156.48 41.8368C156.173 41.8368 156.531 41.7856 156.378 41.8368C156.275 41.8368 156.275 41.8368 156.327 41.8368C156.173 41.7344 156.48 41.888 156.327 41.8368C156.378 41.888 156.48 41.888 156.531 41.9392L156.634 42.0416C156.787 42.1952 156.941 42.3488 157.043 42.5024C157.299 42.8096 157.504 43.1168 157.658 43.4752C157.914 43.936 158.067 44.3968 158.272 44.8576C158.426 45.3696 159.296 45.2672 159.655 45.1648C159.808 45.216 160.781 44.8576 160.627 44.3968Z" fill="#1E1B4B"/>
<path d="M184.23 44.96C184.23 44.96 186.381 40.864 187.968 42.3488C189.555 43.8336 185.51 51.6672 183.053 49.3632C180.595 47.0592 184.23 44.96 184.23 44.96Z" fill="white"/>
<path d="M185.408 44.4993C185.613 44.1409 185.818 43.7825 186.074 43.4241C186.278 43.1169 186.534 42.8097 186.79 42.5537C186.893 42.4513 186.995 42.2977 187.149 42.1953L187.251 42.0929C187.098 42.1953 187.354 41.9905 187.251 42.0929C187.302 42.0417 187.405 41.9905 187.2 42.1441C186.944 42.2977 186.637 42.4001 186.381 42.5025L186.176 42.5537H186.125C186.176 42.5537 186.278 42.5537 186.33 42.5537C186.483 42.6049 186.637 42.6561 186.79 42.7585C186.944 42.9121 187.098 43.1169 187.149 43.3217C187.302 43.8849 187.251 44.4993 187.098 45.0625C186.739 46.5473 186.022 47.9809 184.947 49.1073C184.845 49.2097 184.742 49.3121 184.64 49.4145L184.384 49.5681H184.435C184.435 49.5681 184.333 49.6705 184.282 49.6705C184.23 49.6705 184.538 49.5169 184.384 49.6193C184.23 49.7217 184.179 49.7217 184.538 49.5681C184.691 49.5169 184.845 49.4145 184.998 49.3633C185.357 49.2097 185.254 49.2609 185.152 49.3121L185.254 49.2609C185.562 49.1585 185.306 49.2609 185.306 49.2609C185.306 49.2609 185.101 49.2609 185.203 49.2609C184.486 49.1585 183.872 48.6465 183.565 47.9809C183.206 47.1617 183.411 46.2401 184.077 45.6257C184.179 45.4721 184.333 45.3697 184.486 45.2673L184.691 45.1137C184.742 45.0625 184.947 44.9601 184.742 45.0625L185.05 44.8577C185.101 44.8065 184.794 45.0113 184.947 44.9089C185.101 44.8065 185.766 44.3969 185.254 44.4481C184.691 44.5505 184.128 44.7553 183.616 45.1137C182.438 45.7793 180.749 47.0593 181.107 48.6465C181.312 49.5169 181.978 50.2337 182.848 50.3873C183.309 50.3873 183.77 50.3361 184.179 50.1313C184.896 49.8753 185.613 49.5169 186.227 49.1073C187.661 47.9809 188.685 46.3937 189.197 44.6529C189.453 43.9873 189.555 43.2193 189.453 42.5025C189.299 41.8369 188.685 41.3761 187.968 41.5297C187.046 41.7345 186.125 42.0929 185.357 42.6561C184.896 43.0145 184.486 43.3729 184.128 43.8337C183.718 44.3457 183.36 44.8577 183.053 45.4209C182.95 45.6769 183.923 45.3185 183.974 45.2673C184.282 45.1649 184.589 45.0113 184.845 44.8577C185.05 44.7553 185.306 44.6529 185.408 44.4993Z" fill="#1E1B4B"/>
<path d="M159.091 42.8607C159.091 42.8607 158.374 56.0703 168.051 59.4495C180.083 63.6479 186.227 50.1311 185.562 39.9423C185.562 39.9423 176.243 37.8943 174.502 32.0575C174.554 32.0063 164.57 43.7823 159.091 42.8607Z" fill="white"/>
<path d="M157.965 42.3488C157.709 47.6224 159.296 53.7152 163.239 57.4016C166.362 60.3712 171.226 61.9072 175.475 60.8832C179.264 60.0128 182.131 57.0432 183.923 53.7152C186.074 49.5168 187.098 44.8576 186.791 40.1472C186.739 39.5328 186.023 39.0208 185.511 38.9184C184.999 38.816 184.589 38.6624 184.128 38.56C184.077 38.56 183.667 38.4064 184.026 38.5088L183.667 38.4064C183.411 38.304 183.104 38.2016 182.848 38.0992C182.285 37.8944 181.671 37.6384 181.107 37.3312C179.93 36.768 178.855 36.1024 177.882 35.2832C176.858 34.4128 176.09 33.2864 175.68 32.0064C175.475 31.2384 174.093 30.624 173.53 31.2896C172.455 32.5696 171.277 33.7984 170.048 34.976C167.795 37.1776 165.389 39.3792 162.573 40.864C161.959 41.2224 161.293 41.4784 160.627 41.6832C160.32 41.7856 160.064 41.8368 159.757 41.8368C159.603 41.8368 159.45 41.8368 159.296 41.8368H159.091C158.835 41.8368 159.245 41.888 158.989 41.8368C158.477 41.7344 157.914 41.9392 157.965 42.5536C158.119 43.168 158.631 43.6288 159.245 43.7824C162.266 44.2432 165.133 42.2976 167.437 40.5568C169.895 38.6112 172.147 36.512 174.247 34.208C174.707 33.696 175.168 33.184 175.629 32.672L173.479 31.9552C174.912 36.6144 180.135 39.1232 184.487 40.4544C184.896 40.5568 185.357 40.7104 185.767 40.8128L184.487 39.584C184.691 43.424 184.026 47.264 182.541 50.7968C181.159 53.9712 178.957 57.0432 175.68 58.4256C172.301 59.8592 168.154 59.0912 165.389 56.9408C164.826 56.48 164.263 55.9168 163.802 55.3536C163.29 54.7392 162.829 54.0224 162.471 53.3056C161.754 51.9232 161.242 50.4896 160.935 49.0048C160.627 47.6224 160.423 46.24 160.371 44.8064C160.371 44.3968 160.32 43.936 160.32 43.5264C160.32 43.2704 160.32 43.7312 160.32 43.5264C160.32 43.4752 160.32 43.424 160.32 43.3728C160.32 43.3216 160.32 43.2704 160.32 43.2704C160.32 42.656 159.911 42.0928 159.347 41.888C158.887 41.8368 157.965 41.7344 157.965 42.3488Z" fill="#1E1B4B"/>
<path d="M164.621 49.0561C164.518 49.8241 164.672 50.8993 165.491 51.2577C165.901 51.4113 166.413 51.4625 166.822 51.3601C166.976 51.3089 167.13 51.2576 167.232 51.2064C167.437 51.104 167.693 51.0017 167.898 50.8993C168.102 50.7969 168.256 50.6945 168.41 50.5921C168.41 50.5921 168.563 50.4385 168.461 50.4897C168.102 50.5409 167.795 50.5409 167.437 50.4897H167.488C167.027 50.3873 166.618 50.0289 166.464 49.5681C166.362 49.2097 166.31 48.8513 166.31 48.4417C166.31 48.3393 166.31 48.2881 166.362 48.1857C166.362 48.1345 166.054 48.2881 166.054 48.2369C165.85 48.3393 165.645 48.3905 165.44 48.5441C165.235 48.6465 165.03 48.7488 164.877 48.9024C164.774 48.9024 164.621 48.9537 164.621 49.0561Z" fill="#1E1B4B"/>
<path d="M176.346 42.4512C175.987 42.5024 175.731 42.8096 175.782 43.2192C175.782 43.2704 175.782 43.2704 175.782 43.3216C175.987 44.0384 176.858 43.7824 176.858 43.168C176.909 42.8608 176.704 42.5536 176.397 42.5024C176.397 42.4512 176.346 42.4512 176.346 42.4512Z" fill="#1E1B4B"/>
<path d="M171.533 42.912C171.174 42.9632 170.918 43.2704 170.97 43.68C170.97 43.7312 170.97 43.7312 170.97 43.7824C171.174 44.4992 172.045 44.2432 172.045 43.6288C172.096 43.3216 171.891 43.0144 171.584 42.9632C171.584 42.912 171.584 42.912 171.533 42.912Z" fill="#1E1B4B"/>
<path d="M174.451 30.0608C173.325 31.6992 172.096 33.2352 170.714 34.6688C168.103 37.4848 164.979 40.096 161.293 41.4784C159.245 42.2464 157.043 42.4512 154.944 41.9904C154.535 41.888 153.971 42.0928 153.869 42.5024C153.767 42.912 154.33 43.2704 154.688 43.3728C162.829 45.2672 170.151 38.56 174.81 32.672C175.271 32.0576 175.783 31.4432 176.192 30.7776C176.807 29.9072 174.963 29.344 174.451 30.0608Z" fill="#1E1B4B"/>
<path d="M157.76 40.8128C162.829 39.2768 169.229 37.2288 171.533 31.9552C171.738 31.4944 170.304 30.4192 170.253 30.5216C167.949 35.7952 161.549 37.8944 156.48 39.3792C156.378 39.3792 157.248 40.9152 157.76 40.8128Z" fill="#1E1B4B"/>
<path d="M156.122 39.0208C160.115 36.7168 164.467 34.1568 166.72 29.9584C166.823 29.7536 166.464 29.2416 166.362 29.0368C166.208 28.7808 166.003 28.5248 165.799 28.2688C163.546 32.4672 159.194 34.976 155.2 37.3312C154.995 37.4336 155.917 39.072 156.122 39.0208Z" fill="#1E1B4B"/>
<path d="M177.267 33.0816C179.315 35.232 181.927 36.768 184.743 37.536C185.869 37.8432 185.664 36.1024 184.794 35.8464C182.234 35.1808 179.93 33.7984 178.087 31.904C177.831 31.648 177.267 31.4432 177.011 31.8016C176.755 32.16 177.011 32.7744 177.267 33.0816Z" fill="#1E1B4B"/>
<path d="M169.536 38.4576C168.256 38.6624 167.027 39.2768 166.106 40.1984C164.365 42.0416 164.621 45.0624 166.157 46.9568C167.847 49.0048 170.816 49.4656 173.069 47.9808C175.117 46.5472 175.68 43.4752 174.605 41.3248C173.632 39.584 171.84 38.5088 169.843 38.4064C169.434 38.4064 168.819 38.56 169.024 39.1232C169.331 39.6864 169.946 39.9936 170.56 40.0448C170.663 40.0448 170.714 40.0448 170.816 40.0448C170.867 40.0448 170.919 40.0448 170.97 40.0448C171.072 40.0448 170.611 39.9424 170.867 40.0448L171.277 40.1472C171.584 40.2496 171.072 40.0448 171.226 40.1472C171.379 40.2496 171.379 40.1984 171.482 40.2496L171.687 40.352C171.277 40.1984 171.584 40.3008 171.687 40.352L171.789 40.4544C171.943 40.5568 171.687 40.4032 171.687 40.352C171.687 40.3008 171.891 40.5056 171.943 40.5568L172.045 40.6592C172.199 40.7616 171.994 40.608 171.994 40.608C172.096 40.7104 172.199 40.8128 172.25 40.9152C172.301 40.9664 172.403 41.1712 172.301 41.0176C172.352 41.12 172.403 41.2224 172.455 41.3248C172.506 41.4272 172.557 41.5296 172.557 41.632C172.557 41.6832 172.608 41.7344 172.608 41.8368C172.659 41.9904 172.608 41.7856 172.659 41.9392C172.813 42.5536 172.813 43.168 172.762 43.7824C172.659 44.704 172.25 45.5232 171.635 46.1888C171.482 46.3424 171.328 46.496 171.123 46.5984C171.021 46.6496 170.919 46.752 170.816 46.8032C170.97 46.7008 170.714 46.8544 170.611 46.9056C170.407 47.008 170.253 47.0592 170.048 47.1104L169.843 47.1616C169.895 47.1616 170.048 47.1104 169.895 47.1616L169.587 47.2128C169.485 47.2128 169.127 47.2128 169.485 47.2128C169.383 47.2128 169.28 47.2128 169.178 47.2128C169.075 47.2128 169.024 47.1616 169.024 47.2128C169.024 47.264 169.331 47.264 169.127 47.2128C169.075 47.2128 168.666 47.1104 168.922 47.1616C169.178 47.2128 168.819 47.1104 168.768 47.1104C168.563 47.0592 168.871 47.1616 168.871 47.1616C168.871 47.1616 168.768 47.1104 168.717 47.0592L168.563 46.9568C168.563 46.9056 168.768 47.1104 168.666 47.008C168.615 46.9568 168.563 46.9056 168.512 46.9056C168.461 46.9056 168.307 46.7008 168.41 46.8032C168.512 46.9056 168.307 46.6496 168.256 46.6496C168.154 46.5472 168.103 46.4448 168.051 46.3424C168.154 46.496 168 46.24 168 46.1888C167.949 46.0352 167.847 45.8816 167.795 45.728C167.591 45.1648 167.437 44.6016 167.437 44.0384C167.386 43.5776 167.488 43.1168 167.642 42.7072C167.693 42.5024 167.795 42.3488 167.898 42.144C167.949 42.0416 168 41.9904 168.051 41.888C168.103 41.7856 168.154 41.7344 168.051 41.8368L168.154 41.6832C168.461 41.3248 168.768 41.0688 169.127 40.8128L169.434 40.6592C169.229 40.7616 169.485 40.6592 169.536 40.608C169.69 40.5056 169.895 40.4544 170.048 40.352C170.304 40.2496 170.56 40.1472 170.816 40.096L170.97 40.0448C171.175 39.9936 170.714 40.096 170.867 40.0448H170.97C171.482 39.9424 171.687 39.5328 171.379 39.1232C170.816 38.6624 170.202 38.4064 169.536 38.4576Z" fill="#818CF8"/>
<path d="M178.138 37.792C176.858 38.048 175.68 38.6624 174.759 39.584C172.813 41.632 173.427 45.0624 175.015 47.1104C175.731 48.0832 176.858 48.7488 178.035 48.9024C179.111 49.0048 180.237 48.7488 181.107 48.0832C183.411 46.3936 183.77 43.0656 182.541 40.608C181.671 38.9184 179.981 37.8432 178.138 37.792C177.523 37.792 177.575 38.6624 177.728 39.0208C177.882 39.584 178.394 40.0448 179.008 40.1472H179.059C178.752 40.096 179.264 40.1472 179.059 40.1472C179.315 40.1984 179.52 40.2496 179.725 40.3008L179.93 40.352L180.032 40.4032C180.186 40.4544 179.827 40.3008 179.981 40.352C180.135 40.4032 180.288 40.5056 180.442 40.608L180.544 40.7104C180.698 40.8128 180.442 40.6592 180.442 40.6592L180.647 40.8128C180.698 40.864 180.8 40.9664 180.851 41.0176C180.8 41.0176 180.647 40.7616 180.8 40.9664L180.903 41.12C180.954 41.1712 180.954 41.2224 181.005 41.2736C181.005 41.2736 180.851 40.9664 180.903 41.1712C180.954 41.2736 181.107 41.4272 181.056 41.4784C181.056 41.4784 180.954 41.1712 181.005 41.376C181.005 41.4272 181.056 41.4784 181.056 41.5296L181.107 41.7344C181.107 41.632 181.21 41.9904 181.107 41.7344C181.107 41.8368 181.159 41.9904 181.159 42.144C181.159 42.2976 181.159 42.2976 181.21 42.4C181.261 42.5024 181.21 42.656 181.21 42.4512C181.21 42.7584 181.21 43.0656 181.21 43.424C181.21 43.4752 181.21 43.5776 181.21 43.6288C181.21 43.5776 181.261 43.424 181.21 43.6288C181.159 43.7824 181.159 43.8848 181.107 44.0384C181.056 44.192 181.056 44.2432 181.005 44.3456L180.954 44.5504C180.954 44.6016 180.8 44.8576 180.903 44.6528C180.698 45.0624 180.391 45.472 180.083 45.7792L179.981 45.8816C179.879 45.9328 179.776 46.0352 179.674 46.0864C179.469 46.24 179.264 46.3424 179.059 46.4448L178.803 46.5472L178.65 46.5984C178.547 46.6496 178.855 46.5472 178.65 46.5984C178.445 46.6496 178.189 46.7008 177.984 46.7008H177.728C177.677 46.7008 177.37 46.6496 177.575 46.7008C177.37 46.6496 177.114 46.6496 176.909 46.5472C176.858 46.5472 176.807 46.496 176.807 46.496C176.909 46.5472 177.063 46.5984 176.807 46.496C176.704 46.4448 176.602 46.3936 176.551 46.3424L176.448 46.2912C176.243 46.1888 176.602 46.3936 176.499 46.2912C176.397 46.1888 176.295 46.1376 176.192 46.0352C176.09 45.9328 176.243 46.0864 176.243 46.0864C176.243 46.0864 176.141 45.984 176.141 45.9328C176.09 45.8304 175.987 45.728 175.936 45.6768C176.141 45.8304 176.039 45.8816 175.987 45.7792C175.936 45.6768 175.885 45.6256 175.885 45.5744C175.834 45.5232 175.834 45.472 175.834 45.4208C175.885 45.5744 175.936 45.6256 175.885 45.5232C175.834 45.4208 175.834 45.4208 175.834 45.4208C175.783 45.3184 175.731 45.1648 175.68 45.0112C175.629 44.8576 175.629 44.7552 175.68 44.96L175.629 44.7552C175.578 44.6016 175.578 44.448 175.527 44.2944C175.527 44.2432 175.527 44.192 175.527 44.0896C175.475 43.7824 175.527 44.2944 175.527 44.0384C175.527 43.7824 175.527 43.5264 175.578 43.2704C175.527 43.424 175.578 43.0144 175.578 43.2704C175.578 43.2192 175.578 43.168 175.629 43.0656C175.68 42.9632 175.68 42.8608 175.731 42.7072C175.783 42.5536 175.834 42.5024 175.885 42.4C175.834 42.5536 175.885 42.4 175.936 42.2976C176.039 42.0928 176.192 41.9392 176.295 41.7856C176.346 41.6832 176.448 41.632 176.551 41.5296L176.653 41.4272C176.551 41.5296 176.755 41.3248 176.653 41.4272C176.755 41.3248 176.96 41.1712 177.165 41.0688C177.472 40.864 177.831 40.7104 178.189 40.5568L178.599 40.4032C178.65 40.4032 178.65 40.4032 178.701 40.352C178.855 40.3008 178.496 40.4032 178.65 40.4032L178.803 40.352C178.906 40.352 179.008 40.3008 179.111 40.2496C180.135 39.8912 179.111 37.5872 178.138 37.792Z" fill="#818CF8"/>
<path d="M175.117 52.4351C175.117 52.4351 182.029 51.3087 183.616 47.4175C185.203 43.5263 180.288 43.3215 176.09 47.4687" fill="white"/>
<path d="M175.834 53.3568C178.189 52.9984 180.442 52.1792 182.387 50.848C183.667 49.9264 184.947 48.4928 184.998 46.8544C185.101 44.9088 183.155 43.5264 181.363 43.5264C179.008 43.4752 176.755 45.1136 175.117 46.7008C174.758 47.0592 175.526 47.776 175.731 47.9808C176.038 48.2368 176.755 48.6464 177.114 48.288C178.445 47.008 180.134 45.728 182.029 45.4208C182.387 45.3696 182.694 45.3696 183.053 45.3696C182.848 45.3696 183.206 45.4208 183.258 45.4208C183.002 45.3696 183.155 45.3696 183.258 45.4208C182.746 45.1648 183.514 45.6768 183.002 45.2672C183.206 45.4208 182.746 45.0112 182.95 45.216C182.95 45.216 182.746 44.96 182.848 45.1136C182.592 44.8064 182.848 45.0112 182.848 45.1136V45.1648C182.797 45.0624 182.797 45.0624 182.848 45.1136C182.899 45.3696 182.899 45.6256 182.848 45.9328C182.336 48.7488 179.11 50.2336 176.653 51.0016C176.09 51.1552 175.578 51.3088 175.014 51.4624L174.502 51.5648C174.4 51.5648 174.144 51.616 174.451 51.5648C173.376 51.7184 175.066 53.5104 175.834 53.408V53.3568Z" fill="#1E1B4B"/>
<path d="M151.667 67.0784C151.872 66.6176 152.077 66.208 152.333 65.7984C152.435 65.5936 152.589 65.3888 152.742 65.2352C152.896 65.0816 153.05 64.8256 153.152 64.7232C153.459 64.3648 153.818 64.0576 154.176 63.7504C154.381 63.5968 154.586 63.4432 154.739 63.3408L154.995 63.1872L155.046 63.136L155.2 63.0336C155.354 62.9312 155.507 62.88 155.507 62.6752C155.507 62.5216 155.405 62.368 155.251 62.2656C154.842 62.0096 154.33 62.0096 153.92 62.1632C152.077 63.136 150.643 64.7232 149.824 66.6176C149.67 67.0272 150.131 67.232 150.438 67.2832C150.694 67.3344 150.95 67.3344 151.155 67.2832C151.411 67.2832 151.616 67.232 151.667 67.0784Z" fill="#1E1B4B"/>
<path d="M188.838 61.0879C189.248 60.9855 189.709 61.4463 190.016 61.7535C190.528 62.3167 190.989 62.9823 191.347 63.6479C192.115 64.9279 192.73 66.3103 193.139 67.7439C193.344 68.2047 193.856 68.5119 194.317 68.3583C194.778 68.2047 194.982 67.7439 194.829 67.2831V67.2319C194.317 65.4911 193.549 63.8015 192.525 62.2655C191.552 60.7807 190.17 58.8863 188.122 59.2959C187.712 59.4495 187.456 59.9103 187.558 60.3199C187.558 60.3711 187.558 60.3711 187.61 60.4223C187.814 60.9343 188.326 61.1903 188.838 61.0879Z" fill="#1E1B4B"/>
<path d="M163.955 61.5488C165.543 63.9552 168.256 65.6448 170.919 66.5152C172.301 66.976 174.042 67.488 175.475 67.1808C176.909 66.8736 178.035 65.7984 179.418 65.44C179.674 65.3888 179.059 64.928 179.008 64.8768C178.803 64.7232 178.24 64.2624 177.933 64.3136C176.858 64.6208 175.936 65.2864 174.963 65.7472C173.683 66.3616 172.301 66.1568 170.97 65.7984C168.717 65.2352 166.72 64.2624 165.389 62.2656C165.133 61.9072 164.723 61.6512 164.314 61.4976C164.263 61.4464 163.751 61.2416 163.955 61.5488Z" fill="#1E1B4B"/>
<path d="M88.3327 150.842C88.3327 150.842 79.3727 145.312 79.9359 144.749C80.4991 144.186 112.601 134.816 112.806 137.734C113.011 140.653 106.355 157.446 104.717 157.395C103.078 157.344 98.6239 155.45 98.6239 155.45C98.6239 155.45 90.9439 164.102 90.1759 163.795C89.4079 163.488 88.3327 150.842 88.3327 150.842Z" fill="white"/>
<path d="M88.64 149.818C88.0256 149.408 87.36 148.998 86.7456 148.589C86.1312 148.179 85.4656 147.77 84.8512 147.36C84.544 147.155 84.2368 146.95 83.9296 146.746L83.1104 146.182C82.5472 145.824 81.984 145.414 81.472 145.005C81.2672 144.851 81.1136 144.698 80.9088 144.544C80.8576 144.493 80.6016 144.237 80.8064 144.442C81.0112 144.646 80.7552 144.237 80.8576 144.493C80.96 144.749 81.1648 145.414 80.7552 145.722C80.6016 145.824 80.4992 145.824 80.704 145.773C80.9088 145.722 81.1136 145.619 81.3184 145.517C85.9264 143.93 90.6368 142.701 95.3472 141.472C98.3168 140.704 101.338 139.936 104.358 139.322C105.638 139.066 106.918 138.81 108.198 138.605L108.813 138.502C109.069 138.451 109.325 138.451 109.632 138.4C110.093 138.349 110.554 138.298 111.014 138.298C111.373 138.298 111.68 138.298 112.038 138.298C112.397 138.298 111.834 138.195 112.192 138.298C112.397 138.349 112.602 138.451 112.243 138.298C112.499 138.4 111.987 138.042 111.987 138.042C112.09 138.144 111.782 137.683 111.885 137.837C111.475 136.966 111.936 137.939 111.782 137.478C111.731 137.274 111.782 137.376 111.782 137.478C111.782 137.581 111.782 137.786 111.731 137.939C111.68 138.093 111.782 137.734 111.731 137.888C111.731 137.939 111.731 137.99 111.731 138.042C111.731 138.093 111.68 138.298 111.68 138.4C111.014 141.267 110.144 144.032 108.966 146.694C107.942 149.51 106.714 152.224 105.229 154.886C105.024 155.245 104.768 155.654 104.461 156.013C104.358 156.115 104.358 156.166 104.461 156.013C104.41 156.064 104.358 156.115 104.307 156.166L104.205 156.269C104.307 156.166 104.41 156.166 104.512 156.166C104.256 156.064 104.102 156.115 103.744 156.064C103.386 156.013 102.874 155.808 102.464 155.706C101.594 155.45 100.774 155.091 99.904 154.784L99.4944 154.63L99.3408 154.579L98.9824 154.426C98.5728 154.17 98.0608 154.272 97.7536 154.63C95.552 157.242 93.1968 159.699 90.688 162.003C90.432 162.208 90.176 162.413 89.92 162.618C89.8688 162.669 89.8176 162.669 89.7664 162.72C89.7152 162.771 89.9712 162.618 89.8688 162.669C89.7664 162.72 90.0736 162.669 90.0224 162.669C90.3808 162.72 90.688 162.925 90.944 163.181C90.944 163.232 91.1488 163.539 91.0464 163.334C90.944 163.13 91.0464 163.283 91.0464 163.334C91.1488 163.539 90.9952 163.181 90.9952 163.078C90.8928 162.72 90.8416 162.362 90.7904 162.003C90.3808 159.853 90.2272 157.907 89.9712 155.757C89.8176 154.221 89.664 152.685 89.5616 151.149C89.5104 150.483 89.1008 149.92 88.4864 149.715C88.0256 149.562 87.5648 149.818 87.4112 150.278C87.36 150.381 87.36 150.483 87.36 150.586C87.6672 154.374 87.9744 158.163 88.64 161.901C88.7424 162.618 88.896 163.334 89.2032 164C89.5104 164.768 90.3808 165.178 91.1488 164.87C91.3024 164.819 91.4048 164.768 91.5072 164.666C92.224 164.154 92.8384 163.59 93.4528 162.976C94.3232 162.157 95.1424 161.286 95.9616 160.416C97.2416 159.034 98.4704 157.702 99.6992 156.32L98.4704 156.525C99.8528 157.139 101.235 157.651 102.669 158.112C103.744 158.47 105.229 159.085 106.15 158.163C106.918 157.293 107.533 156.32 107.994 155.296C108.762 153.811 109.427 152.275 110.093 150.739C111.475 147.616 112.602 144.39 113.574 141.114C113.882 140.141 114.086 139.117 114.086 138.093C113.984 137.12 113.216 136.301 112.243 136.147C110.246 135.738 107.994 136.301 106.048 136.659C102.976 137.222 99.9552 137.939 96.9344 138.656C91.5584 139.987 86.1824 141.421 80.9088 143.162C80.3968 143.264 79.8848 143.469 79.424 143.725C78.2464 144.544 79.7312 146.029 80.3968 146.592C82.7008 148.384 85.1584 150.074 87.6672 151.558L88.2816 151.917C88.6912 152.173 89.2544 152.07 89.5104 151.661C89.5616 151.61 89.6128 151.507 89.6128 151.456C89.5104 150.739 89.2032 150.125 88.64 149.818Z" fill="#818CF8"/>
<path d="M106.15 141.267C102.771 143.571 99.443 145.875 96.115 148.23C94.4766 149.357 92.8382 150.483 91.3022 151.763C90.9438 152.07 90.6878 152.531 90.6878 153.043C90.4318 154.221 90.2782 155.398 90.0734 156.576C89.715 158.829 89.4078 161.082 89.1518 163.386C89.0494 164.41 91.1486 165.69 91.3022 164.307C91.5582 162.413 91.8142 160.57 92.0702 158.675C92.2238 157.446 92.4286 156.115 92.6846 154.989C92.7358 154.63 92.8382 154.272 92.9406 153.914C92.9918 153.709 93.0942 153.709 92.9406 153.862C92.9918 153.811 93.043 153.76 93.0942 153.709C96.5758 150.893 100.365 148.435 104.051 145.926C105.433 145.005 106.765 144.032 108.147 143.11C108.659 142.803 108.045 141.882 107.789 141.626C107.328 141.114 106.713 141.011 106.15 141.267Z" fill="#818CF8"/>
<path d="M104.051 155.962L94.3231 152.736L92.9407 152.275C92.3263 152.122 91.7119 152.275 91.1999 152.582C90.8927 152.787 90.4319 153.299 90.9951 153.453L100.723 156.678L102.106 157.139C102.72 157.293 103.334 157.139 103.846 156.832C104.102 156.678 104.614 156.166 104.051 155.962Z" fill="#818CF8"/>
<path d="M106.867 141.677L91.2 148.435L88.9984 149.408C88.6912 149.51 87.872 149.971 88.0256 150.432C88.1792 150.893 89.152 150.483 89.408 150.381L105.075 143.622L107.277 142.65C107.584 142.547 108.403 142.086 108.25 141.626C108.096 141.165 107.123 141.574 106.867 141.677Z" fill="#818CF8"/>
<path d="M127.91 226.72C120.435 230.765 111.322 226.771 104.819 222.675C98.3167 218.579 92.6847 212.742 89.6639 205.626C88.8447 203.629 88.1791 201.581 87.8207 199.482C87.6671 198.611 87.7183 197.69 87.9743 196.819C88.0767 196.461 88.2815 196.102 88.5375 195.795C88.6399 195.642 88.7935 195.539 88.9471 195.437C89.0495 195.386 89.4079 195.283 89.3055 195.283L87.5647 194.464C88.0767 195.386 87.6159 196.41 86.8479 197.024C86.4895 197.331 86.0287 197.536 85.5679 197.587C85.6191 197.587 85.2095 197.587 85.2095 197.587L85.4655 197.69C85.4143 197.741 84.7487 197.178 84.6463 197.126C83.0591 195.693 81.8303 193.901 81.0623 191.904C79.4751 188.013 79.3727 183.661 80.6527 179.718C81.3695 177.466 82.5983 175.418 84.2367 173.728C84.3903 173.574 83.2127 173.114 83.1103 173.062C82.8543 172.96 82.0863 172.602 81.8303 172.858C77.3759 177.517 76.2495 184.736 78.5023 190.726C79.7311 193.901 81.9327 196.973 85.2607 198.15C86.8479 198.714 88.6911 198.918 89.7663 197.382C90.1759 196.87 90.2783 196.154 90.0735 195.488C89.8687 195.027 89.4079 194.874 88.9983 194.669C88.4863 194.464 87.9231 194.31 87.3599 194.31C86.0287 194.31 85.4655 195.795 85.3631 196.922C85.1583 198.458 85.6703 200.096 86.1311 201.53C87.0527 204.755 88.5375 207.776 90.4319 210.541C94.3231 216.224 99.8015 220.781 105.792 224.006C109.12 225.85 112.602 227.283 116.237 228.307C119.923 229.331 123.917 229.843 127.654 228.768C128.576 228.512 129.446 228.154 130.266 227.693C130.573 227.539 129.6 227.13 129.549 227.13C129.139 226.976 128.269 226.515 127.91 226.72Z" fill="#818CF8"/>
<path d="M125.146 122.989C129.19 122.784 132.006 119.405 134.208 116.384C136.922 112.749 139.533 109.114 141.939 105.274C144.346 101.485 146.342 97.44 147.776 93.1904C149.005 89.4528 149.926 85.3056 149.312 81.3632C149.005 79.52 148.39 77.7792 147.418 76.1408C146.496 74.5536 145.267 73.0688 143.578 72.2496C140.25 70.6112 135.846 71.9936 134.208 75.3216C132.416 79.008 134.157 83.5136 137.126 86.0736C138.714 87.3024 140.506 88.2752 142.451 88.8384C144.755 89.6064 147.162 90.272 149.568 90.784C154.074 91.7056 158.938 92.4224 163.443 91.2448C167.283 90.2208 170.765 87.5072 171.84 83.5648C172.096 82.6944 172.147 81.7216 172.096 80.8C171.994 80.288 171.738 79.776 171.43 79.3664C171.379 79.264 170.765 78.5472 170.765 78.7008C171.072 82.3872 168.717 85.7152 165.645 87.5584C162.061 89.7088 157.606 89.8112 153.562 89.3504C149.056 88.8384 144.653 87.8144 140.454 86.2784C138.714 85.6128 136.922 84.7936 135.642 83.4112C135.488 83.2576 135.386 83.104 135.232 82.9504C135.078 82.7968 135.283 83.104 135.232 82.9504C135.078 82.5408 134.976 82.1312 134.925 81.7216C134.771 80.8512 134.822 79.9296 135.027 79.0592C135.846 75.5776 139.174 73.2736 142.707 73.7856C144.397 73.9904 145.882 74.8096 146.957 76.1408C147.674 77.0624 147.93 78.6496 148.083 79.8272C148.544 83.5136 147.674 87.3024 146.547 90.8352C145.216 94.7776 143.424 98.5664 141.222 102.099C139.072 105.683 136.614 109.062 134.157 112.442C132.058 115.309 129.805 118.688 126.374 120.122C125.555 120.429 124.736 120.634 123.866 120.685C123.712 120.685 124.275 121.811 124.326 121.914C124.48 122.17 124.838 122.989 125.146 122.989Z" fill="#818CF8"/>
<path d="M238.553 65.2864C238.553 65.2864 247.513 59.7568 246.95 59.1936C246.387 58.6304 214.285 49.2608 214.08 52.1792C213.875 55.0976 220.531 71.8912 222.169 71.84C223.808 71.7888 228.262 69.8944 228.262 69.8944C228.262 69.8944 235.942 78.5472 236.71 78.24C237.478 77.9328 238.553 65.2864 238.553 65.2864Z" fill="white"/>
<path d="M239.322 66.2592C241.421 64.9792 243.469 63.648 245.466 62.2144C246.234 61.6512 247.565 60.9344 247.974 59.9616C248.435 58.8352 247.36 58.1184 246.49 57.76C244.698 57.0944 242.854 56.5824 241.062 56.0704C238.093 55.2 235.123 54.3808 232.102 53.6128C228.979 52.7936 225.805 52.0256 222.63 51.36C220.326 50.8992 217.92 50.3872 215.565 50.3872C214.899 50.3872 214.08 50.3872 213.568 50.848C212.851 51.4112 213.107 52.5376 213.261 53.3056C213.824 56.3776 215.053 59.4496 216.179 62.3168C217.306 65.184 218.586 68.3584 220.326 71.072C220.838 71.84 221.555 72.9152 222.579 72.9152C223.398 72.864 224.269 72.7104 225.037 72.4032C225.907 72.1472 226.829 71.7888 227.699 71.4304C228.109 71.2768 228.57 71.072 228.979 70.9184L227.648 70.3552C228.621 71.4816 229.645 72.5568 230.669 73.6832C232.154 75.3728 233.741 76.96 235.482 78.4448C236.045 78.9056 236.966 79.6736 237.734 79.1104C238.246 78.752 238.349 77.9328 238.451 77.3696C238.912 75.1168 239.117 72.8128 239.373 70.5088C239.526 68.8192 239.731 67.1296 239.885 65.44C239.987 64.16 237.837 63.2384 237.683 64.8256C237.376 68.256 237.069 71.6864 236.557 75.0144C236.454 75.7312 236.301 76.448 236.096 77.1136C236.045 77.3696 236.198 76.96 236.096 77.1136C236.301 76.9088 236.557 76.8576 236.864 76.9088C236.966 76.96 237.12 77.0624 236.864 76.9088C236.608 76.7552 237.018 77.0112 236.915 76.96C236.813 76.9088 236.762 76.8576 236.71 76.8064C236.045 76.2432 235.379 75.6288 234.765 75.0144C234.355 74.6048 233.997 74.1952 233.587 73.8368L233.075 73.2736C232.973 73.1712 232.87 73.0688 232.768 72.9664L232.614 72.8128C231.488 71.6352 230.362 70.4064 229.286 69.1776C228.979 68.8704 228.467 68.4096 227.955 68.6144C226.726 69.1264 225.498 69.5872 224.269 69.9968C223.859 70.0992 223.501 70.2528 223.091 70.3552C222.886 70.4064 222.682 70.4576 222.477 70.5088C222.374 70.5088 222.272 70.4576 222.118 70.56C222.272 70.56 222.374 70.6112 222.528 70.6624C222.272 70.56 222.733 70.816 222.63 70.7136C222.579 70.6624 222.528 70.6112 222.477 70.56C222.63 70.7136 222.682 70.7648 222.477 70.56C222.272 70.3552 222.221 70.2528 222.118 70.0992C222.016 69.9456 222.016 69.8944 221.914 69.792C221.811 69.5872 221.965 69.8432 221.965 69.8944L221.811 69.6896C221.504 69.1264 221.197 68.5632 220.89 68C220.173 66.6176 219.558 65.184 218.944 63.6992C217.664 60.832 216.589 57.8624 215.718 54.8416C215.565 54.2784 215.411 53.7152 215.309 53.2032C215.309 53.1008 215.258 52.9984 215.258 52.896C215.258 52.7936 215.258 52.7936 215.258 52.7424C215.258 52.5888 215.258 53.0496 215.258 52.8448C215.258 52.6912 215.258 52.5376 215.258 52.384C215.309 52.4352 215.155 52.7424 215.206 52.6912C215.258 52.64 214.95 52.896 215.155 52.7936C215.36 52.6912 215.002 52.8448 215.053 52.8448C215.155 52.8448 215.258 52.7936 215.36 52.7424C215.411 52.7424 215.616 52.6912 215.411 52.7424C215.206 52.7936 215.462 52.7424 215.514 52.7424C216.333 52.6912 217.152 52.7424 217.92 52.8448C218.176 52.896 218.432 52.896 218.688 52.9472C218.432 52.896 218.79 52.9472 218.842 52.9472L219.302 52.9984C219.917 53.1008 220.582 53.2032 221.197 53.3056C224.115 53.8176 226.982 54.5344 229.85 55.2512C235.021 56.5312 240.192 57.9136 245.312 59.552L246.285 59.8592L246.643 59.9616C246.848 60.0128 246.95 60.1152 246.643 59.9616L246.797 60.0128C246.336 59.7056 246.029 59.1936 246.029 58.6816C246.029 58.528 246.182 58.2208 246.029 58.4768C245.875 58.7328 246.131 58.3744 246.029 58.4768C245.926 58.5792 245.875 58.6304 245.773 58.6816C245.568 58.8352 245.414 58.9888 245.21 59.1424C243.008 60.7808 240.755 62.3168 238.4 63.7504C238.246 63.8528 238.042 63.9552 237.888 64.0576C236.659 64.928 238.195 66.976 239.322 66.2592Z" fill="#818CF8"/>
<path d="M219.507 57.4016C222.784 59.6544 226.061 61.9072 229.286 64.16C230.31 64.8768 231.283 65.5424 232.256 66.2592C232.665 66.5664 233.024 66.8224 233.382 67.1296L233.792 67.4368L233.997 67.5904L234.048 67.6416C233.843 67.488 234.099 67.6928 234.15 67.744C234.355 67.8976 234.15 67.744 234.099 67.6416C234.048 67.5392 233.894 67.0784 233.945 67.4368C233.997 67.5904 234.048 67.744 234.048 67.9488C234.304 69.0752 234.457 70.2016 234.611 71.328C234.969 73.5296 235.225 75.7824 235.533 77.984C235.686 79.008 237.837 79.9296 237.632 78.3936C237.376 76.448 237.12 74.5024 236.813 72.5568C236.608 71.328 236.454 70.048 236.198 68.8192C236.045 68 235.891 67.232 235.277 66.6176C233.997 65.3888 232.358 64.3648 230.873 63.3408C228.621 61.7536 226.368 60.1664 224.115 58.6304C222.733 57.6576 221.35 56.736 219.968 55.7632C219.558 55.5072 218.893 55.3024 218.637 55.8656C218.381 56.4288 219.097 57.1456 219.507 57.4016Z" fill="#818CF8"/>
<path d="M224.013 71.5841L233.741 68.3584L235.123 67.8977C235.43 67.7953 236.301 67.4369 236.147 66.9761C235.994 66.5153 235.021 66.72 234.765 66.8224L225.037 70.0481L223.654 70.5088C223.347 70.6112 222.477 70.9696 222.63 71.4304C222.784 71.8912 223.706 71.6865 224.013 71.5841Z" fill="#818CF8"/>
<path d="M218.739 57.248L234.406 64.0064L236.608 64.928C237.171 65.0816 237.734 64.928 238.195 64.6208C238.349 64.5184 239.219 63.8528 238.758 63.648L223.091 56.8896L220.89 55.968C220.326 55.8144 219.763 55.968 219.302 56.2752C219.149 56.3776 218.278 57.0432 218.739 57.248Z" fill="#818CF8"/>
<path fill-rule="evenodd" clip-rule="evenodd" d="M156.58 212.626H165.142C169.871 212.626 174.039 216.441 174.45 221.147C174.862 225.852 171.362 229.667 166.633 229.667H158.071L156.58 212.626ZM165.541 219.988C165.88 219.565 166.061 219 166.006 218.38C165.959 217.833 165.736 217.33 165.402 216.928C165.727 216.65 166.156 216.483 166.638 216.483C167.765 216.483 168.758 217.392 168.856 218.514C168.954 219.635 168.12 220.544 166.993 220.544C166.45 220.544 165.937 220.333 165.541 219.988ZM163.189 220.572C161.921 220.572 160.803 219.549 160.693 218.288C160.583 217.026 161.521 216.003 162.789 216.003C164.057 216.003 165.174 217.026 165.284 218.288C165.395 219.549 164.456 220.572 163.189 220.572ZM167.068 226.256L166.837 223.621C166.74 222.511 166.021 221.559 165.083 221.16H167.035C168.458 221.16 169.713 222.308 169.837 223.725C169.961 225.142 168.907 226.29 167.483 226.29C167.339 226.29 167.201 226.278 167.068 226.256ZM161.106 226.283L160.881 223.713C160.757 222.294 161.787 221.143 163.183 221.143C164.579 221.143 166.075 222.294 166.199 223.713L166.424 226.283H161.106Z" fill="white"/>
</svg>
